<mxfile host="Electron" modified="2024-04-16T06:55:56.677Z" agent="Mozilla/5.0 (Windows NT 10.0; Win64; x64) AppleWebKit/537.36 (KHTML, like Gecko) draw.io/21.2.8 Chrome/112.0.5615.165 Electron/24.2.0 Safari/537.36" etag="KJ795juacWvX_SWku66X" version="21.2.8" type="device">
  <diagram name="Page-1" id="2XWkQP5S-hDbL94sL5Vg">
    <mxGraphModel dx="2058" dy="1180" grid="1" gridSize="10" guides="1" tooltips="1" connect="1" arrows="1" fold="1" page="1" pageScale="1" pageWidth="3300" pageHeight="4681" background="#999999" math="0" shadow="0">
      <root>
        <mxCell id="0" />
        <mxCell id="1" parent="0" />
        <mxCell id="PHQ5CLUJddvyAd3cBVB4-1" value="C++" style="rounded=0;whiteSpace=wrap;html=1;fillColor=#dae8fc;strokeColor=#6c8ebf;fontSize=52;" vertex="1" parent="1">
          <mxGeometry x="1180" y="200" width="370" height="400" as="geometry" />
        </mxCell>
        <mxCell id="PHQ5CLUJddvyAd3cBVB4-2" value="QML" style="rounded=0;whiteSpace=wrap;html=1;fillColor=#f8cecc;strokeColor=#b85450;fontSize=52;" vertex="1" parent="1">
          <mxGeometry x="1570" y="200" width="370" height="400" as="geometry" />
        </mxCell>
        <mxCell id="PHQ5CLUJddvyAd3cBVB4-3" value="Catch QML Signal" style="rounded=0;whiteSpace=wrap;html=1;fontSize=30;fillColor=#dae8fc;strokeColor=#6c8ebf;" vertex="1" parent="1">
          <mxGeometry x="1190" y="40" width="750" height="140" as="geometry" />
        </mxCell>
        <mxCell id="PHQ5CLUJddvyAd3cBVB4-4" value="" style="endArrow=classic;html=1;rounded=0;strokeWidth=4;" edge="1" parent="1">
          <mxGeometry width="50" height="50" relative="1" as="geometry">
            <mxPoint x="1130" y="1230" as="sourcePoint" />
            <mxPoint x="1210" y="1230" as="targetPoint" />
          </mxGeometry>
        </mxCell>
        <mxCell id="PHQ5CLUJddvyAd3cBVB4-5" value="C++" style="rounded=0;whiteSpace=wrap;html=1;fillColor=#dae8fc;strokeColor=#6c8ebf;fontSize=52;" vertex="1" parent="1">
          <mxGeometry x="1270" y="1020" width="370" height="400" as="geometry" />
        </mxCell>
        <mxCell id="PHQ5CLUJddvyAd3cBVB4-8" value="" style="shape=image;verticalLabelPosition=bottom;labelBackgroundColor=default;verticalAlign=top;aspect=fixed;imageAspect=0;image=data:image/png,iVBORw0KGgoAAAANSUhEUgAAA+AAAANSCAYAAADlJaQDAAAAAXNSR0IArs4c6QAAAARnQU1BAACxjwv8YQUAAAAJcEhZcwAADsMAAA7DAcdvqGQAANhtSURBVHhe7P0PcFR1nv//vgOZLySZL0I6KAkmNMr/vSiQUZnNJQqLTqnDkBq/UGG27hTOd5gaU7vixaEKLS3H0qvccuU6fPeGucPsyJ3f3SEFP/ebjMNYszpywZsd1ElA+S4YRGkSSVDoBNkJkd8SuJ/POZ/Tfbr7dKe7093phOejqs3p0336/OkE+9Wfz+f9Kbhnxcprkgd6g+fNEgAAAAAAY8848xMAAAAAAGQRARwAAAAAgBwggAMAAAAAkAMEcAAAAAAAcoAADgAAAABADhDAAQAAAADIAQI4AAAAAAA5QAAHAAAAACAHCOAAAAAAAOQAARwAAAAAgBwggAMAAAAAkAMEcAAAAAAAcoAADgAAAABADhDAAQAAAADIAQI4AAAAAAA5QAAHAAAAACAHCOAAAAAAAOQAARwAAAAAgBwggAMAAAAAkAMEcAAAAAAAcoAADgAAAABADhDAAQAAAADIAQI4AAAAAAA5UHDPipXXzPKI6g2eN0vZUiCVPxgv00tFBt4dlA/eyeVpO/u+Jmd+PShdX5jVo1qZ1K65Q+qWzJSKcrNKTknj+jfkoLkHAAAAAAjL2xbwsrpCWfqTQrl9WYFZk0iBzFHPXfqT8VJ5o1kV7cYCKVXhWyu6a5yKjxiO2o1rpeFBd/gGAAAAACSStwH8UtBuoS7yWT8SU+G6yCwOxGtd/uKa9PbaiwPvXpVst7ePbWUyfZq91LZzj9SvbzQ3Wr8BAAAAIJ48DuBmobRAis1iXGUmgPdek0vWCi/XpOtXV+TQP1zJcffzMaynXfa28lUGAAAAACQjf4uwnb8mA2YxaQkDOAAAAAAAI2e8f+YtPzXLI2pgICo6lxTItNsL5GtFIv/xb06wLpCyuvEy+6/HyQ2Xr0nwnLVSiueNk5tuLpCBj6/J5516jS56VigL/mac3KyeG33zjXeeF81st1hl+cPX5D+d/X17vMx0tr1RHc9H+jEvBVK8YLwsWKWeb/atnz/Ye02ulI2zxqD/xwfX5GK/ebpL8YJxMlNtNzt0zAVmXxKxLz02/rZvj5PiC1dD52+5Ue1bXbP/jHpt+/kFUnDSe7/puSSl/6c75I6v98hbf/xMLpi1AAAAAID40moBLykpkdsWLox7048P2xfhFvAiV2G10lkFUlRaIKVzwsXZin328oAZNz5sutu7CrRzfjBeZun9mdVa0axxctsPVAA298PsSue3PaCPz6xS9PNnfd+uvu7NDv23PWAH9DD1OrPU60UVlguPjXcXp1Ov8W31XLWfyKJ15lh6r0kwG5XXy6dIlVkEAAAAACSWVgDv77ebUhcu/KuYm+Y8PlwDpmhayAIVUs1i7NhwFdhDw5HD473dtw/fTTagF1ihuVRPG/b7wfD2vzfbl46TmxfYiw7dUm6H7GvS697m14PS2xsZyt2Kl43z3O6Q2u6Mdf4FMl0di1O13RkbH1Gczl3h3Ws9XfMBAAAAYMSlPQb8w6NH5ejRfzf3bPq+Xp8ZKlCbAFpk0mexFS5VUD2pfqgArrtoh1p5lbgV0NOhQuvJfxiUrmPh0H7p2KCc1PtWIlqgb1QhepZesOf5PuHe5otrcuJXTpiOorabfZd+ndjtdA+ArtB2KoQ7LdvHroq1yv0FhFWELnxdItfrngH23cwoE/+a+6VusVrs6RPPnvwAAAAAgBjDKsLmDuGZDd+2yO7WKnDPVj9VMO611oeDebzW5fSpQPy7Qc+pypxjiuBUYT95VbpS+RJgyO1UCD9kroE6dydYW19MuIJ2me6O71yX0BcTzhcWGeqaP2OpbNvVIE271spWPf93zylp+fkhCZiHAQAAAACJDbsKug7db/3x7YyHby00FZnhjGc+32GPD3ePAx/JbtbhoGv/TFZS2znV4EOBO9wzoNTqBq9CvHNdrNcJfzFhj41XwfyYfT+TutXtjL0IAAAAAEjCsAO49vnn2ajwpZjwaY1rNuO/e09cCxdo06H0RtOKPIIBPNeiC7HpAG6F+ND10utVQNfd4jN1XU4fkk3rG6V+/R5p3NcnFeUzpeHHS8VvHgYAAAAAJJaRAJ41rqBdZsZ/24XWYsc7Z3acc3oiCqClIOF2Tjd1V5C+ZHoAuL+YsLqZq+vV26vW6+7qWfti4rwc3LtbGg+rRaqgAwAAAEDS8juAK04ldKe11ym0ZrcCF0jpX9tBM2NTkKXBCcQya1yoWnmEG9Xx65Qcxb2de6qxsAKpXGrO+2NXkPb4YsLuZq7WO+PDs1KADQAAAACQrjwP4E6gNFXGT14NFUYLtQJbwVYte1VMyxXT8qwD86wfjJcyV5guXjBebtdTmpn7Eb64Kmesqur2VGNzFthh23KjPa+4M0XZmXciv2Bwgnap/mLC1cp9XnfRV0rn6P+q41LXCQAAAAAw8vK+BdwtojXXtAIXqRCqZXQKspRdk67fXQ21Ss/6fqEs/Yl9u+2BAilSAdnqMu/hfHN4qrHSB8aHtluqAnkofP86uiK7+WJCbxM9ztsaB67XZ/O6lMn0aeoH05ABAAAAQNLyPoCHp/2Kbc11uqfnhS+uygcqKJ856T5GdczvDsqHvxqUz+J2kdfzfV+RD39/1bSiO1SQPqm21XORe4Rop6VbswrTOZzu6VrGx38DAAAAANJVcM+KlfGSYU71BkeyDzlSUybrXlwrq6VdtjzBXOAAAAAAkIxR1QUdeaZ8iayp8Sw7BwAAAACIQgs40uJfs062PjjF3HOcksb1b8hBcw8AAAAAEEYLONIS2Ltbtuw7Jd09ZgUAAAAAICFawAEAAAAAyAFawAEAAAAAyAECOAAAAAAAOZDXAbyqym+WAAAAAAAY3WgBBwAAAAAgBwjgAAAAAADkAAEcAAAAAIAcIIADAAAAAJADBHAAAAAAAHKAAA4AAAAAQA4U3LNi5TWzPKJ6g+fNUpiehqyzM2DuIbFp8tiSDfJwkUigq1lWdx4167Mlmf05zwnKq0ca5ZV+s3ooJSukZVGNxExCN9Aq9e1vy3FzFwAAAABGE1rAx4qSBbJchWHNXzlfVtmL2ZPr/Y1ZZbLuxQZpenFp7BcOAAAAAMYUAvhY0X9M9g/Yi4Gu4/K6vZg92dxf/9uyuvU5uT10a5YD5iEAAAAAGK0I4GPGWXml3Q6s2e9+ruV6fwAAAAAwuhHAgWgzlspm3S18V4NsW1NmVmZLqdxcbhYBAAAAjGkUYRtB86tUyKv0yYETz8mj58zKGE4hsw55qnWP6eodLoDmJdC1U1Z3njX3vEyTVVW18sOyueIPvUZQAsF3ZEvXUTkeUywt3f1FFmH7gyyUR+Yuk7uLfPbDA0E50PUv6twTHau2ULbX1MndqRRhK1koj1Uuk+U+X2hsdWCgQ37Zoa7hEMXgajc2SMNic0f6pOWZ3bL7tLmbCTX3y7Zvz5SKZIL34bek/mcnzB2bf8062fqghI9rxhxZV1ctdyyeIhX2U6RbbbddbWf99cxYKtueXSIVPe2y5YlD9roIehz6WlldnuBcvfbRc0qaf/6GHMzktQEAAADGMFrAR9Dx4EdWGLq7coXMt1fFmlprBd9A18EMjbNWYVaF4ucr3eFbU0HVVydNixpke9U0sy5zbqlsUK+tQrQTvjW1fPecDfLBvIVmRWboLzY+UPt62BW+NX/RXHl+0dPSkoXzS1VS4TsJOow3PbtSVruCsaaXM/XVVdx9lM+Uhmdz0UsAAAAAGBtoAR9RQ0/TtWre0/K8L7lpvJwW9UQt4M5zZKBDnopoDZ4m81XY36qCuZwfqgXdNvT+IlvOA8FW+WXX22afuhX+u/K8PhYlcS+AFFrAp66VD+aocxDduv6O7Og8Gnr+fPXYVvWYXz2W8HrqLug/XiLVKiR379sjm/bG/m5mzhzZvGulVMdtnY5lt4BPkbbDp6R68UyRnlPS+PP35eBp5zjLxD/jvASclunhtIDX3C9NG9Q+pE/a9rXJ3r2mVV3xq8ceVY9VZKOXAAAAADAG0QI+os7KK10d6qdPHq70aAUuWSE/1Pl04CP5wxDhO1WB8wejumKflePn9sjqdl1UbejwnSorpH/khG/trLze2Sj1XUHr3t2+TLSCq8Cvv0BQDpxolEdd4Vuzzu+Efb2X+xK0gp8+JC89oY5tfWOWw/fw6PCtvyCof0J3A3cfpyt8D4sK5t/W4VukbedueckVvrVA6xuyaecptTRF7riTVnAAAABgKATwkXbuuD3Fli92Lu35vnlWF+oDXUmOe06C0+3dX/ld2V61UOaX2OuzKyj7g96h3jkeKZ4avxt+spy5yQdaZUe81nRzvf1lC4a/v5F2+K3sfkEwY5bcobvK97TL3lZ7VYzWT6RN/ahYMot5zAEAAIAhEMBH3FHZYbUCz5V7p9prbNPkW2W6+btD3ozbNTsNeo7tI61yYMAnd1fqMd9Pywc16rZEj/3OVSD3UFQms8xi2orL7BBYVCNN+pw8b3Vyt/Xk0a+7u9csZcnNZsx3+RLZuqvBqgofe1sp1daTAQAAAAyFAJ4HPIuxZbz4mosK4Y/qObyP7JSnujpUGA9KQBdEM4G8ZZ4K4uapAAAAAIDMIIDnAxWIf6kbwYvmybdMC/Qqn11ILF7X7Yzo1+Ow96gw3iirW3Ugb1ZhXKxq6FtzVSncabUeOC8nrRXDcOm83Z092Cy36/NJdEt2OrNcKZ8iVWYxb3zWJ936p54Kbb09Jj7uLckCcgAAAMD1jACeJ14PuouDLZR7s1R8bf7UBK3b/UflUasonArhxRH94YfJJ7cUm8UI4aJpgfPHhg7EQ3VT7z8m+wfUT98yeWw4Xel1FfQX7S7WuZtia7JMn2EWM+10r/Ton3FCvn/NvbLaa1q00yflfb3h4mpZl61jAwAAAK4jBPB8ce6gvKpbn8sWyKqp861xypksvmYpWSFb59RJU02D3c28JLKVe37JQtluTeGlAvGlTA48F7l7jp5/2xX+1b7CU5R1yC8TVl4/J5/qYC1z5YdRr7EqImi7qspb85nrc7Qfsempz9ZKS83amIJ3brV19hRkWsWD92Y5fJ6Qdw/rn1Nk9Y+XSq17XzPKpLYmE18A9MpnVgKfKQ0b54SLpanXX7fRntLM23nZ/Tu7yvnqZ9fJ5jVq24hroY5vzf2ybdf9UmvWAAAAAIiPecDzSGiObkuHPNW6J6Xx30nNAz51hTxSWSN3m7m5PSUz37aS/DzgQQkM+MTvuc/U5jiPobubf3TU3LHFfa5joENe7dgTd5+1GxukYbG5k4s5rp15us3dSKekcf0bctDc05x5wFOaozw0n3cs/TrNFWvVOXufq7O/uHpOScvP32AecAAAAGAItIDnkeOd79hTkilZKb6mHD9nF2CrP6ErodtzcDsCOpie2JlU+E7JwEeyxdpnh9qHWacEgq3yVBLhWztuzRmutjf3Lfp4g7Et9fq5ejz7q0EV/M06izrfA13N6vzih2/tYHO7tFktxjqcvpn9YHn6kGx65i21zz6zwtatg+3O9yPCd9pa35AtO0+p1zT3NfX6jc/Yc513dkfu2y2wd7fUq+NrOWzGhDvU8bbte0u2PEH4BgAAAJJBCzgAAAAAADlACzgAAAAAADlAAAcAAAAAIAcI4AAAAAAA5AABHAAAAACAHCCAAwAAAACQAwRwAAAAAABygAAOAAAAAEAOEMABAAAAAMgBAjgAAAAAADlAAAcAAAAAIAcI4AAAAAAA5AABHAAAAACAHCCAAwAAAACQAwTwMWOaPLbkafmg5mlpqVpo1qXKeY0GeazErBqWTL8eAAAAAIxeBPCxomSBLC+yF/2V82WVvZgFJlQvWSHzzRoAAAAAwNAI4GNF/zHZP2AvBrqOy+v2ItLgr1kqm19cJ027GsxtnWzbOEf85vGhlcm6F822artE7H05+7H3tXlNKvsCAAAAMFoQwMeMs/JK+3Nye+tzsrrzqFmH1NjBeeuGJVJdPsWs06ZIxeKVsvXF+6V2hlmVQO3GtbK63NxJwL9mndmXWWGZItUP6n0tJYQDAAAAYwwBHCmaKreYru45MyPcSrxtTZlZmXmh4NxzSlp27pH69Y3mtkca9/WJ6MdOW0+NS4fqhsUi3fvapc2s86TO6dEHdcjvk7Z9e2SLs69n3pK2HrW6fIlsHaL1HAAAAMDoUnDPipXXzPKI6g2eN0thVVV+6ewMmHtjy6p5T8vzPpEDJ56TR8+ZlVrJNGts9fH+s/Z9w35+UF490iiv9Otx2Bvk4ThBONC1U1Z3Rm4fSe1jaq1srZwrfvMagWCr/LLrbZFK937sx2TqWmlxPTehYLPc/pHTAu8cZ/i4V837rvzQ5wu17ur9bvnobTlu7nup3dhghVpbn7Q8s1t2DxGEU1ZzvzRtmKkWTknj+jfkoL02Nc5rHH5L6ptLZduzS6RCL//shHlCmHNO3Sp8b9ob/bs/RzbvWinV2TpXAAAAACOCFvARcvJS0Po5o2ia9dOmAuvcDdK0aIO0VEWuv7VY/Rj4SP7ghOK02aG4aU5koPb7auT5RQ3yQ70fD0mF70SKF8p2td/nXeFb0/ttyoOCbrXf0OFbpG1nmuF7xlLZ5gR4j8AdaY7cZX2hcEqaY8K3dkL26hZ3mSI332yvAQAAADD6EcBHyPEBO3j5i6daPy3uSuZe6y+dMy3F4fHe7lt9lx3qE1k1z2k5D8qBEzvD2x5plgMDKhx7Be1ze1z7Uc/T6wZapT60znULtX67+eThOXVyt24Jd+/zRIf9cFGNPOI63WgHm9vtbtlK9743s9AiHA7E77aqHzPmyLqNriJsLw5VGG2ObNat3cm2ns8otXqzy+FPIp7rfv1A9wXrZ3lF9rrcAwAAAMgtAvhIOXfcDrIqaIdaf4vLVAjrkAM6R8esV6FMBfBhKVkhP/TpBbtL+KPnwt3Uj/cflUfbd8qrppJ6xg10yFOtjfKKe58q2D9lvjOI7AkQ5fQheekJe4x0bHftDOrpk07dkv3sSlm92FWErdwURvMck60LtzndxZNsPb95igrrIt3dvfZ9q8t5g2x1j3H/rE+61Y+KilL7PgAAAIBRjwA+Ys7JpzrsFpXJLHuFrPLNVUH1vLypu6cXzZNvldjr56vnaKcHEo3rToIJ8hJ8Jzy+OydU4O/Y4zk1mtMVf0Q5LdIyUx7VLdk9p6TxGacAW6Ns2XnKCsOyeKVsrrGeGOIUbmvbOYyx2jW3qgBvI3ADAAAAYxcBfMSclU8u6Z9z5V6r+7UZ533pnLxudU/3yS1mPPasYt1s3SFvDrMB3Anyw25JH6vKp1hF07Y88YYcdIXpQOsbskmFcK36G+FW8HDF8z3yku66nqJQ2G59X1qsLvZ90vbnocaPAwAAABitCOAjKLIQmz29lxWOL50XXfvdXr9Q7tX5W4Xyk+oHsuB0r9hDzO0Cap51902XcJlWasZqz5E11jRiKkg/uDY8Xty5WWPClcUrzbr7pdZ6tuK8Vsh52W11sd8dDvIx3dQBAAAAjHYE8BF0PPiRFfasgmtT58vdatnqZt5/TPYPqPVlC2R+yVSZoZ8cKsA2fBEF3tLl6jo/+vXKZ6bIW044gX/xreFQHsVfMdn62dOdxTHvAAAAAHKKAD6S+s+J1dNZBeJVVvdwp5u56Z6uQ26mCrApTuAX33xZZa2JosK+boVPTpncasaoZ92MpbL5RbtlOVSkLKPOy5/a9bRfM+WuqDHeDv+dM+0W6faTpoX8hLxkxoh73p5pt1u59Tzg1jp3gbYT8u5h/XOm1Hmej9O6bqqyAwAAABgTCOAjKlyI7V49ztvVzfz1oJ6iS603Vcv3B4dZgE0zLet63PnzS9bKKleAnj91rbQsqrNa4RM7Km9aPed98vDcFRGvISXTZNXUBNXM01Rbt0Sq7SppUvHgvbLO6hKQWYG9bdKmflZviJ5yrExq16yTrVYg7pP338tMi7SeWs2qcv7gWtnm3t+MObLZqqquRE1TBgAAAGB0I4CPqHAhtrt10HZ3M7fGgfvU+rnqznn5JCNVy8/KKx2tdgtukQrhi56WD2rsW9OcueIfMFOgDeH1Luc1aiJe44NFG+T5ObXeret574S8ZFU7N1OOhcZzr5UGE76HVek82ulDsn2fbnXXIdy1v2dV+NZfNvS0y5afUZANAAAAGEsI4CPMbum2HQgeNUuK0z1dy2QBtv63ZfWRZnk16E7aQTnQ1Sz17XtkRzLTgpnXODAQ+dyACvCvnjjoOd3YcOjW4jYzRrt735uZC8HRdLXzZ96SlsORRdK6rWnJXAXSMiSwd7ds2anPzQ7iNhX09+lK7IdMV3cAAAAAY0XBPStWXjPLI6o3GNu1t6rKL52dxBAAAAAAwOhHCzgAAAAAADlAAAcAAAAAIAcI4AAAAAAA5AABHAAAAACAHCCAAwAAAACQAwRwAAAAAABygAAOAAAAAEAOEMABAAAAAMgBAjgAAAAAADlAAAcAAAAAIAcI4AAAAAAA5AABHAAAAACAHCCAAwAAAACQAwTwETVNHlvytHxQ0yCPlZhVOeccw9PSUrXQrMuUfDg/AAAAAMgPBPDrXckCWV5kL/or58sqezGPmBC/ZIXMN2sAAAAAYDQigF/v+o/J/gF7MdB1XF63FzEsZbLuxQZp2qVuG+eYdd78NUtl84vr7Odat3WybeNSqZ1hnhCHvZ2zjb3d5jVzxG8eBwAAAJB/CODXvbPySvtzcnvrc7K686hZh+Go3bhWVpebOwnUblwnWzcskeryKWaNNkUqFi+RhmfXybo4Idy/xtnOrLBMkeoHV8rWF5cSwgEAAIA8RQBHnpsqt5gu8imbEW4l3ramzKzMLh2OGxaLdO9rlzazzpM6trrFOnj3SdvOPVK/vtHc9kjj4T61foqsrvNoPVfbPfqg2W7fHtnibPfMW9LWo1aXL5GtQ7S6AwAAABgZBfesWHnNLI+o3uB5sxRWVeWXzs6AuTcW6fHNG+ThoqC8eqRRXumfJqvmfVd+6POFWjEDwVbZ8tHbctzcj1GyUB6rXCbL3dsMdMgvO/bI6/1mRYizP3M3SqBrp6zuPGvueZs/da1srZwr/gShOPw6aZ6f2kfLEPsICTbL7R95t9zXbmywwrCtT1qe2S27T5u72VBzvzRtmCly+C2pby6Vbc8ukQq9/LMT5gku5rndKkRv2hv9u6+7sOtW9FPSuP4NOWjWas45eW83RzbvWinVuThXAAAAACmjBTxfFC+U7SqsPu8Kp5rfVyNNcQqQza9qkA8W1cnD0dsUzZXnF+mq5tPMmsxYNa9BmuYkGYyjpXh+ae1jJM1YKtt0+BYVmr0Cd0rOyxnP70HmyF3WFwqnpDkmfGsnZO8+u/X85pvtNQAAAADyBwE8L/jk4Tl1crduKT6x0xqPrW/1Jzrsh4tq5JGp9mLI1LXSVOlTC0E50NUs9WYbZzvdb8Bf+d2o6b/C473dt/quoHk8AbU/HZ71/iKPsdXal0iHPGXWxbaip3h+5/aEnnN7a7Mc0OsGWiPOMXSL0/qtHWxut7tlK9373sxii/Ac2axbu3X4jmqxjqv1fWlRx1bx4B0eBddM0O7pk057hW1GqVjDvg9/ErEP9xcage4L1s/yitx0uQcAAACQPAJ4vhjQAbZRXjkXDq/HVRB9ymTjGUXu1uxp8ljlXGvpwIlGebTzaEQXbr3daivc+mS5LzOt4POL7ECn9xd5jG+bfc2Ve6O/JHBL6fwy5PQheekJe4x0bHftTNHdxZ1u30mGb8t52f2EHu89WRqebTCVz9U1Vjf79UTafnfIfLlh3DxFhXyR7u5e+77V5bxBtrrHuH/WJ93qR0VFqX0fAAAAQN4ggOeFoLyqx2ybe24nL3m0Tjtzdw+0yo5z9qoY545bLcf+sgU5mz87fohO8fxGEafiedvONMZczyiVu6bZFdDtyudrpUndVpfbhdlearUeiq/mViuoawRuAAAAIP8RwEej4jK723FRjTTVPC0feN7q5G7ryZlxfMBuQb57zlpZ5e7WXrJQts+xW+NPD3gOXB6zwhXPkwjL0XQRtmd1S/cpaXlGV0HfI1t26i7zegy3SPk3SiO6lruFwrbpxm5VRP/zcMedAwAAAMg2AjiSE+oubhd4CwX9RSboB5vjt8aPSXNkjTUdmB7Hvdaa6iziZo0JVxavNOvul1rr2doc2awLtvW0y5Yn3pDdp/WXG+cl0Kq7zO+W+mfa5P1pek5v9zaK6V4eprux6y72u8NfAMR0UwcAAACQLwjgo9ElFdb0Tz0Fl1dhMvetPcEUZimzu4tHTgxnisB9FDkOPeOKymSWWRz1TNfx7vaTUdfSOH1Cdv+8XbrLZ0qDe07v071iNXgvvjUymLv4KyZbP3u6szXmHQAAAEC6COCjUf8x2T+gfvqWRVU5zyKrCrrIq0eek9URIT+2CFx2lMmtqZ7rjKWy+UW7RTpUpCxjTshL6+0Cb563Z1SA1k/T84Bb62ILtCUct21asiOdkHcP658zpc7zfJxW+VPybqpd4gEAAABkHQF8VDorr3TZVc4fXtQg26sWyvyIcDpNVlWtlZaatbLKrBkuuwq6T27JUFX15B2VN62Gd3Wuc1dEjT9X5zk1/vHU1i2RamveLt1N/F5ZFzPd1whp/UTa9M/FK2XbxjnijziuMvHXOHOKx3Yl11OrWVXOH1wr29aobe3VIjPmyGZTPT16mjIAAAAA+aHgnhUrr5nlEdUbjO0yW1Xll85Oz066Y8Q0eWzJBnlYz499pFFe6TerXeZXNVjzfQe6dsbMr+08FtdAh1V93Ot13RLtI6RkhbQsqolbGEwLqP3t7zrommpseOcXknDfenoz7wrrtRsbrCJpNj1NWBqVytM1Q4VoPQ5ct4D/zKNAWs39VsiObeV2scaIR01Fpujib1vN+PMYcbYBAAAAMPJoAR/Fjnc2yu1HmuXVYDAycA2YcdntQ4fvpPUfk1+q/STiL5orD8/ZINsTzQeejv63ZbU6zwPqvNx04H/1xEHP8K3p1uI2a9C0rlT+Zu7CdzJa35BNz+yRxn2npNsco6O755S07NwTN0gH9u6OqJhu65O2fW8RvgEAAIA8Rgs4kmBasqVVhfp4Rd2myap5G6xx4glbswEAAADgOkULOIZWskCWF6lgff5YgmJrZ+XkpcQt5AAAAABwPSOAI2n+yu/K9qnTZL6575hfslAem+eMR++QX9L6DQAAAAAx6IKOpKya97TVvTyhJIu+AQAAAMD1aLx/5i0/NcsjamDgklkKu+GGyfLllxfMPYykE+cPyoGvCmVqcYnI14plslmv6WJo//PU/5T/+yfvyu/+06wEAAAAAESgBRwAAAAAgBxgDDgAAAAAADlAAAcAAAAAIAcI4AAAAAAA5AABHAAAAACAHCCAAwAAAACQAwRwAAAAAABygAAOAAAAAEAOEMABAAAAAMgBAvioNE0eW/K0fFDTII+VmFVpc17raWmpWmjWAQAAAAAyreCeFSuvmeUR1Rs8b5bCqqr80tkZMPcQpkPzBnm4KCivHmmUV/rN6nSUrJCWRTXit+50yFOte+R1azlfmHOVVqlvf1uOm7XeFsr2mjq5Wy0FunbK6s6z9mqX+VUN0lTpi/s4ohXKurVTZPVktXjhkmzZ0y/WX+TsSdK0fIJekrb95+Slj63FkNr7pkqD/UsVo/vCoPQcvih7P75iv5YH/+wSWbN4glRPHm/WDErbkX7Z+97luNtoyW83QTb/aJJUm3vJ8DrPdKV6fvGv56C6nlek+Y+X5GDwilnn5nr/4nG/rw7X+5tI95E+2fSe1369zlE9P3BJmtv61bGaFcN+H9L7/QQAABgptIBf7/qPyf4BezHQdTzPwnf6/JW1ssosI0NU0IsNh4PyWa9ZTFKFCmTVy6fI1rUl5oufSLX3lcrW5cURwU1EbbNoktpmktSaNdHS3S7XMnuc49X1nCAND02RbXcWmnUjTYViz3NU772/WB1rqWyebVZkUoZ+PwEAALKJFvBRKYMt4HkvvRZwzauVmxbwVLlaGAMXpf5fL9urQy2Mg9LyWq/sDrVo2pwW29jWx0Lxz54gj6pwVqHuRbeg+u9UwW2RDm26Rfii7FWPWf8C+CbI5r+ZpAKdWvZosU13u0jOuXqfUyake5xxr6evUGpvnSQN5jVTOm5fiWx7SL0PiVrAh7xm0dwt7uoc97t7OqhjvbNY6hZNkAr371KMVN6H9H4/AQAARgot4MhzU+WWIrOYrGCHHFA/xnwr+IylsvnFBmna1SDb1pSZlZl2Rc5cMItuvYPSbRZTo8LYx/2yab8dlHRreNgEWWMFSR00e+UlJ5xqwcvy0p6L0qaXJxfLmogW1HS3y7UsHGfwihx876K0eL1HI2F2sQnfl6VRBd+XIoYZ2Me66bW+BOE7VZn+/QQAAMguAniemD91hWw3xdDsW4O0zFso883jicwvWai2bQhvq5a3T51mHnULF1zzurVUeW0TRe3rsXnq2NzbLVkrq4YsBjdNneNa9VzXccY7R+t5znNMi3ZRjTSFtnPd1PaxjsuOLt3kNVd+mMw5ucU5v8c8rueqefpxde76uqpt7Ofra68f9VrnIe3rKVJbt0Sqy+3ligfvlXUz7OVs0WO3Y6kAlE7rohOQJheGu6HPnmCPBb5wSfZ6jtlVIdUE9+rFru7r6W6Xa6PlONNWKOsWO+OuL7rGeUfxHKs+fBn9/QQAAMgSAviIs0Nx05wauTuipdcnfl+dCp2JK53fUtkgTYtUSC3ymTWKWr57zoY44TR9uvv2B2pfD/vUsZl1mr9orjy/KEGAt74g2KDOca56rus4E5yjP9VWb7dilXY730mxFdwE5jjn97C6nt4hukx+qLvIq21s6tpXrlCvFbVujg7qkdK+njnWaYJNT58rOKkQ1aN/qsc6rRWp8d86weqC7h63WzvTDm/dgQSF1kLBfbxUWSvS3y7XsnKcugv6fZOsVufuQP/IdrX2TZA7TOv3u55fMGRHNn4/AQAAsoUAPsLmV31XHrbCZlAOnNgpt7c+Z9+ONMurVnE0nzy8KDa82VSwU+EtEGyVp46Y7Vp3ylNW669+uC4qNJ6VV9qd54Vv9c7zE5m61ho7bR1nV7PUu7c/0WEFCn/ldz2+LFDh2/qCQC0OdMir7nO0jlVv65Nbiu1nW87tcT2n2QrSMtAasc/Q7aOj1iaxjqbWCj611grCAXWMTx2JPkb7+niFaP0e+K2x+PZzrfesqEa9VtQ6dRz3ut+LtK9n2MHmdmmzUoYKX/velN2n7eVMC7iDTcigfJZWt2c9DniSPOp0xT7ldEUulOlWeIsKUtGCl+V9a7/q+db3G+lul2uZOc7q5VOl6Ueu20NTpEG9bsv+PtmUsW7dLpOLZat7f65bTCG10vH2lyqBy3LQWpEbmf39BAAAyC4C+EgqWSFbTQjTxdQePecqCtZ/VIXlcHiLFyKtYmIfvS2vhwqxnZXXOxtDofpuXyZawafJY5VzraUDJ9Rxdh6NKIZ2XAXm1So06jC63Bd5nPOrltldyHWAbt8jr7jP0TpWta0KvI+eM6sy6HgqreDqHOpVYF6tjvH1/uhjbJSnrMtZJrd6BOJA17+YQnhn5Q/n7evuXvfJJWuVS/rXM8LpQ/LSE+q9Xt8om/bGFjHMrDjVpD0rT4fFBMYfqcCoi3Cpx7oDFz2mh0q3avVoqXadheOcPF5WL5+kAvHIVkH3TxnJ/af3+wkAAJBrBPCRVFxmdz0OvhOnkvlZeaVLBzH14bZsgcd48KDsD3pX8j4e/Mj+4Fk8Nalx5AmVLJDlVgt2q+yIF5TPHbfDbsRxTpNvlZkvGDoSVDCPCLyZlFor+HHnPSiZJqv0mHw9NtuMWX/eao2Maqk3Tg/EHr973clLdigPSft6jpCPL0r9L6IrSV+R3XvOpVVMq/vCJWl8LUsttmOcroJe/wv3rU+27L8k3Xoas+VZmIpMV0GP2F/4ljdza2f49xMAACCbCOAjaH6RXbk6cClB8++l83aQVs+dZa1IUbrbuTlfFMQrhGbdwtN/hTkVzM/LJ55fMGRfKq3goUJ4izbI83pMvh6bHTFmPUPSvp6jjzswbjlij9WtuHBFDsYtxDVebi41iylJd7tcy/RxXrGryr+mQ7i6touKR2y+81BXcHdhPQAAAEQggGOMi2wFPz4Qp6u2HpPtFMIb6LDGZeux4PVmPLjdBR3DEXiv355my18i62K+1whPJ1WeqCtzqNCXU9063e1yLcvHOeJj3JU8KHQHAACQ7wjgecCvq3bH47SWquB40lqRpHS38+K0wgebQ4XC4t7avbqae4+dTskwWvJDreBxu3MvlO1z9JjsoF0krn2PNS5bjwU/no3u8cO+nqPVZdlrtYKPl9V/EzvN1kFTkK3CPyFuC2q4enq4unW62+XaaDnOtIW+BJggdZnuCg8AADBGEMBHUGictm9ZnGrX4WJdgfPHPIKY95jkobdLUf8x2a+LwcU9zniOyptWK55PHp67Iv5Y5pJpSYxzHk6IN63gRTXySKLWwYGP5A8RReIc0+RWs5QRaV/PKDOWyuYXG6RpV4NsW2MPZ8h3gfcuSosOaZOLZU10Fe2PL9st5F6PWSbIGqd6+uF++29HS3e7XMvmccZpOffPniTb7rOnP4vmNRXc8FyRPwXMMINFkzx6ORjqWNeNcME4AACAkUIAH0n9b8svnYC6qEG2T3UVCitZKI/p+aWtMdQd8stO75bYu+fo+aIXhgNsktulxikGZ45T7y8iOE6TVVVrpaUmdpqu17ta7Q/3erzzkrXymPsc1Xbzp6rtFm2QprhzlkeG+FXu/VrF0oYurqY5reB3++wvJjypY9zqvpbO8VnzfJtVGZH+9XSrrVsi1eX2csWD98q6GfZyfrsiuw/bLcHVi6NbwS/LS/vNY8tLZfOdrrHEKrRtXjtJqvXyhUuyN6IAWLrb5Vo2jlO9hg7ZDxXbleWPXHJNAVYo31ysQrZfh/ASqXX9DuttYqeCG77QFyy6l8ND+hzdrf3OsU6yqrbHDegAAABjWME9K1ZeM8sjqjcYOza3qsovnZ0j1l6VI9NcgdmLPUVZZJV0Z5ugBAZ0oTCzOoLXdt7mVzVYc1JbU5olCOzO8+LS83x37IndZ8kKFbJrosKW2xDHmnD7DnmqdY+8bi0vlO26eJk15Vls12338Uefa8Jz03ODq1/P5yvnyoETz4WmTFs1z66O7l7nvM5Q67S0r6dRu7FBGhabO9InLc/sztpc4KmqvW+qNKg3TBdhi62WXSjr1k6R1ZN1YOyTTe9FFmSrva9UbWuHwxgXLkvjnoue80ynu12Yc1yD0vJadFXtzEnnOJ3rmZCuWL4nuuXcBHurdTyWngrOsxq9CspNy71bziOo7WMrjYffX2+D6veiN0EV9dy8DwAAACOBFvARd1ZeaX9O6k+0ygFrzm+HCtfBZqlvTRBMBz6SLda2HSqIm3VKINgqTyUZvlNxvLNRbj/SLK8G1bGZdZaBoFW0zJrn22uf/W/L6tad8lRX5HEmdY6a3l7t94Daj1tAB9QTB034HprTCu5Fn1v0dbQCsBkT/nrEcWdG2tfTONjcLm099nL3vjfzJnwPLdwK7lW1++C/9lpTa7VdsLsz21RoO3JRBcz4ITrd7XIt08fZrUJ7y/4+qY8J39pleWlPnzQeuWwXSHOofbepbbIzFZw9BZjXOXYH9BR0icI3AADA2EYLOEItsUO1gAMAAAAA0kcLOGRWcYJu0AAAAACAjCCAX090gbapkRXHdZExPY5ZdwffH6T1GwAAAACyhS7o15FERb/0WOzVHx019wAAAAAAmUYL+HXkePBf5Cmvgl8ndhK+AQAAACDLaAEHAAAAACAHaAEHAAAAACAHCOAAAAAAAOQAARwAAAAAgBwggAMAAAAAkAMEcAAAAAAAcoAADgAAAABADhDAAQAAAADIAQI4cL2bsVS2vXi/1Jq7wPXAv2adbNs4x9wDAADIjYJ7Vqy8ZpZHVG/wvFkKq6ryS2dnwNxDYtPksSUb5OEikUBXs6zuPGrWZ0DJCmlZVCN+czdkoFXq29+W4+YuRqGa+2XbhplS0XNKGn/+hhw8bdaPJr4S2fZQsVSYuyEXLsmWPf0S91+QdLeDt6xdz0JZt3aKrJ48KC2v9cruoFk9TDqAb31wisjht6T+ZyfMWgAAgOyiBTxv6AD9tHywZIXMN2tSUrJAlqvwrfkr58sqezGBYe4Pw1I4/WW56Y7fJH9bWK9iSIbplm8dvkWF7yfihW8dfqZK04/UbW1J+EuY2ZPsdeq2ebZZ59BBLPr5Ufx3llrbbrsz42c1ptTeZ1/j5K7TBNlsvSelss5nVo15afx+GoG9u2XLvj6RxStl25oysxYAACC7COBjRf8x2T9gLwa6jsvr9mJm9L8tq1ufk9tDt2Y5YB5CjgyckStmMTPKZN2Pl6jw3Sctz6jwbdYmdOGKRyvmoHzWaxZHSrBfNv3inNSHbhelzTyUULrb5VDnhUHrZ8Xk8dbPhHyFUm4tXJEzGWolTslIX880fj91CG88rK7vg/fKuhlmJQAAQBYRwMeMs/JKux2QM9r9HFlx5czj8vn734u4Bbt7rMe++jRyvXU7+Y71WKb419wrq1Va6973puwejd3OrxOBPvO1y+TCuL0JQkrH292/VWjvtFYgGQd/9pa0yRRZ/eOlQ19jAACAYSKA542pcovpQp4bud7fMMxYKptfbJCmXQ1juqtoYZFuv+yRQdOTIXvmyBo99rWnXbbvja29EOmKnLlgFt16B6XbLCKL0rnOni3BY1Umfj9PyF7dFb18iaypMasAAACyhAA+kqaulRY9DrtG3+rkbr2uqEaarPtRt3kLrU1sZvy21/PUraVqmnlelLT3lwElC+WxeQ3S4tpHy5K1sqrEPJ5Abd0Sqbb71uagq6hfJs56WXyu8de+WfUysVg95Htc3X9Zvq6XoxT66uWGhe5x3eo1nO2SskwmqEwsKjZcuWStSMgeQ+46luJlkftf+Hj8fdfcKtXqR3f7yZSCWrfpDh0pS92dfRNk3X2l9lhyc9u2dpLU5tnYZv/sEtnsjEG2buqY75uQ+ZbUyeOlyizqcc+1+tqsLY0Y3+yfYo8T93qf0jlOe5y+azy513uS0XMtVMc5SZ2X+/VL1HseJ2RHGc7vZ+C9U1Zgr/7GHHsFAABAlhDAR5g/x63Qud6fNr+qQT5YVCcP+3wRH9b9RXPl+UUJvjDIteJ6FbxfkBumlEcUPCuc8h254a9eVuut2BobkFUw993yHZk40XxLYFGv4WznSyKiFE+399n3nnxlrUjMbi23j8UK43/1SOT+J6pbnCBf+42Z6r998v57Q7V+25xxyD1Od2gteEWsDvNZ6O5sBb+HJslqv+lSbVRMniAND+VL4Ta7+NfW5cVSPdmssqhj9k+SrZkqhOZcZ7W/6aHXGy936WujQnn1zAlmnUiVGSce8T5l6DjjvifqlpnWdrvS+dblE9R5mVVKhb9YveelUhdx7JEy8vt5+qS8rzdYfCvT8QEAgKwigI+kc3tiC5vpqb1C61y3j9zjusPjvd23+q4hmnrS3t8wTF0rTZX6E35QDnQ1R+yr/kSH9eHdX/ldeSxBS/jB5nZps1NIFscsL1Nh+Tt2CP7qt/Llv4fHXwc/bZMrKlBP1C3UX0UXQ/PL1yt0MO+Rrz590jVu+8nwdrf8vWereYQiO4BfGeiy7yfkVwFc/dDHosN/Rblc6dshwdAxPylffvpanCBfJtOt7zsuyJkkr2NoHHKEQflsqFbJycUq4IVbM923rYviFBWbrUKh9digtB25KFtcRb227L9stVJWLJo04lW+/XeqMGqFQnWc+/vChcdeuygt1nUZL6tVYB1+mPO4zrMnWD0YLDFjwyOLjg3/OMfLzdXmPblwWRpfc73GL/pkS9tl87zhqb1PTzOmlyKPc4s6zrYL+ssG62me0v79jHBe/tTep35OlukUYwMAAFlEAEcWTZPHKudaSwdONMqjnUcj5gw/fm6PrFYhXMQny30JWsFPH5KXnmiU+vWNsmnIMcvpmTjrEavRWFSQ/fxok3zlaj2+EnzZCtOWeNXIv3pf+oPutsCAvZ0Ow//+uPxliG7lhRPtdsUrXyXTnlgp462DvUNuuKXCCv7Bk++4WuYD8lXEsbiVys3WUPO+FFuu41STzuh440JZt9hu0W3b3ysvvXc54rUDH1+UTSqE61B4x60j2AruK5FHzZcEel7qlz52t7xelt17+ky4nSB1w26td7pfqyBcaq0wXc0vS5u+OJMnyDetLyMKZboVUl1drjN0nNX+CdJ9RIXiPRflYND926/e+0wMP1DHWWd9ixB7nAF1nC+FjjORTP1+TpGbbzaLAAAAWUAAR/Y4c5MPtMqOc/aqGOeOWy3x/rIFIzcfeXG9lFit27+1gmwiX/VFP66Cti6aNvE7csOsZVIY09KtwvAQ4VtLqQCb0119Yrlc+fRx+TJu2M4QFXzrf9EruyPC1hUV4M5J/b8maAG9cCmiBdt923LEY7yub4LcoUOk2m7vx/aqGB+r4Kl+VKhQmLmxxylyqo0H+qOuiUNdm8P2dcnEcTpdrMut4F0o3/Tr1uhBedda7wRz9TO6lThTxxm4KJve8/zaKTOGPM4hpPv7GSXQnVKTOQAAQFoI4Mie4jL7Q328Qm/WzRSDG0GFU+6wu3/3HlIf273ZLdTeAfmrk0/Kl3096nUeEd9f2QXYbpiuwrh5fGipFWALdVfvVvtNJ7DkKyeIJei63vSjSeHu1yMkUbGzEKcKd0TxtPREdrE2QfvCFTn4id0l3z0O3D3mOVPHmXD7DEjqOAEAAMYIAjiue07r8+W+eC3JfplYGi56FiugQvjj8vm/q0DcbcZ9V6gwbgXxJNo/UyzANtEqBpfoeDGmmJCsi64547/bTl0OFxrT48B9heq3TrmupiDLLH+igeYAAAAZQgDPN0VlMsss5kQ293fpvB0Ggs2RBd68bu1vR4wPzy9mzHVMAbYol1QQP6PHfX9PhfEd8tVXOohnqQBb3C8DhtIrn+nUVj5l2C2zGee0xgZ0l+LYbusRtz39Ix40rUAcj9Oa72qRTpsraNdarcXOeOfL8q6+CK7Wa69W5Jwd5zAlPM6c6ZPPPjOLAAAAWUAAzztlcmsSc2NnzjD2N1R47z8m+3WXbd+yhFXOhzRjqWx+sUGadjXItjVlZmWmlct4zyna9LzgpkBbTAG2Zfa4b3MvwqV3rNbw+K8bllYBtqG+DIjrvJw5q3/mYbXn4GV5Xw/D9Zdkpsq5K5imZIjtAqbrd/zjDBeT6w5EFpJLT7ii93QrpIYLrdnjwyfIXdV2kHZPxZX744wj6es5wbsau89jfHvGlck3l+hxIMnPDgAAAJAOAnjeOCpvWh+qffLw3BWyyh1YS6bJqqmZnit7OPs7J59aY6Hnyg+rFoaLp5UsjHwdPV1al13l/OFFDbJdPzficbWfqrXSUrNWVpk1Xmrrlki11b9WpOLBe2VdhoPjlQF7jrOJtzwuE12t1YW+erlhoZ4X3L4fXYCtcHqdTNTjvhfac31HBPFiFc6t6cmGllYBtnjV2JNw8M+n1H+nyB13ZuvLjHQ5RcH01FilsvnOCeKPCI6FUnvnJNn2o6Gm93ICq67u7Sou5lMBL2GwT3K7YL80W2nVHOds1zuvnqvns7an1LoszRkpXmYqoU8ultX6oFRYPmitD4fX8snulnEj58cZLdnrab54Uc9rWKveW9dj/tnq/X4oB+P+Z8ySO/Sf4eFPQtcWAAAgGwruWbHymlkeUb3B2Omlqqr80tmZtXaZ/FOyQloW1YQ/qEbokKda98jr5p6X+VUN1pzbga6dsrrTauZMbBj7c/YVQ3c3j5pDPO5zHQMd8mrHHnml39yPUruxQRoWmzvSJy3P7M7wXOAqLN9hWrmjfdUm/b0VUlIh0u8xnVjh9Jetebjj0vNz6ynCzN1Yzr7b5Mv3Xx56DLjvcbnplmqrAFvwTLp/G3Nk866VUt3TLlueOJT5lk9fiQpNxVKhq6DH6Sruv7PUmltaT28VXWHbeSyuC5el5Y8XE1bMjvsaunt7gsrYyW9X6AqwXuwptdKq6u2h9r6p0mD+UCOv2QTZHCpMd1kaf3ExKkCmf5yJ3qNkJX09nd8ZczeCer/bLkyQan9mr6mbf8062frgFGnb2SgvtZqVAAAAWUALeD7pf1tWH2mWAwORnzADOqCeOJgwfKdlGPs73tko9V0dkeFKbxeMnW9MP/d2tZ9Xg8Go5wflQFez1LfHD9/aweZ2abMbqaV735sZDt/aO/Llv++Q/j6zE+2rHnt+7aOviSQowHbljC6+Zm/rjihXnO0Thm8lxQJsqXVXj+eE7N3XJ1K+RB7NWpf+9AXe65X61y5KS8CMCXdcGJS2IxdVqE8cvjX9GluOmK7NDh3cTyWutJ38dvY0V1v2X1Lh0KyyqGNW4XJLzLRYw+NMRaZf//1P3L9R4e7p3nJ7nNGSvp7Bftlk3vOw8Pu912Nse+bMkTUqfEtPu+wlfAMAgCyjBRxIyLRQ6znCjzYlDtOjSpmse3GtrC7PRo8CYPSwe9jwdwAAAHKDFnAgkQyMuc5P52X3z9ulW6bI6mfvH2JMNTA26a7nenhLdnrWAAAAxCKAA4mkNEXYKHP6kGzaeUqF8JnS8CIhHNcXZ9y3HH5LNu2N7YEFAACQDQRwIAF7zHWPXO4bo0MhWt+QTc/olnAl36YlA7KsW4Xv+p+dMPcAAACyjzHgQFx++frCF6RkYpIVygEAAAAgAVrAgbgC8pej35PPCd8AAAAAMoAADgAAAABADhDAAQAAAADIAQI4AAAAAAA5QAAHAAAAACAHCOAAAAAAAOQAARwAAAAAgBwggAMAAAAAkAMEcAAAAAAAcoAADgAAAABADhDAAQAAAADIAQI4AAAAAAA5QAAHAAAAACAHCOAAAAAAAOQAARwAAAAAgBwggAMAAAAAkAMEcAAAAAAAcoAADgAAAABADhDAAQAAAADIAQI4AAAAAAA5QAAHAAAAACAHCOAAAAAAAOQAARwAAAAAgBwggAMAAAAAkAMEcAAAAAAAcoAADgAAAABADhDAAQAAAADIAQI4AAAAAAA5QAAHAAAAACAHCOAAAAAAAOQAARwAAAAAgBwggAMAAAAAkAMEcAAAAAAAcoAADgAAAABADhDAAQAAAADIAQI4AAAAAAA5QAAHAAAAACAHCOAAAAAAAOQAARwAAAAAgBwggAOAlxlLZduL90utuQsAGFn+Netk28Y55h4AjE4F96xYec0sj6je4HmzFFZV5ZfOzoC5h6FMfORlueG2crny4Q4J7njHrB3F7npcblpfbe6EfbXre/Llu+bOaFSyQloW1Yjf3A0ZaJX69rfluLmbXdPksSUb5OEikUBXs6zuPGrWj0LZuJ4198u2DTOloueUNP78DTl42qwf9cpk3YtrZXW5SPe+t2TT3hNmPYakv5B5dolUmLshPe2y5YlDwv+pRhK/19cLHcC3PjhF5PBbUv8z3mcAoxMt4GNFZb2UqPCtFd40XQqtpdGtsDzmo67SJpdHc/jOkPlTV8j2JQ3yQc3ToVvLkrWyqsQ8YSglC2S5Ct+av3K+rLIXoemgpcO3qPD9RLbCtw4MDdL04tLYLw6yacYsucP+Z0IqHryV1n2MDXn/ez1Cf+9DMse1q0E215hVnpznrZN1M8yqERLYu1u27OsTWbxStq0pM2sBYHQhgI8VXYfk8ud6oUe+OnJIrlgrR7crzY/L5498z9yelH59fp+fGf3n1v+2rG59Tm4P3ZrlgHkoGfOr1AehOTVyd5HPrLH5i+bK84tUEJ+3UOabdXH1H5P9A/ZioOu4vG4vjk7DvJ6R1AfNH+tWzj5peUaFb7N2zDh9Ut7vsRe7930y9s4vm04fkk3rG6U+dHtL2sxDGGH8XqfpvPypXYVZpbwiQZh1vuDoOSV/yoPeQDqENx7WX7bcO+JfCABAOgjgY0ZA/vJTHVQfly+bx2JnyEoZf5P6MRYC+HBMXStNlTp4B+XAiZ2u0Pmc1J9olQMqVPt9y+RbQ7aEn5VX2u3tRnX38wzzr7nXdGN9U3aPmW7nbudl9xN2gKSbLsYOfq/TFXjvlHSrnxVLZsVvnb95ij304mxv3gy1OPgz/QXYFFn943zrVQAAQyOAY3S4606ZqH581T4GxrYPwyrfXOtnoOtf5NFzZ61lx/Fzb8uj7Tul/kijvNJvViIFc2SNHlvY0y7b98bWpMisUrnZdJkFMNbl8d+703ugfKZ8M05rcu03Zlo/2/6cT19unJC9uit6+RJZk7D7fJQZS2Wz6XZPF3YAI4UibHmi8K56Kbn/Dpl4k/N/6R658uH70v+7Jvmqy6xyi1OgTD7/rQR/2pREK7FfJj7y99a4cWe8+JUPf2vvr0K/doX0v/C4/CW0b798/acvSMnnO+Rzq8Cb2r7uISn5VrVr+x3ypXrMe9+p7i9SYd3L4vuWJHzO8E2T+VNrZWvlXPGb8dGBYKv8suttOelT/8OuFHnVFW5XzXtanvd1yFOtB+XWed+Vh31Oy3SjCsfT5LGYddZmHhbK9po6uTuJomH2PnUA3ymrOyMDeHzhgmteknmt+VPXRlwXL+HXMfsT53ymqeP+rvxQXQunpUJf1y0fJTjXkoXyWOUyWe7eZqBD9ncdlFeivniIlfz1jFBzvzRtmCnd+/bIpqQCeJnUrrlD6pbMlIrQh+s+6T7cJtubT0ggugVdF3b7tvu5CXgUGLKLD4m0PLPbbp2fMUfW1VXLHYtN65TSrbbbrraz/9XU4zbtwlRe4p+n2U6c4mLqPDfeK3UR+2lX+4lfeMyvzvXRIc41+evszSnG1LazUV5qNStjONfglDSu9xhS4HUNe07J+797X3a3DnVsc2TzrpVSPVQRNqd4W9znOceohz2Y9zZanONszmCBwJG6nrn7vXZJ6TjT/HsY5t97qmo3NkjDYv2+vC/T1fGtVsen/z1q27lbvZ/qHGLWWZtZnPfe+9qZ33NdE8PrPddy8r57cP62Urh+9nUyd6yhRnH+5gAgi2gBzwcqTPvWf8cVvjUVVG/7jtzw5Mtyw12xHay8C5SpUJvM+O/KevHteMGqmO4u1mbv73G5YYkO9t1yxR10K5fKhJvU6/eolc72rvCtFd72iNxQ59EZLOH+1Pl57S9KYbm+NomfMzx2aGyaExky/b4aeX5Rg2yN+0V5mfxQh00raGs+ubtyhQrfUevmrM1IobPXgx3WT39lbfIF14Zp1Tw95jxx+PZUVCazVJDerq7P864grenr2rRkhcdYdf3FRYN8sKjOun4R2xTNlYfnbJDtU82KDLNbefrk/feG+PBuUR9K1YfyhgejP2CrD4+LV8rWZ9fJZo/WlaQ+jCdBf3htenal9YHa/S+BXo77YTVV5VOkSn0ots4zej+Ll8jWOAWlajeqD9a6iF2GzjUep+ts9bcTdEGtucMKat373o8KDjqQxLmG5TNl9Ya1QxSlyp2477U6zoZnM9eKlw/XM/u/18M4zjT+HrL9NxBrstTpLwvU8dmmWO/nuo1R6zZETq+YsBt6za0qfCuHvcbWj/D77rTeL6agJIDRhRbwEWdalm/qka92/Q/58l3nfP1SeNdDcsN6HXJ7hm75NS3iQ0/RtUxu2PGI1Z071AJtXrdQvYa9PyW6Jd28/pXP1f/tblJB+vM2+fKfXlPb6uPVrds6YKvFD50Wckd4f/o1v/ynJPcXwbxGzGtnjtOybLdWh7t3zy9ZIY/M1QXP7MdiW8D1krPe3dIcu+7AiefitIKn1mIb3q8y0CGvJtUqHMsq5lbpS9wCPnWtfKDCt3U+6ro4+9FV2LfO0VN/6R4Ae6KKuLmvgxa97Vor0Gsx18TsT7d2/7LjoLze7xzXNFlV9V153hr/7rVPt3RawNUHSf3BNV7LXhS79UZ3V1fPj2iFLBO/Cim69VfaE7XEJdl66uLss+3wKalerF7f2rcKQqedfah9zzgf2/IexXmdIVvAQ+GhT1p2vhlqydKt2zpgazGtpaYXQew2S+XRDbq4XXLXNznOccZvxbJbuzweN8dptyJHXsPaNfdKg35vhzzWJN/D4bSAu65n27422bs33Bpo9TLQX3RkrBVvZK5n7n6vlbSOcxh/DyGp/72nKtyy67w/7uOOXRd5rOb4PN6j0PvjdW558767WtKHorug/3iJVKtrMNxeOACQLlrA88Xn70t/KHxrAbny7ssSfORJ+TKJbtd2i3iPDOqvsROY+IgTvvVc4ZHd26397bLr+ka3pDst7oW6lf4PT8rnP33ZhG8tIF/97ree4dnZnxXMVcCOt7+ExdUq7WnVrNb3bFAh+4euIO0eW328X4+rbraKm8Wjx2Pbofys/OF8MGbdJ5esVRnz+kfPSX1Xh/0hzrQKf1DTINurkqh+nqL5RXbrmu5C7w75erz56hO6NX6u3JuoRVoF6adao7fdI0/Zl0lmFE2zFxzqsfojz8lqFV7D4Vs7K693NprtyuTWjLf+mzGaPX3Saa9ISne7/sBo7ljUB8bWN2TTE7oYVHY+2OkPq/qDY701RZp7H0N/WE2Z/lC8Xn2wdXUj1eenKxBr0ZWT/RWTrZ+6i2vkNodk085Tammm3JWxluXzsvt3+jWnyOq6OfYqN/VBu04HEnUOMZWb1TlseUa9Rx7X8KCpsKxbE6ePaIVlFZb0FzmK1WXYFb416/fMuqZT5I47M9EKPrLXMye/18M9zhT/HkZCuIBkuMK5e90Z9z+rISfkXescov8+y+SbS+wQ/a7XFwt5875PkZtvNotDOX1IXgoV7HPvDwByhwA+4lTQ1tNr3fQdueGRZVJYaa8NU+F2yNzpl4mLVHpQIT7hc625wtVP3RI9REvylZ7I7+jtLuAiX+16UoIJqqxHhGTX/oJD7C9hcbUKJ4DH3++wFJepK6gE3wm1bkc6J5+aJS+nB2I/0bjXnbxk0mYGHe/cY0295VQ+t7u+10mTDuJTo0JtlsWE6JCgvNrh3VKd6Jocd96DkmmySs93Pq9BWsyc53bLv09uKbaeMWJCXTYfvFc2r5kj/lwGtcNv5eiDY5+06NZ9c8+ts9v+YJ+OjIaU1k/sqcA8uqD679Stwyq8/s67xTH04X5GmdTWLJXNG9fJthfXWcWZ7JbEFD7UZ0No6qd22evZqqqY809YwToVI3k9c/R7nf5xZufvIdN6umOvoXtdvGM9+Gf95YsKxN9wffni/A56dj+3jfT7Hui+YJYAYPQggOeBr3Y8KV9+2GONofY9+Ru5acfLckOdCuPm8aElN0VXYfUddpBNME7cuyXdL4X69dVHs8sRrfRhodd2heT09xdpojVGXO/bvp9pTitv4FLcKml5y658/pzcfqRZXg3qUKvHm2dunPTxAfuDkTWG3d3qrMd2m27kXl9ADIfu3r59ydPywaIN8rye71yPBY+a83zE6Tmhn2mXtp4pUv2gHvNtV9VtUh88sx3Iu7t7zVL+cT4MW2NM3ddAj5013XS9AkL6TCXkVFvuFN0t3qqG/OxaadiwRKr1+NNyvU2ecKZ+Kl8iW/XvludNdxvOpJG7nrn6vc77932keHz5EvrSJUH189HyvgNAPiGA54WACuGPy+cvqCD+hzYVVstl4rdUGLeCeBLtGklO0WW3YvfI5bZ4LcmmJT2m2NnQAd95bXeQTn9/bib8X+/zfw+l/6i88lGj1HfZLcu6EFxGuqOHuovPlecXqVBcY26L6uRuvTrYLDsy+b2FNT7cjLkf6JADXc3y1BE9tZo957nTdT0vOF0Zn9kjjftOqTDeJ93qg6cTyLdtVEHcPPW6EeqOaxcICwXFZ01QPPxW/NbcNHkWD4tbLMywxu3a40B1t+K2fW9Jo3oft6ib7prqdCm+Ho3p68n7noDTDT3cZbyqQgfpPvnsM/t+jDy4ns6wFwAYTQjg+aRLBfFmPe77eyqM75CvPtdB/O/l6zHd0iMlO/57SKbSeUzYNQE/fgh2WshTrVKeTMt9cq37meAvzlJ57Rw6HvzIs3vo8NipN/J1g1Y4rv/oaPLTfA3JaVXXRdtU4G7fI492HrXGgh+PGA+eDb3ymTUX7hSpslck77Qe7/iGCuO7ZZP60Fn/zFsqjItVDf3RoSpUp7O/vGd3cY3850gXEXtLtiSaUihdpw9Js/6gXx6exzhxRXunNV4X07LHnurx1Xr8aSBiDOoI+6zPvoZ6iiX9e5XolsnCXmP1eubDceb537vdDd2pKTBH7oo35t+ST+97gi8JACAPEcBH1DJ73Le5F6HrHfnyDd0hrFzGW/0Q40ttiq5ymVDt0S5XuUy+/t+/Yx9LVNh1CrDFb2FPFJLjHb+unO5UR08Qrk34z1oBNiUUWn3zvacKK5kqt4QqemeRnrbLLMajpwRLOMbbGc+eKVPXWuOuX9WF0Vqfs1qh7VujFY4zF75dBj6SP7iKtoVNk1vNUlKSuJ5hTnGi5Apv+WsStG6fPiEvWcWsVAivKLV+xpfc/kaNmvutcZ8tujBTREiMLSKWSakFB0M/7iqmFVYm081SUoYKVad7RX+3E+95/jX3uipsu4SmWKqWdcP6HVFBSXcR3mX3ykjGiF7PbBvR48zzv3d3TQEz/Vh3+8nEf7cjej2doREX5Eyi380Iqf89AECmEcBHUGFdnUzU475/as/1HRHEVSC+4f5kRvc5rc/VUuLqrl541zKZGNVy/lW7NcJLCr/1gvjq9ONqWx28H3lZfE8+IiXW68QGba/u5RGckBw11vtKj/WxUyaufzziWArvqpcbfmqmLVOSCdeFi5aGX0Md90SPudHT1n9M9luFzObK80sixzrrKbNanO7WWXNOPjX7/6G7knnJwqhx17pauz3Gu8U6zsggbh2rM71XV7LTbyVmj4/3yS2+HBZ2K6qRrREV3afZ52bNt25WJZTk9YwSGToSmKGn1FopW3ets7uZz4h8vt813jn++Eanu+cUWf3jpVHjpXUxoyGOIU/Z3UGnyM0Zqcqdgtb3pUX3OlDBodYEh3jFwkLKl8ijery+uas/zOsppbbpaZqs4lFDMb0mZKbUuV9Hvf8R76freQ3uYQnqfdZzKOupmLy5qpJb88rr3zX7EZv6PVmjjndX5JzO0fxrqu0uwkpFsmF+RK5njozIcY6Wv3dznOVTZM039N9yvF4PLiP5vidRJC5aWn8PAJBhBPARdKX5cQn+QX3KualchVQVinfoAmzmpgLxRB2IP9wh/QmLjwXkqyPWpzsrWDvb+9Y/IhOiW57ffVm+/NBeLPzWI3LDk2qfOnjfpv5v9OFv5Ut9LDFBe+ju5U4LeXSV8ivNzfKVtVSt9hU+N9/676jA3hbaX/wx4sq779mvoavEO6+hjvuG+5d69xxIy1l5paPV/nBZFDnWWc9X7ddjkbM69jg8fZnfqmQeHmf9fOVCa72l/21ZfcSueu63jlNPPxZ1rOppgWBznPnGU+f0Dri7MnJf7pv+MuCxjFRePyo7zBj2iOtQs8GcW4c81aWnPhtKktczWrIVpU8fku077QJsupv51mfXhsc6q9tWZ7xzT7tsT1Dd92Bzu93FWH2AjRwvrYsZ3ZEwVOWr0PjhByOvifu27cX7ZV3GA4eZcklfS+vLj/jFwsKFxtR7rcfrh45trTWfszVX+T67B0Ni4WmeIl5Hvf8NEdN4OUFa0b8voefpgGLPWx13rKye5sk61qhif9ZN/Z48qI5X/TOafKtqslOWjcT1zLaRPc7R8vduV0mfaRVTS9zrYeTf92SKxCWW7N8DAGQWAXyE6RCux3v3f9gT2Xr8eY895deOd+J3zzauNP8Pq4p6mNr2D97B/asd35Pgrt/KV3p/eh86eL+g93NICjNYgM32jnpt+9xCnPP66cvm9YbqOq9fQx2vnqrNuPJ5m/S/Eb+yelqscOtUEneYcc7tB+XTLE97dbyzMTy3t0MF/1eDUUnampd8p9SfUM+1WnnDAnrO7SM7ZfVHR82aDOg/Jr+MuCax9JcBei7yTFRet65D9Lnp62DGhL8edc7xJH09I5gPlFaLTuIPZXpea12AbYsVxO0PoY5u9aFVj4ncMtS4XKuSuh4v7rV9nGJX+e70SWk+HHk+0SrKZ8rqDWtlc8bmA7cF9rbZVZyVuMXCjMDe3eq9O6WutVmhmffNmo845t8yb9brqJAR8XT9On+O6vmgg7TH/hp1V/295xNOY6X3oesKtKjrGrkfM65eHa89x7M367q495ukkbie2TaixzlK/t6dL9G0obqfj+z7PkfW6N4jiabp85Du3wMAZFLBPStWXjPLI6o3GNtSVFXll87OhB9hkTHL5IYdj8hEPWf3T5syG25HvWnymO7+XBSUV480xpkrfCwy5y2tUt8er0v7NFk1b4M1TjzQpcJ/Z7aLpWVbmazTXSfL+6Tlmd0Jgw2imWsn7Qm+fCiT2o1rrXHiuuU3N/OZw1JzvzRtmMl1x5hQu1HPMz6Mf6f5ewAwgmgBh8Uaj65+JpqzG9eZkgWyvEgF6/PHEownPysnLyVuIR9dzsvun+uuonrcbeKxtYhixmMmbjVL3NqL7LHH5ycxphfIc/4168yXeG+m/SUpfw8ARhIB/HpRWW/mFY+quu4UYfuW7kbeJv3N9DhAJH/ld63K69Hzis8vWSiPzWuQpkpdGa1DfjnqW78N3VVUd6vURbNeJISnquLBe2VzTWw1fl2cLlx07JQ00+qUO7pwoL7uh9vo1YFRTYdv69+Qw2+l33LN3wOAEUYX9OuFDuBPmmnGPPVI/wuPy1+yN9vXKHa9dkHX0549bXUvT0iPre7YM/aui/qQtu3HU6T552/IQT6kJcXuFmruxKPHiKprygffXChTgeUOFTZ0sbZT0qjH5ZpHgNFIB/BHK9pk08/SKbzG3wOA/EAAv67oubf/3qp6HgriuijakWbpbx662Nv16/oN4Nr8qSvkkcp5MqPIF9GqqYu+7e86aM3ZnZX5wDEq+WuWyppvz5Ty8ilWhWKHLjb1/u/et+YM5l/1XJkjm3etlPLDb8l2FVi47ri+8fcAID8QwAEAAAAAyAHGgAMAAAAAkAMEcAAAAAAAcoAADgAAAABADhDAAQAAAADIAQI4AAAAAAA5QAAHAAAAACAHCOAAAAAAAOQAARwAAAAAgBwggAMAAAAAkAMEcAAAAAAAcoAADgAAAABADhDAAQAAAADIAQI4AAAAAAA5QAAHAAAAACAHCOAAAAAAAOQAARwAAAAAgBwggAMAAAAAkAMEcAAAAAAAcoAADgAAAABADhDAAQAAAADIAQI4AAAAAAA5QAAHAAAAACAHCOAAAAAAAOQAARwAAAAAgBwggAMAAAAAkAMEcAAAAAAAcoAADgAAAABADhDAAQAAAADIAQI4AAAAAAA5QAAHAAAAACAHCOAAAAAAAOQAARwAAAAAgBwggAMAAAAAkAMEcAAAAAAAcoAADgAAAABADhDAAQAAAADIAQI4AAAAAAA5QAAHAAAAACAHCOAAAAAAAORAwT0rVl4zyyOqN3jeLIVVVfmlszNg7mHkFEjlD8bL9NJrcubXg9L1hVmdFue1RAbeHZQP3smLX78MKpPaNXdI3ZKZUlFuVskpaVz/hhw09wAAAABcn2gBzxPFC8bJHBVMl/6k0NzGy5xlBVJsHo9PB1r1/B+MS+K5Yenvb5huLJBSFb61orvGqbiab9K7no7ajWul4UF3+AYAAAAAGwE8D5TVjZfbHhingmmBWaOpoHqXWq9CcqZDaq73F+GLa9Lbay8OvHtVYvs9jGZlMn2avdS2c4/Ur280N1q/AQAAABDAR1zxsvEya5YOwiqYvjsoH/7DFTmkb78etIOqCsmz0myN9ZLr/cW6Jl2/svc59rqfGz3tsrd1bH21AAAAAGD4COAjqkBuvstuhe79/aCcUIH0knVP+eKanPiVCsV6uXSc3LzAWuupyHTpHlpm9jfWJX89AQAAACB5FGEbSQvGy9IHVCDuvSof/upqOAy7Oc85OSiHms1bpdbdvrQguaAYtV3S+4t4TmQRtqAO8t92dWHvvSa9h67KiWPRv0rhgmtekirCdqN6jb9W+5qlztesGlD7O/O7QTmfsBhcgTXOffZSHajNcco1GTh5VT5W1yPi3NO9nh5qNzZIw7R22fLEIaF8IAAAAAC3tFrAS0pK5LaFC+Pe9OMYWrHP/jnwcVQgdDuvQqP+OSuyYFk6rbRlc+wgmtT+VGj16oZe9Nfj5bbvj48cP66WSx9Qwb3OtS4DdHf5pWpf013hW9OBetb3C+X2ZXH2p0K7LjB32wM6VLufo+7PUut/Ml4qbzSrjIy2epdPkSqzCAAAAACOtFvAddBeuPCvzL2wo0f/XT48etTcS9712AJeVlcos2apc//9FTlxzKyMocKkCoylEm8KMPN4olZtS7g1eqj9xU45FtmSrVuRz/zbVdMCXSBly8bJrFDX9kSvbdPB+jb1/IQt4E5LvDVW/ap85uouX6wem63Dtec1ca6XolvKD12VrlDLvH2s0/W+4x5nstfTm9UCvphpxwAAAADESnsMuA7ZOmy7pRu+r09Ol+drMjBEva4BUzU8M4beXyJWaG52wrd2Tc6/MygfvmuH3FLTyj48KvAvdQJ91Fh15dIxdQy/1/srkNK5kfsrVgHbDt86QKtwHtEt3j7WD1RoH+pLgtSViX/N/VK3WC329EmnvRIAAAAAQoZVhM0dwgnf14Nr0tvh3WJ9Sa1P1HU9Jc5c4SpEfxYvKB+7ahWMK5rt3l+B+NR9fZxnfpeg9foL73NIy4ylsm1XgzTtWitb9fzfPaek5eeM/wYAAAAQa9hV0HXofuuPbxO+U6YCq9WyXSBFQ0y8ndHxyUnsb1gyEcDLdPdypXSc3PaTQlnqeTPdzKM412ogpqt+bnSr2xl7EQAAAAAiZGQass8/H6G0M8pdCtotsUW+BN22bzRhVBleqHQC/9D7s1qflZEKsaPK6UOyaX2j1K/fI437+qSifKY0/Hip+M3DAAAAAODISABHei4F7Z+R3agjFc81AfzkVUk4dDuJlufzJ0zgT2Z/vQkqpXtxWq1T3c6LU4ldT/n1D1cS3+IUSiuKqnKespRb8s/Lwb27pfGwWqQKOgAAAAAPBPCRZMYx667WNy+w1kQpkJud6uImPCcyZOhMZX+HvIKtCtme3dfDRdMSTnGWrC+uSa8+0FnjYqYLS0xtd1L/LJDp3x4XP0DfmFy4HnaIBwAAAAAXAviIuiafOdXDHxgvc5a5gqGZy9rqDZ6oGFlU6Cxzh0b1GmUL3N3Nr8kJq3p4+vsrfcCef9u9XXiKsmtyJt60Yim5Jl2H9Ouoc/q+Oc6IMKynExsvt/9kfMTc6Nr5f7tqisGNk9vUcVVGnL96nQVqO/Wat8WdszyV6wkAAAAAyUt7HvBMux7nAXeU1Y2XWbPiBLvea3LyV4OJu5/fOE6FynGhseKR1Pb/ELl96vsLzw0+0FsQpyic15zc3pKaB1xxnheXnuf7dx77THg9tCGONcXrGVYm615cK6ulXbY8QSV0AAAAAJFoAc8D55sH5cPfh4uk2dT9k2r9UOFb++KqNbd1rwqkbgM6oP4+duy4vb+rUc+/Jr0qECfcn3r+x7+6EnOsAyevyskkw3cqLr0zKIfU6545acaEO9RxOMfquU99PVRIPvlunGuqHkt4rCleTwAAAABIBi3geSbU6qsLkDXnxVuTccm2gI8+tIADAAAAiI8W8Dxz6R1TKG3WeLm9zjXWegwpTjQN2lhQvkTW1GRzsnUAAAAAoxEt4PlIFwp7wEzrFZL8GOu8oQu0qRwaPBaujK6LoN2mzm1Unk8S/GvWydYHp5h7jlPSuP4NOWjuAQAAALg+0QKej44NWmOQ9djn0ax47jiZ/oAK3D8plKXmZodve9z4WAvfWmDvbtmy75R095gVAAAAAGDQAo7s0dN2/bUK4bNcrfm6gNqhq3Li2Ngc3w4AAAAA8RDAAQAAAADIAbqgAwAAAACQAwTwEaRb+AEAAAAA1wcCOAAAAAAAOUAABwAAAAAgBwjgAAAAAADkAAEcAAAAAIAcIIADAAAAAJADBHAAAAAAAHKg4J4VK6+Z5RHVGzxvlsL0NF2dnQFzb+wZ6+fnbZo8tmSDPFwkEuhqltWdR836VDivEZRXjzTKK/1mNfJLzePydxuqzZ2wT3d+T37fau6MEmVrXpb6B8tH5bEDAAAgf9ACjtwqWSDLVfjW/JXzZZW9iBTN3fgb+btdHrcXX5a/3bhMyszzRlJZRYVZcmuTT0ZdgPXL7CXl6meP9H1mrwEAAADSQQBHbvUfk/0D9mKg67i8bi8iJX4pnWYWo5WXy5TFj0j9i4/LXLNqpJzf+7j84/rvmduT0tajVvackaD98ChSKVOs/P2+fHzaXgMAAACkgwCOHDsrr7Q/J7e3Ppdm93PIjKVyixUIfytNoYBr35p2/lb69HPKq+Uba/x6KU+YEHv2jMQONslzM6bLFP1zNB47AAAA8goBHIimAu7mFxukaVeDbFuTD525o9wcPxCeb22Sf97ZZi1Pqai0fuaFmjvlFvXj0z+/Y98fTcz17uvusu8DAAAAaaII2wga+0XYwgXXvAS6dsrqzrPmnpdpMn9qrWytnCt+8xqBYKv8suttkcqn5Xlfdoqw1W5skIbF5o70Scszu2V3Rrse++WbL74g1Wd3yD82i3yzrk6qF5eL9LRJ289flj/Jsth1rv0PWRBsRr387bPfkSmH1ev/LDrw+mXuxr+Xb6jXtkK80nf4t/Ln5ibpuFkXTauQtmceN/szx1neJm+uf1k6rGd7SLg/m33M4nrtIcxQx1kXeZzWtfjda/Kn1kR/M6mcn1v87YJ3UoANAAAAmUELOPKUHd6b5oTDt+b31cjzixrkh8VmxahkumPLnfLAs4/YQVsrr5Zb6h5XYTZyXXXdMnvZ8FXoxxIUBHNayKPpoLzrBbnXHWqVKYu/I/c++7I88A1dsbxbekPhNCAft+uB2xVSOsNeE0uF9B+r8C0qpMcJ35p9zO7Xjq+sRl+D2OO0rsWGF+Rv43WtT/n8jITbPS53WgXYRmPxOAAAAOQbAjiyKDze232r7xq6DNeqeU7LeVAOnNgZ3vZIsxwY8EWE8kw72NxuFwxTuve9meHWb8UZU7xYBe7DO+xx3E63cbVOtyS710VyCrDFC7MqEH/bnvorsrv3MhX2dVBWen4rbz7jHjfeJn1SLrfoVv+oImnnu7vVf9Vjd8YJvTUPSbXKp337XovfQq72fat+7cPvJXiOocJ3/QZ1DdRin3MdrNuT0rTPXKMH/16+GfOFQHrnN/R26j2yvu8YjcXjAAAAkG8I4Mg/JSvkhz69YHcxf/RcuJv68f6j8mj7TnnVVFLPitOH5KUnGqV+faNs2puFsltOC7Uuovazd+xx3J+dsYunudcZkWOPnYrc0YHQL2U19fKA1WVc3VWv856rxXbuxkesMdiiu4k/0SQdrvB+vvXl0LjxmHHlre/Jp+qH93hyFV71PN9qX3/Ym6BbuPnCYegx1Ob1FN3d+58jrkNAzu99WYVw/c1I7BcC6Z5fMttZ7wsF2AAAAJABBHDkn+IyFSeV4DsZH9+dD5z5sT/9XVM41JlQ7l7nPK+v2xVuTTEzKf+O1EfMAf6C1G/4jmmtbZM3VZgMvfaMevmG1fprh/tEYoukdUmfzrzTpsfMLV62ps4urOY+Dy+hImaJ6x04r9e378m4Y63Pv/e+FYgjvhBI9/yS3C65Lw8AAACAoRHAkXfmF9lRL3DpnPVzrPEawz3XGp8cuc5+XuTYYyeUx1Lb6iJlO5+Uf3wismBa2Z132CGy/VDcoGy/rte48oD06g4I5XfIbHe3bxVev/WgOr7DO4YsTGaf29BjqJ3r8ul7qRUmTPf8kt9OB/DUjgkAAADwQgAHcsqMh44Yw+01rts8L6qruR1Sxeqi7YxVtm+Pyz+r4O1VIXzoYOuX2VahMe9x5R1/1t23y2XKzfZ9a5x5EoXXbObchhxDPdTYdsNjSrB0zy/57SjABgAAgMwggCNv+YunmqUxxCnAFlGQzIzrdq9znhcx9tgJqZkOhPHGlRtmfPqUCjPuOqnCaw7z2hkZQx0uMJdai/QQ5xdXutsBAAAA3gjgyDvHgx+JFa9882WVtSZKyVS5JYtV0GXGUtn8YoM07WqQbWuiRz4Pk0cLrjOuO2Kd1/OGFQjdLdhuev5rU4gsXkg+fUg+7VEBfMlS0aPzrRA8VOE1h9e5eTJd3aVabq2xVsQoW/P3ngXmbOme3zCuCwAAAJAiAjjyT/8x2W9VOZ8rzy9ZK6tKrLWW+VPXSsuiOrnb3M+G2roldtBTKh68V9bFnQM7dV5jipNdFyrAlmIgDHbbc6rdsuFxmes6F6dq+r1Wl/hEIdkZBz5dZpsQPGThtSg6vIf2PUOF25rYac3sru76OF+WB9yPz1gm39z4stTrMefSI20/j9x3uuc3/OsCAAAApIYAjjx0Vl7paLVbwYtUCF/0tHxQY9+a5swV/0CHHBilfYKdcceJi615jz12QnlspfLEzu9ttqYS063L9z4brpxuVU3X47itqb0SFz+zw2q1VCdZeC3ETGOmq7aH9v2sCrff1q3pUVpfljcP64VyFYpfCB3n3z37iFQvNuH7mcflT1FjxNM9v0xcFwAAACAVBHDkp/63ZfWRZnk16E7aQTnQ1Sz17Xtkx6XsJfCDze3SZjeOSve+N2V3oqJgKfEqNOZVpMy7q7lXeE/OO/L7Z3ZI22FzUlqPCpY7n5SmJ142+0hc/MyZ/kt/KTB04TU3ve/fWl3YHVa19t95Vx7v+Nn3pEnPve16vnWs+3ZI0/rY8G1L9/yGf10AAACAVBTcs2LlNbM8onqDsR/Hq6r80tk5dlufxvr5YQyZUS9/++x3RPY9Kf+czNhvAAAAADFoAQeQ2Ixl8oAK31OSLbwGAAAAwBMBHECkGeECaLog2d8+q6uBxxY/AwAAAJAauqCPILqgI//45ZsvvhCqAu/4dOf3ki+8BgAAAMATLeAA4tIF0958hvANAAAAZAIt4COIFnAAAAAAuH7QAg4AAAAAQA4QwAEAAAAAyAECOAAAAAAAOUAABwAAAAAgBwjgAAAAAADkAAEcAAAAAIAcIIADAAAAAJADBHAAAAAAAHKg4J4VK6+Z5RHVGzxvlsKqqvzS2Rkw98aesX5+wOhTIJU/GC/TS0UG3h2UD97Ji38eAYwUX4lse6hYKszdkAuXZMuefhk9/wcvlHVrp8jqyYPS8lqv7A6a1VmT6/0BwOhBCzgwihXWvSw37XhcJpr7Y4cOwoWy9AfjpNisyYkbC6RUhW+t6K5xUmYvXnfmVzXIBzVPe95aljTI9qnTZL55LpKhw8hUafqRuq0tEb9ZK7Mn2evUbfNss86Df3aJbF5bGnpu049KZfOdE8Kv4zbka06Qzc7r3DfBrHM4x1kq63xmFZB3zO+p+28pK4b3dwsA8RDAgVHLLxMXlYt8fkaumDUYpi+uSW+vvTjw7lWJ7ZcDf5FP7p6zQZqWrCCEp+PCFY9W00H5zPzeRau9r1S2Li+W6snjzRptvFQvmiRb106SWrPGS/XM6ICtzJ4g1WYRSQj2y6ZfnJP60O2itJmHcB1J8e8WABIhgAOjVqWMv0n9IIBn0DXp+tUVOfQPV+h+rgS6dsrtrc+5bjul/kSr/UG0qEa2Vk2znofs8N9ZKg1+HbwHpe1In2xxQuBrKgReUKsnT5CGRK2A/gkxAb3WK5QDAICcIYADo9Vdd1pdz79qf8e+P8YUma7gyCdn5fi5t2X1ETuE+8sWjP5W8BlLZfOLDdK0q0G2rcnWoIMrckYH5mi9g9JtFmNNkDWL7Fbvtv298tJ7rha44GV5aY9piZ1cLGs8usG2BS6r/06QuyIeU/d1WleP0YqL0Wu83DzZLGZVOn+3ADA0irCNoOujCJtfvv7TF6Tk8x3y+Y53pPCueim5/zsyUbfcKlc+b5P+f3pZvuqy70fTY5x93xLpf+Fx+Yt+TuUyueG/16nty+0nqO2/9Nq+0i8Tv/33UnJbuRSaVfq5/W+8Jn951+uaD+84tcK7Hpcb7q+WQrONSI989Ydm6W9+J24LdWrnpx77qeuxhNR2j6jtrGVzbje513morBffk9+Rwg/tazB8BVK2bJxMn13gCtPXZODkVfn4367JpS/MKseC8XL7UvdzEzg5KIeaI//pKl42Xm67S+TMrwelS7/2jQVS+dfjpHSWek37KWrfg/Kx2u6SdS9ccM1L/CJsZju5Kh/+6qp6LXWedeo8I/ajzrFZP+atWJ3r7CHOdbhF4FbNe1qe93XIU60H5dZ535WHfXpQb1AOnGiUR89Nk8di1lmbWfQY8KZKn9UCvrrzrFnrtlC219TJ3aJff4+8btZq9rYirx5plFf61YqShfKY+r1ervbltNQGgs2y5aOjctzcd8yfukIeqayRu50LqY4tEHzH87ki6hyWbJCHpVXq29+29vPI3GVqWzN4eUCdV9e/qPPyOv6w2o0N0rDY3JE+aXlmt+w+be5mUO19U6VBXYDuI32ySYVpS6jA12Vp/MVFOWivtelxpssnJC725TwncFHq/1UH7vC67iOXpGdRsVR7PNamHpPoxyy5LJxl9qX+SvT5iW+CrPmbknBX+wuD0nb4orz0cYL+PWqbddUlcod/fKhIWveFy/L+4UuyO2o75/q37T+nXtOsjOGcv8f7EaLH0E+S6hSKsOkx/GsW62EEZoWoABfol+3q2ifcPoXzCytU+yuWRxdPkAqzv+7AJWluU9e4Wl+DTL+3w9hfKuenfne3ufaRUMzvtZHG9Uz57xYAkkALOLKrcqlMUIH0ioorX1fhz7c+HGq1wpuq5YYnX5avqw/sXgrLddjslisqgFoFx558JDKA6teKCsU6CPuefEFucIdvTe2rZP0L4qtzYoDLsI5TB+PfqG3c4Vsrl4nfekR8P62PPA6XlM6vcrp6/WTCtxLRLT0gXx3pUT8rpDDOdbZC+n9X4VsH9wyF7zkqpM66KzpkqvuzVFD+/niZs6zArAvLVKu3DuNL1T7coVjTy/FCccpKC6RYhXzrPKP3M2uc3BangFxZnTr/BxKH78wpkx/qkGoFbc0nd1euUOE7at2ctbLK3Mskq5jbojprX+6/Or0cGah1mH5amua4w7emtvPVSVNNgzxWYlZFKyqTR+ap0K/2Ewrfmhmr/sG8hWbFyOpUgVLr6XN90A9eEf2XqcNmp7UizD/F/lejO5AgpDktcR5dzfW/Zp/p1jvXY/ZrDspnffpfpzyhAvcaPc79IRVq3ePc1XL18ikeheI0FZTVNk1qm9WuMKVVTJ4gq9V20cWxDrZdsq5V9eIEXfZVQLtDBzx1zTMTquwiXvYYfrPKoo7ZP0m2xi12l/r52ewvELYujwyqFf5iaXioVOqSCa8pSXd/6Z1fUuHbU7rXM/W/WwBIxnj/zFt+apZH1MBA7MfiG26YLF9+6dX/Z2wY6+dnmf8tmbSoQsbdNFf+y01/ka92vShf/r/+Sf5j32vS/+EXUjjnDin8+n+V/3LDF9L/55iPoDLx238j/6X/z9I/8C3x/bc5cuXDHdL3T/8P+Y/fqO33tcng+ePylbuPmArfU1UQ1t8sWc/9qXqu3pd67uWvTZbiWepYZi2Qgg//Vf6Pi/YmlrSPU4XvHSo0f123dv9/5Ms9zrHZ2xWo7f6Les1x51+Ty2fMJiEpnt/F/yUD1rnomzqmb6tj+vy3Etz8rDlH1+3/+7/kqr2V5eoNC+Xri+bIuEttMvCRx+/cXf9dpvyfK+TKH/5R/sPr8RTpAOyfrQJ27zU5uXdQTrx5VT77N327Jr0XCmSSr0C+ph773H0pz10zz7GfV/zX46So96p8+P8clFOh9eb2kdnG5WszxslNNxfIlZIC8d/m7Ptq5L7Vuv/UrbLGxcOu1zS33vEF9uuciTq+kAK5YfE4mVRUIKW3q2MsuiZnfn9VjrWY7dX53aTPXT3+tQtXJehqWdat/Lfdpb94iN5GZJLa5mtq/cl/UNdLrfPed/Lmlt0tK4qLZfLXgvLqkZdl/ScnZOLUallcVCWLi6PWfa1Mxn91UN4w/wxPveEO+W83FMuFi+3S9OVf7JVuU++Rrb4y9Q93h/yi51REsTp7W59c/No0+cm0Sus5T/37/5T/6ye/l593HVS3E3Jg4FM5/59mA2V+1ffl/+bTX1fo1vh/ltUfmef29snEG+ap4yuWxdOmyZmuf5cT9ibK12VpuX3sfnWegWCr/MOJ/7faj72PMwV+WaHOQYrnyQLXuUU7fXa8zJxXLhX/VYXdfa/Ly/+Wsa9oIlwo/pr8t5mF0hO4JP8WKtxUIDNuLZJ58p/y1r//p7j/8m77q69bYfDE8b+4nh9lYJzcVq3Cj3qd7sCA/K8BtU6FSL2f/zh7SV678F9k5bSvybiLep+Fcn9Nscz76ivZdUz9yS/4mvzXC5flf//EDhi2cbLwr9TxTLwmHcfN62WNs69CFYLGWa2m/9sfL8jL/79L8r+3/R/yxfj/IndMU/+Sq4A00zp+s5k2++vy1OKvWa2X/9u+/1Db/EVtE7ldhboGX7RdllBnhoH/lAFfiXrsazIl+vWM2mWTZYVu/f/jXxKce6HU6Gv+Vex7Fs1/52T5O7/+v9GgtO3/Uja9aY4zMChfq5igzn2czFsQdZxaOuen1N7nk/+LVZYhcn9/VvubUlEkc60Am7n3Nu39pXN+vep31XqOvg3KTP0e6F4Iv74gvwytN7eI32klzeuppfp3CwDJoAUcWVVYbr5r1kHxkcfly3cD4ZbZrnfky3/6rX3/punqY000U2RM7pAb1leoUPykBHe8Y7UW2wLyVUR3chWGVfjWvtr1Pfu51j1N7bf5ZQn+QX9vXS4TqiPbQNI9zomPqPCtW41fUNvorubu1ni13V/MdoXlXm0uqZ6fi24N1z+TLcD27ntW1/PCcq8mcHPd1Ll/2ZxMh8rkDXx8Vc5HdDW/JpeODcoHv8pekTPd5Vx33z70q0G1b/c+PLq9D5cO+Sowdx0L70ef38mT9nKRL7KVv9i0dvX+Pnqbq/LB7/V9FeoX2OsyJdD1L3ZXcDkrfzhv9wN1r/skpbw5TeZPXSstc+Za9wLnj3l0Dbfd7ZtrF3Fr3yOv97u7gZ+V464vQaRkhWyt1BdGfymgu8K7ntt/VF5p3ymvWh/e58oP4xR9s7rKf/S22o9Zofbxemej1HfZ53u3L0Er+OlD8tIT6rnrG2XT3mzXvY9TNTmmwnKhTLfCy1BVltXjcT79V0weL4H3+q2x3lY1dNO623Y4/+autrr3/mu/HAx1U74iB9/rlS1H7CAVU83944uy5bVzsmnPRbWN+19Ae7tG6wTVNYxqXQ61gnsWojPj41VI+1MmumersP+oNYbf7oId0ZU+eFl27+mTFuu9myB1d0b93y+d81P7szt3xe4vYNUMcPaXIcPZX5rvX9qGvb9k/24BIDkEcGSV3cW6R/r/qUn9r85DV4IA6YTMm8rlyi47FCdSWFdnFSW78ocn1XPtddGutL1v7S86iKZ3nMtkwm36p+6e/hu5aYfHTY+ptp7rIcXzi1Bhb5t8AbYuGfxc/fD4osO5bl+9Eefc03Cp45rozKTn0tZdzYtvtNfnxMnhjZ1O3jU58zsV8s09t0vB9PcfHdqH6/RA7Bho97qTl+KnDX/lhqh5wDdIkwrf+nO3HsftPT7cGOpxR3GZ3SU4+I75UiDaWXmlq8Na8i76FpT9Qe/9HA9+ZH9ALp468sXiVAio/0X0WNgrKoid8x6vmhGXxfpnZXKh1N6qW8rVfT3+uTSyG+7IGpT3P/H+lyfwyWW7i706fut3xCXgXEefOjc9T/p9pbLNzJWux+zqbt43Rw/zUMHwfR0K/SWxXb/N9GwJu/ynwrnGgf44463Ve3/Yft8r/LFzuqd8fkPuL8OGub+03r9hSHt/I/J3C2CsI4Aji/xmTLQ9xjllJmQmCtRuToi+3Jbqx6c0j9NUIU9biufnNnGJ/qjYI4NJl2INyBUrgN8hE93fPVTWyw3fUtftwx0pH0NCX1yVD359VXp7C6T0Lj3mu1CW/kTdfmCP/c5mIB/IxYfPNDlZt/SB8VLmvgZ6LPkDdvAeGEZ4z4XAQIe8ekK3OB81a7wFLrn73sc3v8iuPJ7w+ZfO26FIPXeWtSJF6W43Ypzqy0OFEPW41VIe38FTKiRMLpYG3RqbsbHNOTZ5vFSZRYcubLZ57VRpemiKNOgx1npsr3sMuScn9I6XO251fxVZKOsW61bxy9LsFNoaptAYfjOG2JMzhj8D55fU/jJouPtL7/1LX673BwCJEMCRRaaL9Yd292dPCbpSOyEzuUCdZIh2Qm+P+0npHafTbV13d//8kcS3oEfX7tTOzy29Lwy+atedUctlfKjpK9OF16KoEH5Cz6n960E5+a49/nqgNBzIb69TQdw89boR6p5eILOcLyX07fvjxcpZJwfls2N6IT/EzgP+nKxu3yOvDFFZHMPnFH8qN0HHk6/QFFNTgT3eF08fh6cca9NhfCyYPSlc2OyCOr8jF6XxtT7Zom56nnS7S3EcH1+yukZXLCoOF67LePG1YRrO+Y0GuT6/sX49AYw6BHBkj2khjgy7kSZ+2+6iHduVepit555U4Lxfh159TK7/4w7rOHUQj+48mIzhnF8SXxh46ba/PAgd710PSYl6nSt/eC2110nVF9fk/DuDKowPygf/YAfy3l6xqqHP9qiEHkFXGjeLY4fdwh1ZA+ma9L47KB+Gpki7/viLp5olD0439YHzYobXJyfd7fJAwFRd9uqe7PBb3cqVhMHxsrx7ZFC6L1yyu5+PJk4354hq0xNks556TY893q8C1J6L8tJ76vyDVyQQMb43nivyp4D+ciM8R7p9HdXrtWX+C4qEraxZOL9ct+qmvr/hvn8uat/RPQdiZXB/AJAhBHBkjdNCHBF23fS82dYY6ja5HNP92YTMZIuMOV2spVom3GWtiFFY9/dW4NTFxvpd+0v3OK/02P2/CxcttVvHPRTepYK2WY6U6vm5OK3xqeo6JJfVNbKP13wZkYXCa1rxggTBWQXyE4fsEOqeNSqeolyOH8+2BXrKMj1X+RX7y4jQbVBOvHN9hu/QOG3fsjhTjU2TxyoTF327xfOXbejtLDOWyuYXG6RpV4NsW2N3h88LTsv15GJZ4zlF0gRZYxX5GrplWxea2rSnP2+7n3t3s3e6hYv3uGxdLM1z7uZCmW6W4gkVp7OmJCuUb/rVddSvl8rwlSHCX2j8utd4c0tmzy+8P68p6RTf0MMVUjHs/Q3j/QtLoVBbRvYHAJlBAEfW2GOyRSau/4346pap/805/DLxkZflplDF8pdjW2ATdE2Px+5irff3stxglbM1KpfZc3vrsc4SW2gt7eM0lcXlpu9Yc327x1YXOvtc/4KUeH0hkMb5xbitTr7uOk97n+o4zP1Yzjjw6TLRfBmRycJrITeOk9kPjJfbfjLe7mZ+Y1Ql8IjxztYPD9ek13TVnv7tcTHjpctUwB+N7CroBVI0d3Qef1b0vy2/tH4PfPLwogbZPtVV6bxkoTym5zG35gbvkF96FnXT832r7aoWhgutJbWdrbZuiVTb/wRIxYP3yroZ9vLIuyx7nSrgy0tl852uQmS+CbJ57SSraJhcuCR7R1vLdgQ937c+P1dLvzo/Pb/0aivAxRmXPblYHnVvo/5F9c+eJNv0dq5//r2Zazt5gnxTvYbufp588TWn8ryuXh55zLXuMBjsF/u7zfGy+iF1frNdX5tm4/ycAnPquBrU74b7WKzt9Dzr5n5GDHd/w3z/7Jql6tr+TUnkdbeKrLmutWNY+wOAzCq4Z8XKvKj40xuMrSVcVeWXzs7k/pc4Go3t8/PL13+qwqcKvFek3HS3jqULkHmNj9atzjr4xn08jomP/Ma0VntR4fuFx+UvEV2+M3Oc8eh5vfX46piPV2men80cc5xj1WPS4xVUK6xzvohQ1LF9no2x30rxgnFy89JxUpqogJSe4/tXV+O3+qogf/v3x4mVoWLY03+5/9XQc4/rObb1FGTDqYI+9OsUSOUPxsv00mty5teD0uUxtVnc10h4TraB3mvSe+hqxDRl6Vg172l5Xn0wPXDiOXnU1DebX9UgTZW+pNdZ03slU8ncJb1tp7kCsxd7irLIKunhbQID6q/Cc1uv7SLVbmyQhsXmjvRJyzO7ZXf0ZMAjqPa+UmnQLbReLlyWRj21krlrUaGiSXe5DVyMX6U57nMKXcEwEbXfX0TtN2XhfXXrMdme+xy0priKrrLtv7NUtprW/xj6mqh/UhsWTZC2/efkpbhfTkyQzT9yQmJq5xN3/ylfzwyfn69EBd9iu1t7NLVd24UJUu333mda0txfRt6/RPuOej8z8/sCAJlDCziyxOli3SzBnz4pX36oA27YlQ9/K1++4F2cTBuyW3gcX+1Qr7mrzXRHNz7vka/+sMOa3zsyfGvDO05592X5/IUd8pXah1toO6/wraR7fraA/EUda786Vrcrn+v5yOOHb82Zhk13p89K4TVDz2utC7B9+HtdCT0ySOqAeeb3g4nDt2ZVUtfjxb22v+o5/Vfe+0Id+8nEwbqotECmPzBe5mR4PvD8dlZeaX9O6k+0yoGIwfFB0dOd1bcmCtFB2d+ht+2wgrgjEGyVp4YI39rB5nZpM39K3fvezKvwrR38117Zsv+yFVLDBqVbhb0t0eF7VBqU9/94LuYcuwOXpDFOUAy853FNVJByxvge7DPrEnJaUZUUi69Z+z9iumA79P5PRVcEt6er2rL/kgqjZpXFvH8x01vZ0j6/YL9seu2itFhj3B2DVtEx/buyN9MV0tPcX0beP7Pvtqh9dFuvcyni/czM7wsAZA4t4CNoTJ9fZb34nvyOSFotvDk0Wo4zU663880rpuVcErX8F0hZnT1OfLgt+WOf0wI+dCv3WBFqyUvUuj1qOK3DGWyRTVHtfXoO6JHbPwDg+kQLOLKisPoO9fEq3Rbe3Bktx5kRlcvkBhW+C7NUeA1DuLHA6pI/8HGiYmvqsTyfBxwjxykeJv5Jsu0+93hWpMxXInX6Al5IsfgaAADDRABHVtiFzXpkMKKPXv4ZLceZlkpXuZm7dMv3IzJRj4OPKkKH3Cq6a5zM8agSr4vTVdbZY8d1ED9D6zdiXJaXdFdatVShQvjWH02VJutWGqfSNrz4Z4fHD7cd7k+y+BoAAJlBAEcWZGMO72wYLceZDr98/b+/IDft+I11860385jv8hoHj5z44qqcMZXdS60q8YWy1HW77fvjZfosFb71GPdfRxaYA0I+vugx7hZD0kW7zBcWW5fb4VuPw6boFgAg1wjgyIJhzHGdU6PlOIcvmQJtyL7zzeHCdBG1xpRwcTrvyupASPCy7P7XXqn/xTlzYwzzkErHhytmXxiUtv19smnUj6MHAIxGFGEbQWP9/AAAAAAAYbSAAwAAAACQAwRwAAAAAABygAA+guh+DgAAAADXDwI4AAAAAAA5QAAHAAAAACAHCOAAAAAAAOQAARwAAAAAgBwggAMAAAAAkAMF96xYec0sj6je4HmzFFZV5R/zlcJrNzZIw2JzR/qku+eCNP/8DTl42qwCAAAAAIwJtIDnlSlSUT5TGp69X2rNGgAAAADA2EALeD6ZMUfW/XilrC7vk5ZndstuWsEBAAAAYMygBTyfnD4hf2rvM3cAAAAAAGMJATzPBLovmCUAAAAAwFhCAM8z/orJZgkAAAAAMJYQwPPSBTnD+G8AAAAAGFMI4AAAAAAA5AABPC/NlIYXl0rtDHMXAAAAADDqjffPvOWnZnlEDQxcMkthN9wwWb788voqSnbh2Fn5YkaFTJ99i6xYfof8t7o75K+/dkr+cCz2+gAAAAAARg9awPNUhfkJAAAAABgbCOD5puYOaVg8RaTnlDQ+s0fq1zfKpr3nzYMAAAAAgNGKAJ5n7GnI+qTl52/IwdMEbwAAAAAYKwjgeYlpyAAAAABgrCGA56XJMp0K6AAAAAAwphDAAQAAAADIAQJ4ngl0X1/TrgEAAADA9YIAnmfsImwAAAAAgLGGAJ5PZsyRNQ9OMXcAAAAAAGNJwT0rVl4zyyOqNxg75VZVlV86OwPm3thUu7FBGhabO46edtnyxCEZ22cOAAAAANcXWsDzSp90H26Xxp8TvgEAAABgrKEFHAAAAACAHKAFHAAAAACAHCCAAwAAAACQAwRwAAAAAABygAAOAAAAAEAOEMABAAAAAMgBAjgAAAAAADlAAAcAAAAAIAcI4AAAAAAA5AABHAAAAACAHCCAAwAAAACQAwRwAAAAAABygAAOAAAAAEAOEMABAAAAAMgBAjgAAAAAADlAAAcAAAAAIAcI4AAAAAAA5AABHAAAAACAHCCAAwAAAACQAwRwAAAAAABygAAOAAAAAEAOEMABAAAAAMgBAjgAAAAAADlAAAcAAAAAIAcI4AAAAAAA5AABHAAAAACAHCCAAwAAAACQAwRwAAAAAABygAAOAAAAAEAOEMABAAAAAMgBAjgAAAAAADlAAAcAAAAAIAcI4AAAAAAA5AABHAAAAACAHCCAAwAAAACQAwRwAAAAAABygAAOAAAAAEAOEMABAAAAAMgBAjgAAAAAADlAAAcAAAAAIAcI4AAAAAAA5EDBPStWXjPLI6o3eN4shVVV+aWzM2DuAekok9o1d0jdkplSUW5WySlpXP+GHDT3AAAAACAXCOAjrKyuUGbNMnciXJOBXpEzv7sq57/IxltUIJU/GC/T5ap8+KurcsmsHVq6242M2o0N0rDY3AkhgAMAAADIPbqg560CKSotkFnfHy+3Lysw65CaMpk+zV5q27lH6tc3mhvhGwAAAEDuEcDzRO/vr8ihf3Ddfj0oJ9+1W76L7honlTdai0hHT7vsbY3tYQEAAAAAuUQAz1dfXJPz71yVM73mfhYUlZqFFKW7HQAAAABczxgDPsKcMeC6BfzEMbMyxIy3Lr0mZ349KF1fmNU3jpPbvz9OinrjjcOOs92C8XL7Ut213dxP5OSgHGo2vxrpbudSvGCc3Lx0nJSGXuOaDJy8Kh+r58Y9/tA48wJ1ncbJ9FnqGMwz7G2HHoNujQGf1i5bnjgklPMDAAAAMJLSagEvKSmR2xYujHvTj2OYbjShUwVWHTZDIXqYct/qrcN0odz2gDt8aypMzxovt/1kfPzu9aUFUqyuwxwVxme5wrdWNGuc3PaDcVJs7idUPkWqzCIAAAAAjJS0W8B10F648K/MvbCjR/9dPjx61NxLHlXQPfRekzOHVPg+FvUWpdsCHkEFWxV+S+O+RjypbVe8TIXsu3QRuWvS+/urcsI5FxWsK7+tj1HfuSYn/2FQwr8BzvGbu+rxM2pb5zoUL1Cv+YBdmM6750CYXQWdqucAAAAARl7aY8B1yNZh2y3d8I04Sgtk+gPjZM6CUVoF/cZxMtuEb/1FQCh8a19ck65fDZox7uo841V677XDuftLiEvHBuXkSXu5yBfv2pSJf839UqenIOvpk057JQAAAACMmGEVYXOHcML38MRUQVeh88PfX5UBFU5LHxilU5GVmW7jcbvQqxB+yA7WRbMLPLqTq+D+O3fLeNiloCvMu81YKtt2NUjTrrWy9cGZUtFzSlp+zvhvAAAAACNv2FXQdeh+649vE74z7ppcOnZVPvi1DuEqoN41TsrsB0aNYp/9cyBo//R0/pp1ftZ4b2tFZnWr2xl7EQAAAABGVEamIfv88wxVCEOsL65Jr5mKrIi5wId2+pBsWt8o9ev3SOO+PqkonykNP14qfvMwAAAAAIyUjARwjGLptjynsF2RaQn35HRT7/Wajmw4zsvBvbul8bBapAo6AAAAgDxAAM93NxaEpu8acDoafJG423bxMnv6smSl27I+1HaXOsxxzhoXZ6qxAqlcao9tH/g40wEcAAAAAPILATxvqXC9YLw93Zi6N/Du1YhiZAOmevisOlcI11N71TnTfg3lmvRalcQLZPq3x0mZOyDrOcjjVl5PYbsvrsoZ57nfHx9ZzV0fa2iqsWty5p04RdUAAAAAYIxIex7wTGMe8AS85txW4XypmQs72sC7g3LGN169bqJ5wBVnPnFzN1L03NwuKW0XPad3NK9jdLaJf/zO/OL6XD+IG97LZN2La2W1tMuWJ6iEDgAAAGBk0QKexwZ6VQD9/aAcig7f2jE9Tdk10xJu6Dmzf33FCqRxp+ly+0JXWR+UXrWdm73fyBb3CCltp+f7vmJNqeYUk7OpYz+pzkHP8U0NPwAAAADXAVrAMYbRAg4AAAAgf9ACjrGvfImsqRlts6gDAAAAGGtoAceY5l+zTrY+OMXcc5ySxvVvyEFzDwAAAABygRZwjGmBvbtly75T0t1jVgAAAADACKEFHAAAAACAHKAFHAAAAACAHCCAAwAAAACQAwTwEaS72AMAAAAArg8EcAAAAAAAcoAADgAAAABADhDAAQAAAADIAQI4AAAAAAA5QAAHAAAAACAHCOAAAAAAAOQAARw5Nk0eW/K0fFDztLRULTTrUuW8RoM8VmJWAQAAAECeI4Ajt0oWyPIie9FfOV9W2YtIyTJ5YNdv5O88bn/74uPyzZrszS9ftuZltZ/HZa65n6x0twMAAADGEgI4cqv/mOwfsBcDXcfldXsRqZgxXaaYxWhTyqulesML8rdrshHC/TJ7SblIzxkJmjXJSXc7AAAAYGwhgCPHzsor7c/J7a3PyerOo2YdUnKzCeCHd8g/rv+e6/akvHm4x3rKlAcfykJrc6UK+OrH2TNy3l6RpHS3AwAAAMYWAjgQbcZS2fxigzTtapBta8rMyvxRVlFh/fz0z+9YP8MC0vGz/yFtVgavkNIZ1srMqblTblE/Yvc7hHS3y7U8f98BAAAw+hXcs2LlNbM8onqDsW1jVVV+6ewMmHtjz1g/P7tY2gZ52Iz5jhbo2imrO8+ae16myfyptbK1cq74zWsEgq3yy663RSqflud9QXn1SKO80m8/lim1GxukYbG5I33S8sxu2X3a3M0Iv3zzxRek+uwO+cdmkW/W1Un1Yt1Fu03afv6y/EmWxa5z7X/uxt/IvYt7pO2ZxyPW28xrl7fJm+tflg6zVmbUy98++x2ZolvNf+YVhL22WyYPvFgnt5Tr5uuhZGI7lxl+mVv39/INdQ1C3e31tfjda/KnVq+/Gdc1tc5Pbb/mIfnGg9Wh7fvUuf9BPRavFT777zsAAACud7SAI0/Z4b1pTjh8a35fjTy/qEF+WGxWjEqmS7bcKQ88+4gdtLXyarml7nEVlCPXVdcts5cty+RWHRJ73pePPcL33DV/r0K0io/7XosMtabbel93l30/hjkm9zhtPdY8qRCtZGI7o6xGX4MX5F53+NYSjW+fsVQFfnN++suGXWp7V/jWpix+RL6VlbHxAAAAQHJoAR9BY78F3Nv8qgZpqvQlbAFfNU+3cOuloBw48S/y6Dn7efNLFsojc+vkbiuUZ6cF3OqK/OMlVpDt3rdHNu3N8MhlpzVaLx/eIU26VVaFzr/bUG09HLPO3WrtbNvTI5+e7bbXadMqTIuzWr/vf8jv90b+Xukq5PUPlsunO78nv281K92GbCHXldcfkVt6fitNTzSlMJY7xe1c1yGyxdqvzuEhdQ76MY/Wf7Ndn7ouoq7DlJ42efPnr0nHaX0d/DJ3ow70ajHu+SnZft8BAABw3aMFHPmnZIX80IRvHbCd8K0d7z8qj7bvlFdNJfWsOH1IXnqiUerXN2YnhDlF1HQodQLmZ2ekL3qdEdFq7WyrQuYti6vDNx2+dehUwTQ6fGu+Cjuc931m348xVAu5U3k91UJqKW2nwroJ3/qLgn+OuA4BOb/3ZWnapwe4q3O/M7Il2xkXb7W873tS/vGJl0341gLS0fxb+/omku33HQAAANc9AjjyT3GZWPEq+E7mW7fzQKiI2u9cLcImALvXOc/r6w4H6tC6fTvkzZ3hW9u+NhUwq+XeZ38jf7vR3WVd80vpNPXDs9u6be43TKuza18RnONLtZBaCtuVramzirX1qQDt2UqvnH/vfStIT6motFcY9hcMOrg/Kf/s8QWEI34XfAAAACD7CODIO/OL7ArUgUvnrJ9jjVdrtB2AI9fZz2uTT1xh1Nn20/fekY7W8O1Pe1+Wf37iSasCuh7r/ECN/XyLGR8dvxXaBPQELeRex5eMVLYLn1v8AO3NOX59rby3LbvzDuuLgLhfMAAAAAA5QAAHcsoUUZNu6Q21RjsB0r3OKbbmLlLmta1bQP70uzZraUqFq4v2UN3LQwXY4rWQex1fMlLZLsnnep6LRwG5KF5fegAAAAC5RgBH3vIXTzVLY4gzJvrwe64q5SZAutd5jZ323HZoXl3Z3crMPN3xW8g9ji8p6W4Xj1+++W2PrvJDHn+6XyAAAAAAmUUAR945HvxIrHjlmy+rrDVRSqbKLXHmFs8IXQ37xQZp2tUg29bY3eEzxqsF1wTIiHVezxuyJdsJqJHduBO1/lrV0Z2q4/Fe1wn+qUppu4D0WrX2quVWd/d5lzIzxZouVPeeq1t+aEx93HHmQ7eQ2+aE3/eNc8w6AAAAIHMI4Mg//cdkv1XlfK48v2StrCqx1lrmT10rLYvq5G5zPxtq6+ypqLSKB++VdTPs5UxIWFgtjXU2v5TV1MsDL75gAqpXV/Jyaz7x0NcJM5ap5//GnprssK4s7vW6URbXyTdrwl3by9RrfHNjvXqXhpDkdh1/trvP37LhZXnA9Xx9rN/caE+jpr9IaPt55HRmQ3Yvd77gaD8Up4Xc5l9THX7fF1dn9H0HAAAANAI48tBZeaWj1W4FL1IhfNHT8kGNfWuaM1f8Ax1yIHFTZt7yCov2OnexNb/MXhK9znmeDqi/kb/b5b69IPUbvmMXWtNTkUXNt+0EW1n8iNQ72zz7iHq+nk/7e/KeNZ14ggB7+pB8amV0FeI3vBDab716jerF34nbYp3ydq0vy5uH9UK5Osfw8/WxVi+2r1vM/N9JdC+P/8VFIlPkjjsz3PsBAAAA1z0COPJT/9uy+kizvBp0J+2gHOhqlvr2PbLjUvYS+MHmdquauNa9703ZnbFxw15h0ayL6B7t1WXa2daLCs8qeLftNPNfm7UhVrA1J2TpkU/37ZCm9XaYtYN9ovHRAfmTrrAe8Roq0Frzjn8v7pRh6WzX8bPvSdPONvUcs0LriTzeSEN3Lx+yhdwI7FXXMPJQAQAAgIwquGfFymtmeUT1BmM7h1ZV+aWzM5VWq9FlrJ8fMCrV3C9NG2ZK9749smlvok7rAAAAQGpoAQcAF3/FZPXfPnn/PcI3AAAAMosADgCOGUvl0QeniBxuy+DQAwAAAMBGAAcAKRP/mvtl27NLpKLnlDT+7IRZDwAAAGQOARwApFTWPDhT5PBbsuWJN+SgWQsAAABkEkXYRhBF2AAAAADg+kELOAAAAAAAOUAABwAAAAAgBwjgAAAAAADkAAEcAAAAAIAcIIADAAAAAJADBHAAAAAAAHKAAA4AAAAAQA4QwAEAAAAAyAECOAAAAAAAOVBwz4qV18zyiOoNnjdLYVVVfunsDJh7Y89YP79I0+SxJRvkYWmV+va35bhZm39Gy3GmqlDWrZ0iqyerxQuXZMuefrF+82ZPkqblE/SStO0/Jy99bC2G1N43VRr85k6EQem+cEWa/3hJDgavmHWZZI5XXMealHS3y3fpvX8AAADIL7SAA9cbFZxjg+mgfNZrFpMyXiomT5CGh6bItjsLzTqkwu+bIOvuK5WmH02VpvvsEJ2UjLx/AAAAGAkEcABD0q2r9b9w3V7rk8Yjg9ZjFYsmyTqftYgk6F4FOnRvfWiSrPaPN2sBAABwPSCAI0emyi1FZjGvjcBxzlgqm19skKZdDbJtTZlZmWlX5MwFs+jWOyjdZjElwSty8L2L0uL1mhkxXm7W3a1Tlu52udPZdlEa95ub+RJjaBl+/wAAADAiGAM+gsb8GPCpa6Wlcq74kwm0wWa5/aOj5o5LyUJ5rHKZLPf5xBmKHBjokF927JHX+82KEDN+W+3vwInn5NFzZnWI83hQXj3SKK8422fiOIehdmODNCw2d6RPWp7ZLbtPm7sZ5Izn7j7SJ5veM+O2fSWy7aFiqZDL0viLi3LQXhvibOM9vtgZlzwoLa/1yu6gWe28pnuscoQ4282eJNsWT5CKZAJ04KLU/+tleznd7Vz8s0tkzeJiqQ69hgq2gX7Zrp4b9/hD48wL1XWaJHX+8eo62roDl9S2SYxBd8Zwxzkut3TePwAAAOQXWsCRVUmF2jjmVzXIB4vq5GFX+Nb8RXPl+UVPS0vVNLPGcVZeaW+WA2rp7jkN8liJvdYxv+q7VjgPdP1LOHwbwznO0aLzgt3a2tPnKpoWvCI9+qd6rNNakSSfHTp1UTAdVEMhepiSCtEe0t3ODtNTZetyd/jWVJj2T5KtPyqN371+8nip8k2QzSqMN7jCt1bhL5ata0sifm+HK6PvHwAAAEYELeAj6Pqqgr5QttfUyd0DSVYXn7pWPpgzVy0E5UDXO7Kj82hom/nqsa3qMb96LKIl2+Fs695XyQppWVQj/iH3n+JxZoLugv7jJVJdrsLsvj2yaW/s30JGmNbWyNbs6NbcSPGroCsq9LUcvii7P46qgp5uC3gEFWx/NEmq475GPKlt57+zVLYu0uOwB9V1uaiui9OyPEHW/Y39BYPEtC47x2/uqm1b1LbOdfCr67w12crkKbSAp/P+AQAAIL/QAo48NE0eq9ThW3clb5RHXeFbO35uj6w+0aGWfLLcF90KrqjHn9KhrqhGtlqt5Or15qrwrQN7Rx5OLXb6kLz0RKPUr2/MXvgOiVMt27Oy9hAmj5fVyyfJ5tmjtAq6r0QeNeFbfxEQCt9a8LLs3tNnxrhPkLp4ld4v6HDeG/ElRODji9JoLmb5lExfmwy+fwAAAMg5AjjyT8kCWa67hA+0yo6YcdzGueNWV3N/2QKZb6+J8PpHdld0f+V3Zfs8u+u5DvMxreXXExUM63VYjGhxvqKC5rkhW19jqqD/ok+27L8k3TJeqpeP0qnISk238bhd6NW1OWxflwr/BI/u5Cq4/9F73LXTXTyjhvH+AQAAID8QwJF/isvssFNUI001T8sHnrc6udt6cjxH5dEjrRIQn9zt81nF02KLsiF9VyTwcb9sek2HcD0VWbHU2g+MGn7TOt2dKCw7Vcb1eG9rBQAAAJA+AjjGrPm+eeFWy+Kpni3lGKbgZXnf6qZdKNOZCxwAAABIiACO3Coqk1lmMa5L5+3xrHrKr9bnEt/iFUqbulaaKu2W76e6gq7x4ElK5jiRfem2PKewXYV6blxON3WqjAMAACADCODIsTK5NWp6sBj9x2T/gPrpWxYzlVhyFsp2q4J6hzz10VF5vfNf5FX1ev7KDbJ9qv2MoSVxnJmiq6C/2CBNuxpk25oys3KU8E2QO6xq4FfkjDM22ZkaK04I9t/pVBdPRrot60NvF/jkst293F8SZ6qxQlm32K5m3h3wmg8cAAAASA0BHDlyVN60AppPHp67Qla5w23JNFk11d06fVZe6bKrnD+8qEG2Vy2U+RFhWD2/aq201KyVVWaN26p59vjwAyf2yOvWGvV6HXo8uJ4f3HubsFSOMzNq6+wpyLSKB++VdTPs5fxWaE23ZU03pu51H7nkKkY2KJ+Z6uEN97mKl/lUoL3PmfZrKJflXSvxjpfVf1Mite6ArOcgj1t5PYXtgv3S7Dz3odLIau56GrLQVGOXpfm9qKnWAAAAgDQwD/gIur7mAVecubjN3Ugd8lSrE5ht86sa7G7k8Qx0yKsdeyIrmztzgOvu6x8dNSttodfzeCxCisc5XLUbG6RhsbkjfdLyzG7ZfdrcHWEJ5wF3eM257cxv7aH7SJ80T56iXjfRPOCKM5+4uRspem5ul5S2i57TO5rXMTrbxD9+Z35xfa6bXOE9qeupJTMvOAAAAEYdWsCRO/1vy+ojzXJgIDKxBHSQPnEwJtQe72yU29XzXw0GI8Od2v5AV7PUt0eFbx2cXV3Po+nXs+YH99VJS6Lx4Cke53AdbG6XNqvPtgqn+97Mm/A9lO4Ll6Vlf5/UR4dv7eOLsmX/ZfUcc1/Tc2a/ds4KpElN0xXUVdYvSlvUc+39ulvco6S0nT2Nl55Src19rCp4d6sQvCVm2i8AAAAgfbSAj6DrrgUcAAAAAK5jtIADAAAAAJADBHAAAAAAAHKAAA4AAAAAQA4QwAEAAAAAyAECOAAAAAAAOUAABwAAAAAgBwjgAAAAAADkAAEcAAAAAIAcIIADAAAAAJADBHAAAAAAAHKAAA4AAAAAQA4QwAEAAAAAyAECOAAAAAAAOUAARx6aJo8teVo+qGmQx0rMqrQ5r/W0tFQtNOuA4SiUdWunStOPSmWdz6wCAAAAkkAAx9hWskCWF9mL/sr5sspezCPmC4IlK2S+WRPfQtle43yZMM2sizS/qiHh44jmhGl1W1sifrNWZk+y16nb5tlmXV4wx+s+1qSku12+G23vHwAAuN4RwDG29R+T/QP2YqDruLxuL456/sraPPwyYZS7cEUCZjFsUD7rNYvICb9vgqy7r9QO0PdNMGuTwPsHAABGAQI4xriz8kr7c3J763OyuvOoWTcWzJUf0sqNMaT2PrvFeutDk2S1f7xZCwAAMLYQwIERNVVuMV3kkxbskAPqx5hvBZ+xVDa/2CBNuxpk25oyszLTrsiZC2bRrXdQus1ifhkvN082iylJd7vc6Wy7KI37ze3IoFk7lNH2/gEAgOtdwT0rVl4zyyOqN3jeLIVVVfmlszO2U+FYMdbPz23+1BXySGWN3B0Km0EJBN+RLR8dleNmTZgeF71BHi4KyqtHGuUPslAembtMbWsqXg0E5UDXv8ij587a90Oc7czdKIGunbK6M3qbKCUL5bHKZbLc5wuNJw0MdMgvO/bI6/1mhadp6hxrZWtlmfid44x3jlPXSkvlXPU8cz+RYLPcrra36THgdXK3Wld/aZk0VfpizkmPAfdaHxLn/PZ3HZRXoq7nqnlPy/O+Dnmq9aDcOu+78rDaRp/TgRON6tqrax2zztosUtrXU6R2Y4M0LDZ3pE9antktu0+buxmkW14b1MF1H+mTTe9dsVf6SmTbQ8VSIZel8RcX5aC91tDjjqfI6smD0vJar/xJJsiavymR6smm1fbCoLQdvigvfWxey+G85oVLsmVPv0d36cjX3R00q2dPkm2LJ0hFMgE6cFHq//WyvZzudi7+2SWyZnGxOjezQlSwDfTLdvXcuMcvzvkVqms7Ser849V1tHUHLqltvc49ih7DvXxC3ONyS/39AwAAGDm0gCPL7CJjTXPc4VtTgcxXJ01DVDq/pVIFykUqdIZCraKW756zQT6Yl9mq5lYBM7UvHSqdsKj5i+bK84sSFDZTIXO7Cv5Nc3Sodh1ngnNMKnzHUzxVpPOdFFvBdWCOf34Pq+u5Xb1srDL5of5Swwramrr2lSvUa0Wtm7M25jjSvp451qkCs9bT5wrMwSvSo3+qxzqtFd5uri61ukyHwremlquXT0lt/PIQkgrRHtLdzilutnW5O3xrKkz7J8nWRBXg1flX+SbIZhXGG1zhW6vwF8vWDBeCG877BwAAkGsEcGTV/KrvmhZp3Uq60xqLbd2ONMurVnE0nzy8KDa82VSwU+EtEGyVp46Y7Vp3ylNdpmlQhdvI0Bge7+2+1TvPT2TqWqvl2DrOrmapd29/osNqsfNXftfjywIVvq0vCNTiQIe86j5H61j1tj65pdh+tuXcHtdzmq0gLQOtEfsM3UKt39GOyg7rvJIcCz611grCuvX5qSPRx2hfH68Qrd8Dv9UTwX6u9Z4V1ajXilqnjuNe93uR9vUMO9jcLm1WihLp3vdmVlq/tYA7uIUMymdeXZsjqKCtAqZu1W187ZzU/0Lf+sLdp1VQzUgF7o8vmtfWt4vSptfpVvTQOtfN3Vqc7naK/85JstoK3oPStr8v/LzXLkqLdV3Gy+qHJkmtXowxQRqsLyUGpcW17Zb9Zh+Ti2VNBiuTp//+AQAA5B4BHNlTskK2mhCmu5JHdBnvP6rCcji8xQuRVlfqj952dVc+K693NoZC9d2+TLSCT5PHKudaS1ZX6s7ILuPHVWBerUKjDqPLfZHHOb9qmdytF3SAbt8T1Y1bH6vaVgVez+7Zw3Q8lVZwdQ71KjCvVsf4en/0MTbKU9blLJNbPQJxoOtf5BXr+p+VP5y3r7t73SeXrFUu6V/PCKcPyUtPqPd6faNs2hs7RCWz4lTL9qysHWZ1e/7XfjloXxblihx8r1e2mBBePTNzreA54yuRRxfpFn27K3xEV/rgZdm9p8+E8AlSd2ehtTrGBd31u1d2u7YNfHxRGs3FLJ8SZ7u0pff+AQAA5BoBHNlTXGZ3NQ2+Y8JatLPySpcOYipEli3wmAc7KPuDHuOYlePBj+wP1sVTk5g/ewjOXOEqRO+IF5TPHbfDbsRxTpNvlZkvGDre9hjLbkQE3kxKrRX8uPMelEyTVVNXyPZ5DdKyxJ43/HmrO3FUS71xeiD2+N3rTl4KpU9b2tdzhFgtxa4x15YrKmjGtgxHGpT3P/FqfVVh85PLdhGwyYUZ7W6dE6Wm23igP+qaONS1OWxflwr/BI/zU8H9j97jrp3u4hmV9vsHAACQewRwZM38IrtydeBSgubfS+ftIK2eO8takaJ0t3NzvigoqpEmFUZ1II291dkt3RGcCubn5RPPLxiyL5VWcF0Ib/sSdS6LNsjzeky+HpsdMWY9Q9K+nmOQHg9tFkcLv2md7k4Ulp0q46Pw/AAAAEYSARwY1SJbwY8PxOmqrcdkO4XwBjqscdl6LHi9GQ9ud0EHAAAAkE0EcGSdX1ftjsdpLVXB8aS1IknpbufFaYXXU365ioV53tq9upp7j51OyTBa8kOt4HG7cy+U7XP0mOygXSSufY81LluPBT+eje7xw76eY4DTjTtbVbjTbXlOYbsK9dy4sn1+AAAAYxQBHFkTGqftWxan2nW4WFfg/DGPIOY9Jnno7VLUf0z262JwcY8znqPyptVy7JOH566IP5a5ZFoS45yHE+JNK3hRzf+/vfsPjqq+9z/+dvQ7jDBjCQmFBE0WLQG9YoEULjYagYveL3KVfJVkQvsPdyyt7nilg19m0OE7yNQRZxyZ6nQiLe2Uf3rJhMokWi7TYkXRqNUmeItXILYSgiZYEkKdAYYZGb+fzzmfkz1n9+zu2WVz9keej5mVs2f37NlzTrLmtZ/P5/2RR1L1KL94TH6fMHe6Nl1uMks5kfX5jFOzWDZui0rbrqhsb7KHMxSWq+X6KWbR4xpZM98uvjbQ55ov25kaK0kIjlUeD+IamZHV6IH0242OX49MSjLVWJLjAwAAQFoEcIyd86/LL52AOi8qL051FQqbNFd+rOeXtsZQH5df9vu3xN5Vq+eLnhsLsAG3y4xTDM68T70/T3CcLvdVN0tnfeI0Xa+e6rIDiB7vvKBZfuw+RrXdzVPVdvPWSVvSOcu9If4+936tYmnpi6tpTiv4XeX2FxO+1Ht81n0unfdnzfNtVuVE9ufTraFxgdRV2stVK++WNTX2ciGpWzpVti9yFSIrnyBrmstMkL4kHe+7i7Q5U2NNkOg97m1UoL1nijxrVR5P55L8yfqBu1pW/cskaXBfN/U6DbOSVRfPYLvh89LhPPfBKbLR/VjK4wMAAEA6Vy1Ztvxrs5xXZ4cTx65WV0ekv79021dK/fhs012B2Y89RZm3SrqzzbD0XdSFwsxqD7/t/N1cHbXmpLamNEsR2J3nJaXn+T7enrjPSctUyK6PBaoEad5ryu2Py+audnnVWp4rL+riZdaUZ4ldt93vP/5YUx6bnhtc/fo9fcNsebP3J6NTpt03x66O7l7nvE66dVrW59NoWB+V6HxzR0akc8vuMZsLPDMqMFsh9LIMnLtaqnxbre0pvBKqiM+6TtqW+k9Npqc065hcJtFIkm0d5ZNk+4MT7S7gCfT0X/4VyDPbzjlGczeB33uMnZdk7z+yyP6iwZq+zRXeG+6Zqo7b3Eml70sqmwMAgKJGCzjG2Gn5ac9PpKW3S9605vx2qHA93CEtXSmC6cVjssna9rgK4mad0jfcJZsDhu9MHO1vlW9/2CG/HlbvzayzXBy2ipZZ83z77fP867Kqa6dsPuV9n4GOUdPbq/2+qfbj1qcDau8hE77Tc1rB/ehjiz+PVgA2Y8Jf9bzv3Mj6fBqHOnqk2+qzrcLpvgMFEr5dzl2SF9vPyKaDl1QQN+uUgb4L0posQH/yZcLzrTmzXz5jBdJA03QNn5cNL38p3XHPHVCv03nwgn/41jLazp7Ga5Na3+1+ryp4D6gQvClh2i8AAAAEQQt4Ho2PFvD8c1pi07WAAwAAAMBYogUcJe9bE1N0gwYAAACAkBDAUTp0gbap3orjusiYHsesu4MfHKb1GwAAAED+0AU9j+iCnlupin7psdirjh0x9wAAAAAgfLSAo2QcHd4rm/0KfvXuJHwDAAAAyDtawPOIFnAAAAAAGD9oAQcAAAAAIAQEcAAAAAAAQkAABwAAAAAgBARwAAAAAABCQAAHAAAAACAEBHAAAAAAAEJAAAcAAAAAIAQEcAAAAAAAQkAABwAAAAAgBARwAAAAAABCQAAHAAAAACAEBHAAAAAAAEJAAAcAAAAAIAQEcAAAAAAAQkAABwAAAAAgBARwAAAAAABCQAAHAAAAACAEBHAAAAAAAEJAAAcAAAAAIAQEcAAAAAAAQkAABwAAAAAgBARwAAAAAABCQAAHAAAAACAEBHAAAAAAAEJAAAcAAAAAIAQEcAAAAAAAQkAABwAAAAAgBARwAAAAAABCQAAHAAAAACAEBHAAAAAAAEJAAAcAAAAAIAQEcAAAAAAAQkAABwAAAAAgBARwAAAAAABCQAAHAAAAACAEBHAAAAAAAEJAAAcAAAAAIAQEcAAAAAAAQkAABwAAAAAgBFctWbb8a7OcV2eHh8xSTHV1RPr7+8y90lPqx1c0Ji2Tznn1EjF3R13skpae1+WouRvMdPnxgnXy79eK9J3qkFX9R8z63Li5OiptN5Sr196pXvu0WZsvzrEOy68/bJWfnjerC0KFNDQtlMYFM6Wq0qySE9K6dr8cMvcAAACAsNECjpJ189Rl8uKCqPx3/f8bvXXOWSb3TTJPGAuTbpGlKnxrkRtulvvsRYSsYX2zRFe6wzcAAACQfwRwlKDp8uM5UWmrrZe7ri0362yR8np5el5UXpxqVmjnX5dVXT+Rb4/eOuRN81DGzn8sBy/ai32njsqr9iJCVSEzpttL3TvbpWVtq7nR+g0AAID8IoCjxJhu0eU6eA/Lm707pWU0WO+UzaeOS5+Uy13lc+2n59xp+WmPvb9cdz9HhgZ7ZE9X4tAWAAAAIF8I4CgtUxus8dcix2Xzh63y2JnTrjHcp+XV/nZZ9eFO+fYxwnFoahbLxm1RadsVle1NFWYlAAAAMP4QwBEKezx2bCz2f9dHpXPOXLnZPO6lW7HVcxYsM49Pl/vmqOfHjeVO3FZtd8Nsa+nN3nZ5NVlRsPO5Kl5m3qfrfblvndWmH3RK09W5aZZOz1j1VOcmNX2erNdItv2kuVb3fM+5XNCcZly88x5d21hj6U/L3y6Yp6TQ0LhA6sxY7KqVd8uaGnt57AzJ5/muTwcAAAD4yCqAT5o0SW6bOzfpTT8O2OyQao/HNqss5RIpb5Q2FTZ/nOzH5doK+ZYKjC8uWCdPl6vnm9WaHsvdNhrQjdECaMflwBlrTWEzx9ZWO1sinrHqAc6ND10hXZ8nGe6QlmNHEqq368f/e16j1T3fcy6vnS1Pz0v2hYHdpd9+j2aV4oyl/8FEs6IQVZZJtVkEAAAACkFWAfz8ebtpce7cf0q4ac7jwM3VD5gu4fZ47NFCZx92yK+tYmXl8u/zmpNUC9fBsFEF92H5tWvblt7j9sPX1ssj7mJqEyvsYDkcVvGz2Hhv963l1LB5PBUVvq1jU4sXj3uOzz1W/caAAdeZnsyaOs0nfMvUZvtxfR1OqYDufr/qfOrJ8CI3PJAQ+O+bY0+pFn/9WtT1e/OiCvKuUJ7MoY4e6R60lwf2HZDdJ+1lAAAAYLzJugv6X44ckSNH/sfcs+n7ej1gmbRMnjWhT88Trcdjjzp/RIXXnSaEz5YfJOuurcLp5q5W+alr26Nn2mWzybg118a2u/na4hlffHP1nXKXXrDmGm/3HJ97rPpjAVryPeHbd95yd9d8dR36vQFdn89V1pca5bK03HUd1PX7gb58PtfvqLp+j41evzROvifPPWFXIt+wZ6yLolVIpGmFNM5Xi4Mj0m+vBAAAAArCFY0Bd4dwwjcSjLZIvyU/9e0UcVp+espuzY5U3OIzZlkFv+Ptvq3Zf70QpJW5UE2Xf60wX0wc9wvMRoCx6rHwfVw2+4ZvxemarwL6S8kC/Zmj1tRrnuuQ9voVkJrFsn2XLvTWLM/q+b8HT0jnjvesln0AAACgUFxxETYdul/74+uEbyRwWqT7LqRoxr0wZIckPd7bWpG9oxdN6+rEqVkVMAvPVLnR6ro9JH+7gmCrC6PZ3cq1IfmrWUrgBOlr66XNVXzNe2u0W+RdAl2/AjWgbp/biwAAAEDBuOIArn3xxd/NEpBHOQzzBa/iAaswmm7V3qzHnOtwPWes5jYvAiffkw1rdTf3dmndNyJVlTMl+vBiT7E5AAAAIN9yEsCBVCIT3ZXS4jitsxdTtOAGdf5jOZhuTHlBqZCbspwwwKqabsZ8v9rfao+JL2+UF/1OtfPFxHDHaBG1pDefbuwpr1/BGZJDe3ZL62G1SBV0AAAAFBgCOMbM0eFjdvArvzPJdFqx4mB9Qx8nHwsd2Gn5/ZA9NtyvovcoPRf21AABfcxa0o/IAettlsu/z/abz9yYND35Y3EF11491mGN4b6r1mfqMueLiaTXwV/s+t3sX6V+ktOVPo2axbJxmx6fHZXtTcVTKA8AAADINQI4xs751+WXTtCcF5UX3aFXh+AFzhRXx+WX/ekLjgVxtH+va3oztc/qua4QqwLt1Gbp1HNh16YI6HJGPh1tSXdtr97zfRkE2FRePdVlusvr+cyb474QcN7nuqTdyhO/sDgij5lK5omh3il25zonnuOYLvdVq/3Vx00H5+pR8LR6j+5jd85j/LhxPw2NC6Su0l6uWnm3rKmxlwEAAIDx5qoly5Z/bZbz6uxw4vRE1dUR6e+3YkpJKvXjs013BW0/9hRX3irbzjZ+j9mc6t99p3bKqoTwnn6f1nRcKWqLjVYXj6e7cR9LXXAw9XtzmbRMhdj6FOOUE48/3WuPvm+f95n0mBx6PvLj7d7zneo9que/eWG23FWe/DppDeujEtXTgllGpHPL7jGeC7xC1mxrllXSI5ueoBI6AAAACgct4Bhjp+WnPT+Rlt4uedNqTXUMS58KiS16ju8kwS177n3aXdJtep9dstma09qsSuJof6u0nDruDW86oA7nsCL4+ddlVddO2az3k6NzM9oDwBoP7u1mr4/p2x92qGNQr2/WWdQ5evOU2p+ejzx+f/o9mm1iYs9/KcB0cIc6eqR70F4e2HdgjMM3AAAAULhoAc+j8dECDoSNFnAAAAAUJlrAAZSmygXSVE/RNwAAABQOAjiAEjMk7/aMWEt165qt6uv2bYU0WGsBAACA/CCAAyg5fXt2y6Z9J2TAjD0HAAAACgFjwPOIMeAAAAAAMH7QAg4AAAAAQAgI4AAAAAAAhIAAjjGju9gDAAAAAGwEcAAAAAAAQkAABwAAAAAgBARwAAAAAABCQAAHAAAAACAEBHAAAAAAAEJAAAcAAAAAIARXR2be+JRZzquLFy+YpZhvfGOy/OMf58y90sPxjRe3yerNj0jjP10jvX/+VM6btellu93YurX5UfnB/7lXbpl+Vrr/5wuztphNlyWP/F/53v+eLiOHPpK/m7WlquSu39wWefKHq+XOhiWe27SRN+TjUr+YAACg6NACDoyxaUsbpFaG5J29r0kmcSfVdtOWPipPbn4qze1RWTLNbJAr05ZLfW2FtVhe/k0J+vL2+22RW839sZbZ/r4pFeXqn+EhOWOvKF1ZXr9CNq3CPh6vY3LsiFkEAAAoIARwYCypwNNYrwJC7yF5I6P0nXq7qVP9Qke8IRnKdQPnFx/J8WG9MCS9xz4K+IXCdLl5jnq/oQXcDPc37Zui87cM/z2jL0iKUlbXr7B9cfBn8szTT5nbDnlHH994+DIFAAAUpauWLFv+tVnOq7PqD6Z41dUR6e/vM/dKD8dX+m5tfkrurz0mrzzdJh+ZdUGk3k53mX5Yvlue+evmh+5K/4DU9u6VZ9r/YtaNpcz2p1vLH6qvkN7Op+S3tJoWubB/1gAAADJDCzgwVua2qBAtMtz1RmYhOd12026V2brJtvfjIgjfytxbRB2O9B4NKRBluD+7N8GQDDFeuPiF/bMGAACQIVrA84jjK2WmlVrell+9lMnY7wDb6aJTq+aogL5Dfn7wtFmZinnN4b3yzJsiS+5qkO/qccDDx+SdvW3yhtyWuM7ZsdlXguFUx3WbrH6kQWrLdbBNJxet+Feyv/jeBNPl1qVLpL5+jt0tXRnu3Ssd7X9Jeg2nqXPUeId6vrOB7t7ddUjeOph8m2xNm7tc7lT7ih3rkHp/x6TrzdfkI7+dZXX93NT5aF5tjRuPnY+37f19U792hbyz82euYRKunzWrBTrT85np/rzs3gyS8jkAAAD5RAs4MBbmLlGhTqT37UzCtxJgO7vo1JAc/zhI+NZMkTG5RVave8AO2lr5HJl9V4v8KG7dd++6zV5W/AtcqVCUavywHlMdKAwruRire0X7cxVgm7ZcfrT5YbnfFRa18toHpHHpdHPPTQf/p+QhFXBj4VurkNr6B+ShR5bntsiZCtMPrboj7osGFVRr75D71z0qq+cmvsesrp/DOR+uMKzZ+2uR1TfrYB9XZ8D0zhg+8/fY9kHPZ8r9qePz21+c0d4MaQ8OAAAgP2gBzyOOr1SZcaiBWxkdwbazx4ebOz4SWsZ1sFl3hx1qevfKr3Tro7tlNH5dqvGz5jnBx0tney6yleH+zLnRAVxUsC0fPiav7G0zrcm6NVYHQrWYcE7MflTYs1q7P1bnz9nZtNtkyQMP2F+k5GxcudNSr/bX+Vv1ms71nS7T5i6RRv0lgHovaVt+A18/5/jUqXFaoM3rWi3+1v6U+PNsXn/Ycz7fUNvq9xvkfCrqNV/ZG3B/HuY1Uv38AgAA5Bkt4ECOjcW0YzHTTWt2Br5pWhR1eNFBWy//fUisYtjudYbVepmE0/oeeLx02BXGM9zftFvsYGe1oHftkGdecsK3dlo+evNt+zzFubVZh0UVLlXg/a3uau7e2Rd/kTf22tuVV/i1nF8BFWjfGg3f2mn54kib/PzpHdZ7SdftOuj1s49P7U6F2Z+3e7u3W/vrPGYtx7ekOy3u3vPpvN9051PR4VkF7GT7S3ldzbVP9fMLAACQbwRwIJemjc20YzGmy7QOKqNTL3lv8ePCnVDk6dZuQrl7nfO84SHv9jHO9F7H5GjQY3P2E1ZRrAz350znpluEU42n94a622SOlRbnyP3r/OZfVzenx0HOnJYhK9HfIY3Nt8m0hL7tKtymvSYBr5/6Way30vfb1ljtVOJ/VmLnM3V9As/5dO1PfxmUSsrraq598p9fAACA/COAAzl06106eB2TVzLsAht4O1PlOZNWPr8q37c642ld6+znHZNjSbsmO+Olg7dm++1nLGW2P6c3QfJjdlrIPaHOXIOwfdS+Q17pHbLGUD9kBf9HZfVSFcbN4+kFu36jx5xinLh/S7r7fPqHYL/zmf3+vOxrn+rnFwAAIP8I4ECuzB2jacdc0rdSx3Naa1V4GU03TlByrzPPSyhS5pLxFE9++xlLme7PVYDNXpHA78uL0R4Fnf49ENy3YFXqgzqtQvjP5JmdKoh3HZNhp9ibFcQDdHUPeP2cY05e5M+0pCec5+zOZ/b7czPXPtXPLwAAQAEggAM5MV2W3DFHBYC3pSOj0JXZdn4BJiVnTLRnznCnG7trXYCx00FaIb189jOmMtxf2mNOHehzPr47qC9UED+ox32rkL9zr/QO6yC+WpakaQrP/Pol4cxDHx92nZ4BWZ7P5NIH+9hzgvfOAAAAyAcCOJAD05auzmrascy2c1r5Mh+D7emy7teN3e95cUbDf9B9OwE3LBnuz+n6nLxF2D/4fTFkz9hQPufWpN2/p82dnsMpyG6T1Xrct7nn8cVf5Ldv6wJlFVLxTXtVMpldvwqZfYvfVGG6wrsZ3x4Xdkd7BmR4Pm3J3r+unO5UR08Rrv1+pgEAAAoQARy4YrfJnVYBtb0ZTjmV6XaZt/L5dVkPus7Lab2cI/Wu7s7T5t4mt6ZLmrUNssQ1R/U0HeKal8ut5n7OBdxf2t4ETqiLH5t85GPp1f+W32HN9e0+fntfj8pDqx6WO+ealVfIqo6vx30/Ys/17Tndan+rdQ+KtIJfv4+O2hXHy+sflh8t1Y+rfZrjsuaMt14nMWhnez7PnLG/0Khd1eI9l3OXy+pHzLRlSpBwrb8UGX0N9b5v9ZkbHQAAIJ+YBzyPOL7SMG2pClz1kn4O5jgZb2fmWE7HPQ+4PWe4d35oe90xeeXpNtNV25lj2r0ukf1+7aDulnxOaed1zd04uZsj25HJ/tIfs3O8vu8zzbXQ03fpCuIZ/DiklOzcj1L7i59OLl4m1y/ZXPPWnOBn5sj9CT+3V3I+XXOAx9PziB+r8NlfvCSvoSurhzL/PAAAQDC0gANXYsynHYtxWqmD8xtz63Rjd3cDDjLGVuSLg7+1qnDHDElv1155K2mIPi1vvLRD3vFso3ajQ9XOXIdvLZP9pT/mlC26R9rM+Ou4famAqvf18xyGb+2Lg7r42l7r2NzzaA+r/espv9KFby2T6/dR+1Pyq863pVfvT+/DOq4d6rg+koocFmCz/UV+a45tlHNcL7WZ14vfXzz9Gur9uk6Ovu7vvJ28sjoAAEA+0AKeRxxf8UtsTQ4m2+2A/DItzbQsAwAAZIUWcCBbIUw7BhQSazy6+jfVnN0AAABIjgAOZGV6KNOOAaGatlx+ZM0rHld13SkuZ40hPyZd/OwCAABkhQAOZCGcaceAfNDzij8gD21+Sp50brr6ea09hvudnQybAAAAyBZjwPOI4wNQePTc26ulXgVuXVfNoouiHTskbx3MbXE5AACA8YYAnkccHwAAAACMH3RBBwAAAAAgBARwAAAAAABCQAAHAAAAACAEBHAAAAAAAEJAAAcAAAAAIAQEcAAAAAAAQkAABwAAAAAgBARwAMilmsWyfdsKaTB3AQC5EWlaI9vX15p7AFCcrlqybPnXZjmvzg4PmaWY6uqI9Pf3mXulh+NDVupXSNu6meZOTPfOVnmuy9wZQw3r10h0fpkMHH5NNrzQa9YWsVyeT/Va29VrVQ2ekNYd++XQSbMeAMJQ/7g8uq7O3In5dOf35L9C+P9DLlU0PS8tKys9710H8GdXlomo//+0lML/fwCMS7SAA0UmUjXZLLmdkD8F/OMqUr9YNm5bI227ovZNLW+srzCPplGzWBpV+Naqpk+RiLVU3K70fI7SLd86fKttW59IFr6vkTXNU6Xth+rWPCl2/mZdZ69Tt42zzDofkVmTZGPzlNHntv1wimxcNMH/OqR9zQmy0XmdeyaYdQ7nfU6RNeVmFYqQuY7un7WCcmW/D2Gbvf4/5dFdPrdtz8v3198pAT9Fx1RFVZVZcuuWvxVZ+FafdjJrQaX6d1BGPrPXaH17dsumfSMi85fL9qZCOOMAkDkCOFBk9B8gLWtbza1dOgfVysER6bcfTslqPVi3QOoq7RBtUct165pVEF+c/o/0k3+VD/T+ZES6e/4qpdC/4UrOZ0yFrHl4gQrfI9K5RYVvszalc1/5nL/L8tlZsxin4Z4p8uzSiVI3+WqzRrta6uZdJ882X5eyy3vdzPiArcyaIIntZECeZPj7EL6ITJluFuNVVkrZ/EekZdvjMtusypehPY/Lz9Z+z9yelG7r8+xzGbYfLiI3SJmVvz+QT+K+zNSf2a2HRapW3i1rasxKACgiBHCgqE2R6/UfKafPpg/DNYvlMd11T4fnne2x0LnlNTt0Vi6QZ9OOrRuS3U/o7XbLc3sSh40UvwzOp0uk6W5ZpbYb2HdAdo9Bt/PIoikSjejgfVm6PxyRTb84Iy369vKX0n1OrZ48QaKpWjkjExICeoNfKAfgT31+3mgFwlekbTTg2re2na+oT1Wlsk6+01RIfQ1MiD39ufrkLjI1M8T6mjjJez/0wmvSrZ6x6uEAXxwDQIEhgAPFrP4mqxWz+8/px8JFFunu0XZIfK7L9SfNyV4rVLfu65HWjnE+pi6D8xlTK036i43BHnkx7ZcSX8nnOjDHO3tZBsxiognSNM9u9e4+eFaee9/VUjh8SZ5rVyFcL0+eKE0+3XW7+y6p/06Qf/Y8pu7rv1rVY9a2KFFXy/V+IywKRja/D3lyffJAONTVJr/Zaf8mlVXdYP1bEOoXyY3qn0///JZ9v5iY8z0ycMq+n6BX9uiu6JULpKnerAKAIkERtjzi+EpJhTSsv9saH+2MwBs43CMdHe/Joet1ka/J0rllt2kdrZA125pl1enXpKVDZE1jnazS46oHT0jnjv2yWwW6hHVJWlXtgjTieu3knOI1GRUXS1KgTIfNTU+8F6CVOJPzornOjVVgR23ftFAaV9pfHmi6+NuL6jH/fWe6P69Mzucoc44G9rXLhgC9AhrumSpRFX4HPhyRDSpMW8onyfYHJ6r3fElaf/Gltwu7Hg+7dILIuQuyqf28/3E7z+n7Ulr+oAN3bN3AhxdkcN5EqfN5rFs9JvGPWfTY3DJZNfmydL58VnaPaf9Vsy+xj0/KJ0jTv0yKdbU/d1m6D38pz31izpUftc2aukmyMHJ17LqfuyQfHL4gu5Nsp3sVPDtPXWvn+PxeQ52XF9V5STjnGezPvt76ul6QGfdcJ6ucngz6y5RP1LEnrLM280qyv44/qp+V+Gujru32+RPEt7RBvITrbmSyPyPb85nx70PWInL7tmek7vRL8jP1uXt7Y6PUza9Un2Xd0r3jeXlX7kxc5/oM8CsI5lHTIt/fer+UHVav/0J84I3I7PX/Id9Rr22FeGXk8Cvy5442OX69LppWJd1bHjf7M++zslsOrH1ejlvP9pFyfzb7PYvrtdOoUe+z0fs+rXPxu5fl3a5Un/aZHJ9b8u2GF6U535quu7F1gVRRkA1AkaEFHLhS+o+AXc1WZXDnD02tav4CiW5dIxu/owPsOfl89I8P081ZbpKNW5fbQVurnCkLG1eoPyi861Y1Ju8WXl2ln+d+7eT6Buymprp/C95lz79AmfpjOcj475TnZYXPeVFqviUL1bkZGDgb294VvrWq+cvlMb/iOxlfh0SZnE9Hg/W6I/LB++nDt9avAqU2OOIKasNfiTW0Xj0WP/Y8UnaN9e9An08QdDgthj5dzXUr42f60rses1/zsnymG5DsVfmnAneTHuf+4HXece5quW5pmU+hOE0H2CnSprbRIdZz3SdPkFVquyBFvHR49H0NdfOe82z3d4006i8Z1DY2dUzzJ6nXilu3NHEsf9L3pocdPDhVti+yfz7cAoXvJLLZX7zg5zPz34fsme7Yskju3fqIHbS1yjq5sfFxFWa96+oa77SXjfIq/Zi3IJiH00IeTwflXc/I3e5Qq5TNv1/u3vq83Psd3edmQM6Ofub0ySc9+uirZErS8c0qpD+swreokJ4kfGv2e3a/dnIV9focJL5P61yse0a+n6xrfcbHZ6Tc7nFZZBVgS1M8zqlJMv+mlDUwAKDQEMCBK1KrQrQuvqUM9kjrFqeYV6ts2nlC/dlRpv6o04+5inrVTLFDz/yZUnf4Ndmkn6+eq1WpdfrbfPe65Grln/VrH/5bsBairg9iY723rZA1ASqfewuUxd7T4EC6sBk7L7oFOvG8qGOPPy/a9SY8L7jbbtnQ03ltccart1uFd7Sqqin2wqgsrkOCDM+npUJmWIWZgof2PnfQGKXCsF9XXKXahFFPQInnBBYV9GYkVC2/LO/26ZDjdEO/Rm7Xoe/cJXm3YApcaROkTr2vgb4L0vqyGeP+ixFp/dAOaBK5LjHczppohTzdOtv68ojZxrudX6iNuVqur7tOntVd/H1eY1N3XOtw1vtTQdTqTWA/t1Nf68n6teLWxQ8VmGXem24d//DL2Nh/ddt08JL6uVa/C/Ou81aq/+TL0ee0/MIMT9C9J1zbjt7iW7+z2Z9HhudTyfT3IWvOmOL5KnAffskex+10G1frdEuye52XU4AtWZhVgfjf7JKG3u7ed6qwr4OyMviKHNjiHjfeLSPq/wQ3Wp9L3iJpQwP6TKvHFiUJvfUPSp36n8jIvpeTt5Crfd9kfZ69n+I5hgrfLevUOVCLI855sG5PSts+c45W/ofcnvCFQHbHl347dY2s7zvSFY8bknd79Oj7yTKDYmwAiggBHLgCDeuXW2OGrTlJn3jPM/VUX9d+2eCEaHdRLydk6m7cTlfqz0asP2496wyrNdiPCfJJH0+gC6jpEKubPWfKKqvy+QppyOAPF7tFfEQ+S9YKZDjnxZ4rPPl5iW9Jd1rcq3SV9n0qeFvTeTlhf0gOdfTY5ylOVtchXsbnUzO9GTKump6kuvO5+ErQKlBbpyRdNejkgaVKBfi+989bQcyqhl4+QRaq1+w+nKQ7ex5Z3ZD/cN7VzfkrOfT+WdnkhNv4wnEqbG5SAXZDu+4a7Q5y9nat1gH6fSkRUxfR3fRVUPR5jb74v/6vYH8DKtDaXfm/Ml+IeNcljoW+RtbMt4/XHvvv7QHRp97LBhWKdehdeFP6Vun0crO/jM7nqKC/D1fAaaHWRdReeMsex/3Z5+rTLG6d4R17bFrPEwJhRCrqW+Req8u4uqte531Xi+3s9Y9YY7BFdxN/ok2Ouz6XhrqeHx03njCuvOt9+VT94z+eXIVXPc+32tfv96Q4O+YLh+RjqB3m9RTd3fs3nvPQJ0N7nlch3PrmNuELgWyPL8h21nUJXDyuTK6/3iwCQBEggAPZqtFzYqt/TWhOxV3UywmZ3b9zjaE2ody9znle0tZms0361mg3FWJf2G1VPremp1FB3OqeHaiITYXcvkD9STd4IvV4Qtd50WO1U4l/73YXcHUedqYeT+0JyVlehwRZnc8sWC2U8eOqv5Ld7T4tkjlzSf6kf7AmXyMNN01Qx6nu67HGU7xdhPPrsnzwN7/WUBUD/ma3vur3H98mOBrqytWx6XnS75ki281c6XpssdUqG99hwq1PBUtn7HEA2e7PrweDe53TFXuU+aJEt17v8RsXrn1iF9GrUqE3SVtpcLnaX4bnM6zfB2d+7E9/1xYLdSaUu9c5zxsZcIVbU8xMKu+XFs8c4M9Iy7r7TWtttxxQYXL0tWta5DvW55Id7lNJLJJ2Skb05/P0GepT16uiqdEurOY+Dj+jRcxShHTFeb2RfU8mHWs99P4HViD2fCGQ7fEF3C7Ylwfqx80MrQKAYkIAB7I0WlU8xXhovxZjO2R61znjiBOfd0L+lOSPInub5I+ndLJXnnvC1T173ZoA86kGm6Ir2/OiA77dnVsfk/+fls5ru0Ny9vvzuqLzOWacltE0IVI/rg8xhUMnVJiZPFGiuntw36UcFbYK2eSrpdosOiI6BDdPlbYHyySq50nX445Nt/0gBuKDbxpXur/AnC9H1DV7VoV7HfATb9fZPT9yIUf7y/R8hsVvDPdsa3yyd539PO/YYyeUJ1Lb6iJlO5+Unz3hLZhWsWihHSJ73ksalO3X9RtX3idnT6t/KhfKLPfnsgqv/7pSvb/DLyUvTGbYx5ZmDLXinJdP308d1ONle3zBt1PPSfPlAQAUKwI4kCUnSCcvvmVajD3jg804Y886v3HE5nlJuzabbTLu+uylu2e/qKdyUX8SLVyUZkx4wCm6sjsvWvru3H5fXmS/P7fcnM+x4LSMVppibL7Kr7G6z1uB3dtHNsa0XmrdOoyXAj1mWYdgq+VWHd+HX1rjjjeZscd2l/AcCnt/yBEzHtozhttvXLd5XlxXczukitVF2xmrbN8el9+o4O1XITx9sI3ILKvQmP+48uN/1r+tlVI22rU6WOE1mzm2tGOo041tN3ymBMv2+IJvl/7LA83pKQYAxYQADowZn0DpFGDzFPoyz3Ovc56XtLU5WGt0EE4XvqqEwmZeQVqRAzGVzhPCrgn4yY8p84JntvTBPvvzeVY+s7rylyW0zOaKU6QqVbffiNWtXEnZsn1J/vThZRk4d8Hufl5MnNZZT1XsCbJxqR6zfFk6D9pjjvW4ZT3uuM8z9jhXQt6fU9leTxU2WsgsyS3Z9HQOn54DCXK5v0LjFGDzFCQz47rd65znecYeOyE1WCAMLtm4csOMTy+rMr/1gQqvOcxrBx5DnUqswFxmLdJpji+pbLbLwf+XACBEBHDgiiQr/qLnozaFwdyhzowz9oxhNsHTs87veW5+2/jS82pHpW1b8qnHnBaEdK9ltzQHDb9JWtRramXNw6ZaeVzYdd5H8hb2VEE6w+sQL/D5jDckn+uuomNZhddpuZ48UZp8p7iaIE1W5er0Ldu6UNgGFZ4Ktfu5fzf7WHEw36nYzl2Sd33n+r5GZpilnAprf8OX5AP93VhkUoqq40GlLkRnyen+wlQrG/Vn3K6obF+fZMpGnxZcZ1y3Z53f87IOkpq7BdtNz39tCpElC8kn35NPB9Un24LF6lPMhOB0hdccfsfmy3R1V59+NyWpA1LR9B++BeZs2R7fFZwXjyC9mwCg8BDAgSz1D1h1WqVunbeSeKR+sfqDUM9Hbd/3K8DmGcMccJ2fqgXfiu27RoXNhKnFTEA0U481qOfE6HC6Rp5daf3JmWYea6f1eaY0uubgjtTXJlRRP/Rnu+J41cpm2d6kH1d/PurgrfZlzXGu/5hT4oO2X/dyDyckx431DnodgoTr9OczkX28AbrwZ+2S7Bmd4mqKbFzkKkRWPkE2NptxuamKZxUFPQ+2Pj5XS786vjV6/mzr1+GSdPgV95o8UR5zb6PCZmTWdbLdmnfbrMql0Pb3lew+rL9QuVpWPWjOiycYXyMNi9R+f5hqmjVTfE+/xr9Mkgb39lYROfewhlzsL3yRpjo7ICpV8+t8a1n4jSkOum60AFuGrcnDA7prjMiN6x6X2a735FRNv9t8LiUPyc448Bkyy4TgtIXX4ujwPrrvGhVu6xN/QO2u7vp9Pi/3uh+vuVNuX/+8tOgx5zIo3Tu8+872+K78vLg4vakymjoSAPLvqiXLln9tlvPq7HDi/1aqqyPS3+/+U7u0cHzFrlY27jKtq/EGT0hnz2RZtVKkc8tu2W2+nW9YH1WBcMRn3QlpXbvf/BGhW62bVVB1r4uXZN+6EvgTrurqhg7a0fk64PoZke6du+W5NN0rI01OWPfq3tmasK19TOaOi54TvGNgpkTjzkuQY3b2n7i/1NehVV2HxP3Fy+x8epltAz03ew33TJFoJEmxLz3nsp72ydy1qFDYprtM6y7FyapJJ33ONa7gm4ra7y/i9pux2L70aAjz3VMcPV92fKVs9TOxaIqZt9qHPifqYkTnTZDug2fkubgvJ5xtranPAlbtzmZ/DffY1dHd65zXSbdOS7lPTe2384/OdGY+yifJ9gcn2r1OEiRev2z352yXyfnMhfjPpYF9iTMozF7/nyrYqRC55fHRGRzsdd1yYK1TPC0it1vTibnXqU+mJjuE6vHf6Qqfed0p9+4yrbnxdMX0niq5W30uud9TPGffFj1lV9qx344k+9aVx92V2g37XJg7CbznLSbb47vy8+JI/v8EAChstIADWeuV57a8Jp16Xm3HoA6z7SqIfSCS0DXObwyzX/GvIGOW9b577KnEjAEd+n/nXwlcTz22aad+vuu9quCtA3GrCqZB/njp23PAnkN8lDrWfa/JHp9tD72gK6yr/annD+hzYu1H/WH8wl9lRg4LsNlSXYf95vXSdVHM7Hx69coeXciucoE85uodkGuH/nBWNh28ZIXUmMsyoMLzpvjwXZQuywd/PJNwjAN9F6TVJ3xrfXqO8PhzogOiGaN9yP3jmgNh70/T+2x5+Uvp7DNjtB3nLltF4PS1Txq+teHzskFt3x1XnXzAet8XEn5urnh/Ievb0+35vU3kV2jMr0iZf1dzp2jYSMZjjN+S/9rykvrsc725wUEV5J9UIfh5s4/Uxc+c6b9UHA1QeM1N7/sVqwu7w6rW/jv/yuPHX/ietOm5t93nUb/XfS9J29pkQTjb47vy82KrlSb9xctgj+//gwCgkNECnkccXykLp1W0+JTqeXFa8L29G8bKaCtlqtbtouG0gPu3cgOB1K+QtnUzfVvAi1ZNi3x/6/0i+56U3wQZ+z2O+PUmA4BiQQs4MBbSVjEfn6zxmurfVHN2F6ch2b2jR/Sc6qu2rhjzMbJ975+3C7NFrpPt97jHIwPjk103I10tiyJSc6fcq8J3WdDCa+OI7nquhzgN7DtA+AZQlAjgwFhIV8W8VNUslu271sjGplpvKDRF2Oyxmieko1RaqNxOvicbdp5QIXymRHXBO7N6bFyS53RXaLVUpUL4sz+cKm3WbUqRVbAGckB97jymP1sOdxdvIKuJfWLqgmTf36rHSScWPxvvRsf8H36tdHo6ABh3CODAGCi51piMlEndyuXy7C57aiDrpqufW0XgdJfBZIXlSkDXftmwRbeEKz7VmHPqky+tsb16rC4wPlWoQLZCtm9dIFW64OILyaYwLHQRuf3hZ+TRXf9p3VrW3W9Nh/bpzvSFyMajARW+W4r2WgMAARwYA+N4blLdCry23SrW5ingpIui7XtNNq0dB+P19Dl4Yr8cCuM4hy/J7j+clZZfnDE3xlBjPJkiTStnWq2huuBiqXyxpwumHdiSadX18aFvz27ZQPgGUOQowpZHHB8AAAAAjB+0gAMAAAAAEAICOAAAAAAAISCAY8zQ/RwAAAAAYgjgAAAAAACEgAAOAAAAAEAICOAAAAAAAISAAA4AAAAAQAgI4AAAAAAAhOCqJcuWf22W8+rs8JBZiqmujpR0Je1SPz6tYX1UovPNHRmRgcFz0rFjvxw6aVYBAAAAwDhBCzhCVCZVlTMlunWFNJg1AAAAADBeEMAxpg690Cota81ty2vSOajXTpYZNdbDAAAAADBuEMARnpO98m7PiLkDAAAAAOMLARyh6hs4Z5YAAAAAYHwhgCNUkarJZgkAAAAAxhcCOPLgnHxOFXQAAAAA4wwBHAAAAACAEBDAkQczJbptsTRQCR0AAADAOEIAR6j69hyQ1sMjMlC5QKJbo9K2KyrbmyrMowAAAABQugjgyIsq8y8AAAAAjBcEcISrfqFE55eJDJ6Q1i3t0rK2VTbsGTIPAgAAAEDpIoAjVPY0ZCPSuWO/HDpJ8AYAAAAwfhDAkQdMQwYAAABg/CGAIw8mywwqoAMAAAAYZwjgAAAAAACEgACOUPUNnDNLAAAAADC+EMARKrsIGwAAAACMPwRwhKemVppWlpk7AAAAADC+EMAxphrWR6Vtl7ltXS51euXgCXmXKugAAAAAxhkCOEI0IgOHe6R1x3vSZ9YAAAAAwHhx1ZJly782y3l1dnjILMVUV0ekv790o1qpHx8AAAAAIIYWcAAAAAAAQkAABwAAAAAgBARwAAAAAABCQADPI8Z/AwAAAMD4QQAHAAAAACAEBHAAAAAAAEJAAAcAAAAAIAQEcAAAAAAAQkAABwAAAAAgBFctWbb8a7OcV2eHh8xSTHV1pOQrhTesj0p0vrkjIzIweE46duyXQyfNKgAAAABASaAFvKCUSVXlTIluXSENZg0AAAAAoDTQAl5IamplzcPLZVXliHRu2S27aQUHAAAAgJJBC3ghOdkr7/aMmDsAAAAAgFJCAC8wfQPnzBIAAAAAoJQQwAtMpGqyWQIAAAAAlBICeEE6J58z/hsAAAAASgoBHAAAAACAEBDAC9JMiW5bLA015i4AAAAAoOhdHZl541NmOa8uXrxglmK+8Y3J8o9/jK+iZOc+Pi1/r6mSGbNulGVLF8rqxoXy3f91Qn7/ceL5AQAAAAAUD1rAC1SV+RcAAAAAUBoI4IWmfqFE55eJDJ6Q1i3t0rK2VTbsGTIPAgAAAACKFQG8wNjTkI1I5479cugkwRsAAAAASgUBvCAxDRkAAAAAlBoCeEGaLDOogA4AAAAAJYUADgAAAABACAjgBaZvYHxNuwYAAAAA4wUBvMDYRdgAAAAAAKWGAF5IamqlaWWZuQMAAAAAKCVXLVm2/GuznFdnhxOn3Kqujkh/f5+5V5oa1kclOt/ccQz2yKYn3pPSPnIAAAAAGF9oAS8oIzJwuEdadxC+AQAAAKDU0AIOAAAAAEAIaAEHAAAAACAEBHAAAAAAAEJAAAcAAAAAIAQFHcAZ/w0AAAAAKBW0gAMAAAAAEAICOAAAAAAAISCAAwAAAAAQAgI4AAAAAAAhIIADAAAAABCCq5YsW/61Wc6rs8NDZsmrYX1UovPNHRmRgcFz0rFjvxw6aVYBAAAAAFAEiqwFvEyqKmdKdOsKaTBrAAAAAAAoBgXfAu5RUytrHl4uqypHpHPLbtlNKzgAAAAAoEgUVwv4yV55t2fE3AEAAAAAoHgUXRG2voFzZgkAAAAAgOJRdAE8UjXZLAEAAAAAUDyKdBqyc/I5478BAAAAAEWkSAM4AAAAAADFpUgD+EyJblssDTXmLgAAAAAABa64piGzVEjD+rulcX6ZVJk1A/vaZcOeoNsDAAAAABC+ou2C7oRvAAAAAACKQfG1gNevkLZ1M0UGT0jrjg/k0ElavgEAAAAAha9IpyEbkc4d+wnfAAAAAICiwTRkAAAAAACEoEgD+GSZQQV0AAAAAEARKdoibAAAAAAAFJOiC+B9A+fMEgAAAAAAxaNIi7ABAAAAAFBciiuA19RK08oycwcAAAAAgOJR8POAN6yPSnS+ueMY7JFNT7wnfeYuAAAAAACFrsi6oI/IwOEead1B+AYAAAAAFJeCbwEHAAAAAKAUMA0ZAAAAAAAhIIADAAAAABACAjgAAAAAACEggAMAAAAAEAICOAAAAAAAISCAAwAAAAAQAgI4AAAAAAAhIIADAAAAABACAjgAAAAAACEggAMAAAAAEAICOAAAAAAAISCAAwAAAAAQAgI4AAAAAAAhIIADAAAAABACAjgAAAAAACEggAMAAAAAEAICOAAAAAAAISCAAwAAAAAQAgI4AAAAAAAhIIADAAAAABACAjgAAAAAACEggAMAAAAAEAICOAAAAAAAISCAAwAAAAAQAgI4AAAAAAAhIIADAAAAABACAjgAAAAAACEggAMAAAAAEAICOAAAAAAAISCAAwAAAAAQAgI4AAAAAAAhIIADAAAAABACAjgAAAAAACEggAMAAAAAEAICOAAAAAAAISCAAwAAAAAQAgI4AAAAAAAhIIADAAAAABACAjgAAAAAACEggAMAAAAAEAICOAAAAAAAISCAAwAAAAAQAgI4AAAAAAAhIIADAAAAABACAjgAAAAAACEggAMAAAAAEAICOAAAAAAAISCAAwAAAAAQAgI4AAAAAAAhIIADAAAAABACAjgAAAAAACEggAMAAAAAEAICOAAAAAAAISCAAwAAAAAQAgI4AAAAAAAhIIADAAAAABACAjgAAAAAACEggAMAAAAAEAICOAAAAAAAISCAAwAAAAAw5kT+PwZe2ycJaNsfAAAAAElFTkSuQmCC;" vertex="1" parent="1">
          <mxGeometry x="90" y="880" width="992" height="850" as="geometry" />
        </mxCell>
        <mxCell id="PHQ5CLUJddvyAd3cBVB4-9" value="" style="shape=image;verticalLabelPosition=bottom;labelBackgroundColor=default;verticalAlign=top;aspect=fixed;imageAspect=0;image=data:image/png,iVBORw0KGgoAAAANSUhEUgAABLIAAAMvCAYAAADGQ/nqAAAAAXNSR0IArs4c6QAAAARnQU1BAACxjwv8YQUAAAAJcEhZcwAADsMAAA7DAcdvqGQAAP+lSURBVHhe7P1/cBTnmeh9X16rypzFWBZoTSR+jdYJPrZ3HYPAKIeybGOIC2Mb5U2JRd7nD1x72DI6tZBA8AFq6wHqTQFPiOXYW49wHZ8t88fZSAcq74rEhHKM7QouPwaLgcRnHR8T+0j80gQvIGNMDn5KXr/33X33TPdM90xPz4yklr6fKsFMa3q6++4fmr7muq/7hgcXLf5KKuzypYvmEQAAAAAAABDNn5j/AQAAAAAAgFGNQBYAAAAAAABigUAWAAAAAAAAYoFAFgAAAAAAAGKBQBYAAAAAAABigUAWAAAAAAAAYoFAFgAAAAAAAGKBQBYAAAAAAABigUAWAAAAAAAAYoFAFgAAAAAAAGKBQBYAAAAAAABigUAWAAAAAAAAYoFAFgAAAAAAAGKBQBYAAAAAAABigUAWAAAAAAAAYoFAFgAAAAAAAGKBQBYAAAAAAABigUAWAAAAAAAAYoFAFgAAAAAAAGKBQBYAAAAAAABigUAWAAAAAAAAYoFAFgAAAAAAAGKBQBYAAAAAAABigUAWAAAAAAAAYoFAFgAAAAAAAGKBQBYAAAAAAABigUAWAAAAAAAAYoFAFgAAAAAAAGKBQBYAAAAAAABigUAWAAAAAAAAYuHGRMOfbzOPK+Z//+8/mkcAxpyFS6Xj//tteaplvvyHWTfKh8fOyafmVxUx1pcXVVzW021Wk3Rs+kv5369/JKfNJLdEa5v8n0v+X3n12CUzBQAAAMB4d8ODixZ/ZR5XzOVLF80jt9uk7cmnZHnNZTnw31+SLr+XjAa1D0jHXzVJvXmaNnhUNv3019JvngLj02zZuHexNJpn2sDBfbJ+f6VO6LG0vFpp27lClteZp1mKW85wt0sZ6MDb6gapT/VJ54uH5IhPJEsHsnYtqxE5eVhWPn/KTAUAAAAwntG1cLSrvksOfKdFfqt+DtxVbSaOrMebilmf6fKCtf4Py/dGx+pjvFm4VLr3tts/62abiRhROhNLB7GkTzo3+wextP79XbLp4KDInMXS0VprpgIAAAAYzwhkFXLx17L+//6/ZGX65xVJml8Nhzun1UnCPE7UT5M7zeOR9NFnV63/E7dMsv7Pq/oWmWU9+Fw+vmI9wJhySva/1CcD5pmkTsgLFc0CGuvLiyou66nVStvTc6VeBuXA1kNyxEwNooNZnSdF6pctkTb7YgIAAABgHKNrYdHulo3/6TFpHJauhdXyvcUPyVPqJvXlgTp56g6Rl994XX4y0gGhGQvkt/PqRK6ekpWHfycfmMm+inktUAHp7mnaqO6i5u0eOOq7Bkbk7I9IXSdTJ2TT5qN06QYAAADGMTKyRrPqafLQJJH+gfPyk/MpdfM2SR6aNgr65312tfgbyc8/I4g1HGY1ycaddje6orpiRZ0vBmbWmyAWRoHZ0qqDikVnjJ2S/bqLYd1caV1oJgEAAAAYl0ZNRtY7cre0fvs/SGPNZPvXg5clefyA7D71if3cR2L2A9I6r0nNYybIZRno+3/khV++nzfQEnU+2zBmZJlspl8f75G1Z3WtqXnyQGBmUyZ7S/9eqqfLmvl3yAOTTPe/q1fl1x8eV++Tnc4VYT5dt2vRbElISv7+n4/JL+yJ8njTPPmPN4uc/vB19Xprotx518PSfcck6f/wTVn+u8x72NNdGWZqud+78w55qG5Suitlf+q4bDp6Lndb/V57NSVvfvg/5Sfl2D5L1PlcAtbzv/aqNguYraR2UZrXtUv7HPPE6rrVJV0B9YfcQs+naxtt193CggTMq+tUrW6wH5usqMTCJml9bK40OsXOU31y4MVD3nkjLa9W2tYtkeVzQgaw3Fk+UbcvrVaaW+dLy9xbpb4us/wBtW29r/RK19v5gjdFZGSVsJ6eDLV8ArKfErNmS+vTjWq/Fbt9ijkOImWbOdtM4XcAAABgXMvJyJo4caLc85d/Gfijf19u0+9bLbv+6rFMEEtTjxuXPCXdj95tJrjpINh/ll1L3MEobbLUNzwmu/7TamnzTSqJOt/IeHyavsNPyWtWUOicvJZS/02qk0fyJWVNmiRrmh6W7kXzMkEXTT1+YN5D8tum6WZClmLmu/KZGSr/Zrk9vS6TZIkOtujXT8u89uumjtbpq8EBHx28+a1a7lOuYI2mH3uDNdXyPbWOvq9V7fKUWs8XZpgJ2YrZPreI8wVuk1rPHy4KVyg/fLvEzNdul7Z1bbJrtSuIpdU1yPLtbeWpg/S1EIGasqqVZrVN3XtXSPuyBk8QS6vX27Z6hXTEuti8vY27ti/2BLG0sNvXPE8HMwel990ig1ja6Y+kV18D59wuzfYUAAAAAONQTiDr2rVr1v9/+Zd35/xozu/LZ7I0NkyWgb6j0vnfnYLqL0tn8rL964bHZGPWvVGiabkst+6jLkvytZczhdj/+ytyYFBPnyzL/+r/k3OzE3W+kTFdllhxrPMm40nkF+etSFaB7oV18kDdJOlPnZK/f6NHvvnP+udN+fsP7QLtUjcvINhTzHxX5X+ZyWkzpskD5qHcfEtWUXr1+s/MQ49J8ud3LrAytuRqSi33TbNce9krPzhnXmfM+PdWUEdnNWW/1lnPB+YtkMetR9mGo12MGWab1HbrrK2V6fXskZXHdRdRdSzeMS/PKI5FtovLkZ4TktSHiTJw8LU8mUNeUeeLRAc9ArOlamR5SxyDPTowE7RNGfVzFsvGmHSNGzjxkScbq3ndCmkvkOWWf/tqZdrX9P+fyvlIx9dFeeeEvlDfKtMo+g4AAACMW4FdC3X2lRO80v7H/3hf3vsf/8M8K07+roXqhin5sqw/mtuFMNG0WnY1Thbpe0VW/vJ9e2LtA9LxV01SL0FF4gPeN+p8OYapa6GnW6GZJvm6F5qucJMkpxufw+62pl6QOi7fPOoEQ6LN93hTi/ywTtLrZ7/mc/l1Sgd+rpqucc57u7sg2tLvqQQt18+d1SIfBLzUXidn2WbiMLeLez7vvnMx+9bvfaO2y4hydxsM07XQSL60T3brrmizZstGneVjpgd1aUsLs7y0WmnbuUKWO5lfUbqlhV2e1fWtQVIHk7L/3VPS77wme/sC16HEYu9FtYtXdnfDnGVndWXU+26/2nfOPkqoZe9ylh24/0ov2O6sZ/KlTnXsmIkAAAAAxpXAYu86aKWDV1opQazCLkvvR/5Bo/6PTtnDyd9am+laNXmKfTPV9/8EjHT4iXQd/731qP7P7yx9vhHi7VboCNO98Kq8ed4/+PGBVTBeycmY0oqb76PP7IykWZP0ilTLI/WT1Ftcldes6ZPkz2/Rv1X/2zGZYKnjRQVr0kGs6mp5fMZd8kLTw3Jg8cPy2+/YgbXMsrMNT7s4Bfr1KI17/IJY2tnz8mv1X6J+ms/yjCLbJW50oMQKYmmnT8mxk/ZDS12NzDQPY+X0UVm/qkt2vysy876lsnFnm3ToAvruIJb2tckjfn1xy6mZdfJwTgAtcV9DOoilNa5eIbv22oMD6J90EEur4P7rH/jUPAIAAAAwXuUdtVAHrw6//kYFg1gh1UxJ3xglJk+x/h+4/K/W/74uX7IDYGWYb2SYboVSJz/8TosVpHF+nGBNSaMXTpokXzcPi+Ka74Orn5tHmglYff6Z1f1RB3fcdbJ0gOsj8zBbvwmIhXWnDl4tVm2x6CH54bzZVrc/XZerLMrQLnKLqWc1abZ0Z+27zM+8TDfMAMW2S9ykBryBkjMDVt/eeNOZVyZwpetk6TpS9U4m2GilM6myglibfLLFihv5ka5/AAAAAConbyBLu3AheNRAVIi73lSAvNk8w+Gzq1bAKqGLuZv1/fX5c5lC8DpLqfoWse5nP/+sPMXJde0pHbyyMp5SVv0pXT9qpakh9femxhMw/Ez3wdEeuHJbuFQ63JlUusvf86fsLMOSRK2BVVii/lbzCAAAAMB4VTCQNaKc7oCDl+SMNSGjfvKfmUc+KjDfcLK7FepaT5ki4e5i3y9bvfcKjF7ox8kWypMh5ctvPlfA6vFJN6sHTkF3p/tjJkupPNlF0+WFeaZdjr8p3zx8TNb+7pz84soV+UD9lKSc7WICfFbdrJx9l/WTU+cMFVehbn2J1kZP98GBg4elc+s+2bSqU1aqn05318nRQNe8Wu3qLligbpU3Y65POs12+f8ckiPmlV6X5Zy+NpTc9XBQzjkl6QAAAACMO6MgkDVZpk82Dz1uk7Z537AeDfyvD9I3WOm6WQ3/QdpqrUlZyjtfoIp1PzTdCq+m5FXf+MwVeXXArkMV1L3Qv0ZUtXzvDjtdpH/gvG8Apbj5MiMX3q6zsuRz+disr10/q06W3GkHek5fLWOtJ90uZ/3er1puN4+CDEu7XDkvb1qbf0eeUQkraFaT3b1tb7t0tPoe6P6izjfqXZTzfzAPtbq50rrQvX21kphV5u1N9UnP/lNy5LQuhq7ef2GTtMwxvytC/bL50pzuoqfX0zwslVV8PlO43QpMFSi+3v9un339tDRI+86lat2y2lFt58bWfCNOOvsiatfDWvnWXN3FsXIZXwAAAABGv1GRkdW45D9LR9PdmUyJ2rvTIwiK/F563CMIXvy19PTpB5Nl+V+tlo2zb7MmWyoxX45/lXNWcsI3pCVrnZvLcT9suukFBVU0p8i4f/fCSfLAvIflhbumuwqQT0+PpKfusuW/+hYRL3a+K/KxLpM1abY8peM5qfPpUQmd9Zt1sztTq0zU8na511Gq5c4ZC+SAXk87rhRg+NrlJx9aKWny1CIznyegVS2P36XW9zsL5HEzpZyaW+amu7fVL1sibSEDBlHni4Mjx60TP00XKneKlHfvXSG7nv56yVlaniLkdQ3S7n7/1e6gUT5ZRe91wGh75n3W3leOC4zpAmme2dzr6/5ZKs3mFbqQfY+nIL9et6x2VNvZuKwx77Fj74samR9lW2Z9XebrY/TkxwEZXwAAAADGg1EQyLosutdKfeNjsus//Wfp1j9/9ZgJKl2WA//9/5dz03Lkly/LASuYNFkalzxlz1PB+bw+kXf+12XrUfY6t993tzW9FHa3wgJZTE63voDuhf1XJ8kDd8zLFBtfNM8EXXR3xWPpgFO2qPNpnu6DZv3sIuyZTK3SnJM9H9rLSLjX8TsPSfe8OklISv7eCiAFG7Z2OXtMVlrrauZbZOazfh6SH96h1lf9+vaRyNgaj97ulQP5Do1yjLKXdxmDkjzp7poX7MjzhyVpHmern1t6wE0W3p4VxArvyPP7pLPgdhQIUr39sbV9UbbFGTkxeTy3GD0AAACA8WPkA1mDp+SFn/5fsum131sBLcdA31Hp/O8vSZd3cDPjE+my5jkqSc991WU13yuy6f8u93xe/Udfkk1Jtb7muWXw93LgozwjIobijFaYktfOWhMCmDpU4te98Kq82dsjK4+npN8VW+pPnZK/f+N1+UlgUKn4+ewuhJqa97z7BZluh+X0we9ez1k/3dXQqZn1i7zLHL520fS6fvON4/JyytTMcly9ahWpX6nWN3iZ0R3pOSFJE1AZOPiadIXsghV1vni4KF2b98mml/pkICvYNJAalOTBj8tQE89ehjfQMygDehTArV2yu8fdNS+fU7J762E5kBUwstbzhB1AHzkX5cjzXWp77PXzbI/VjnpbO2X9/nwX0VOy/6Datrq5sraoLqyzpVWPrpg6IfvfNpMAAAAAjEs3PLho8VfmccVcvhQiOoQSVZvubjpLKF9gJlvU+eKCdgFGl1pp27lCltcNyoGtXaGCps3r2qV9TvjXAwAAABi7RveohQCAMeaidL14QgakRpZvd9XhCpBobZP2OWMxUxAAAABAFASyAADD6/RRWa+7ejojIJrJ2XQQa5fuUnjycIEuiwAAAADGCwJZAIDh9/YhWb9VZ2YpeUY61HXGVj5PgXcAAAAANgJZAICRoTOzNh+SIwFdBvv3d8l6glgAAAAAXCj2DgAAAAAAgFggIwsAAAAAAACxQCALAAAAAAAAsUAgCwAAAAAAALFAIAsAAAAAAACxQCALAAAAAAAAsUAgCwAAAAAAALFAIAsAAAAAAACxQCALAAAAAAAAsXDDg4sWf2UeV8zlSxfNo0Jqpbl1vrTMbZD6OjNJ+qRz1SE5Yp4BAAAAAABgfBpVGVnN61ZI+zJ3EAsAAAAAAACwjaKMrFpp27lClteJJF/aJ7vfDpvFBQAAAAAAgPFg9NXISp2Q/QSxAAAAAAAAkIVi7wAAAAAAAIiFURTIuijn/2AeAgAAAAAAAFlGX0ZWXY3MNA8BAAAAAAAAB10LAQAAAAAAEAujJJBVK4nWpdIyRz1MDcoZeyIAAAAAAACQdsODixZ/ZR5XzOVLAaMQzmqSju1zpd48lVSfHHjxkHSdNs8BAAAAAAAAY1R1LRxQP+fthwAAAAAAAIDHyGZkpdVKc+sSaV9WI5I6IZs2H5V+8xsAAAAAAABAGyUZWRflyP4u6TypHjJqIQAAAAAAAHwwaiEAAAAAAABigUAWAAAAAAAAYmEUBbJqZdrX1H+pQTljTwAAAAAAAADSyMgCAAAAAABALBDIAgAAAAAAQCyMvkBW3VxpXVhrngAAAAAAAAC2Gx5ctPgr87hiLl+6aB7ll2htk13LaswzR590rjokR8wzAAAAAAAAjE+jKiOrf3+XbDrYJwMpMwEAAAAAAAAwRlVGFgAAAAAAABCEYu8AAAAAAACIBQJZAAAAAAAAiIURC2TNnJkwjwAAAAAAAIDCyMgCAAAAAABALBDIAgAAAAAAQCwQyAIAAAAAAEAsEMgCAAAAAABALBDIAgAAAAAAQCwQyAIw8mY1ScfOpdJsngIAgOGXaG2TjnWzzTMAAEanGx5ctPgr87hiLl+6aB5lzJyZkDNn+s0zYIyovksOLJotCfM07eopWXn4d/KBeRpPtdL2zApZfpt5mmXgjX2y/pe553pBC5dKx+oGqU/1SeeLh+TIaTMdI+Am2fi3t0jjp3+UTfuuyfi5QldJ24oaWX7rl3LgZ5el65KZPNpMmSgd3/1TqTdP04Z1fzltpc7533wm69/9wkyPoYq152g+j8bQ/otqVJxHo5cOZO1aViNy8rCsfP6UmQoAwOhCRhbKpqrlWZm6Z4NMMM8r5c4Zd8kLix+W336nxfw8LC/cNV3uNL/30IEl/ZrFd/n/XrnzLvu9DtxVbaZg2OhMLB3Ekj7p3FzuIJa+Yfsz6f5b9bNiYia4+I1b7GnqZ+M3zDTYvnGTNKr/Bvq/yHszl/jGRNm4YnK6HfVPx7cnSvMU84KyMvvRvQ9Hodw2mSwb77tp1K2z775bcUv4fTflJpl/q/2w/t6byKL0E/I8GhHsvxKN/b8r/fu7ZNPBQZE5i6WjtdZMBQBgdCGQhTJJyIR760QunJchM6USHm96WLrnzZYHJk0yU7RJ8sAd86R78QJ53EwZMVd+J8v/uUe+mf45Lr82v0K2Wml7eq7Uy6Ac2HpIjpipFfHpkM8N5Zdy7rJ5CEtzw03q3y+l9+Ogs1jdxH17sux66E+l8dYbzTRbfeJPpf27k8dlcLDZt01ulMZ7b5FdOkhkppTs0jVZ/1/+VVamfz6TpPlVGIn7AvbdrTepfaeDkSECb5e+kN5P7YcDv/misudtpZXYnkEKn0cjaCztv6jKtd/H8N8VHczqPKmuDcuWSNssMxEAgFGEQBbKZIbcOFX9V8FAls6c+mGdDmBdlV9/+KasdIJFbxyXX19VkyfVyQ/zZF6hVBel60edsvIHzs/hkm76Eq1LZHmdupk6+Jp00Z1wFLhJFugoRv+1gK51pktSQgdBvpTkm4OyKX0jOCid6qZ4QAdvrJv48UMHh9qdNvmNq01+pm6OdcBAB4lGQzbZN26RXfdm9l3mJv5fZdObf7TWtT4xUb5VMDNrSLr22fONy25pBRU6j0Ya+w/hHHle/41X1/ynm0ZdZikAAASyUB4L7rO6FF4/8Zb9vOymy5o77CysXx9/Xdb+7kqm3tSVc7L2sMl8mjRb1sywpmJUmy2tugZH6oS8sD9CXa1QhuS8yTzwuPylDJiHY8YU3V3MdBO7r8pMLE7ivolWd6hkX8DN7Tf+1KqrI/KFdP7ssuz+vTsbYUiOvPuZrP/ZoKz8Vblvjm+U6aYr1Ohzk7RawSHVbm+qNnnX1SaXvpDd+0ymx61/Kq0jnKlmZwnpLJzPrH3n1v/7a2pdB2XTaK4PFhMFzyPE3Dj6uyKnZL/uYlg3V1oXmklhzGqSjTvbpXtvO10TAQAVQ7H3YVI1436Z8FiL3HRPnTi3mUPv/Vyu7OlWH4sCzEioef5OJrrmkQtJuXboZ/L5Mb+2S8jN23bIxAt75MIeHVBS87d8VyY+0uha5h61zLd8l1m1YKVMXDpfJkytM1NS6vW9cu2Vbrl+1kxKu1+qt7W4XptPUq6seVaum2eRzFggv52nlpWvaLrzmtRx+ebRc/Y0p/h6nvl0plf3HZOk/8M3ZfnvrpipNvt3Ii+/8br8RP+qerp878475KG6SelvKPvV8jap5fkXcp8uL3xnnjxQoWLviUfbZNeiGvOsTzp/4O6iN1s2/nixdVNlef+wrHzZVbh1WpN0fF937VPSv6uV5kfnS8siXbfK+ES97z+p9z1vnqd537+oYu8Ll0r36gYZOKjmKRTImrFSpmx5QqrUsWsf19nMcT819zhr/vafSbvaUQO/GZT175qjPl3o9wvp/C+fBXStqZLEN/5U1s65SepNEGWg/4/Sk7wmZ26fLLvuFd+i4FbXLffvptwkbY0TZX7ixnR7DvR/Ji/8yq92jrPMKrVMp+uXujnqvxbw+gxnO21RCpabbKtbg9rE+b0O2Pyr7P69mVwMv7b49AvpPflH6coKrOjsoQ5X2+el2tM/eFZMezrb57RdlWrTW6TFs9/+qObLKgSt6+I8dFP+ItHOa1zrae8v3dZ/lGlqOZksNx0g1N03s6dZs/kIX1Tc91woKLPf/YR5r4Tafvd55CfzPmZ54mxPyP3gVsxxlqPUIu1Oe/mfR2XZ70VtX9T9V4b9EElx192ROI8033Mp1N+VqGol0Thf1j6s/i6bwVYG3j8hPb86Kme+qT8DqHZ5rku6cv5Gm7/nf5GZT2RQzZtU++6U9Oe83oeuY7ldfU4oovB787p2aZ9jnlilA9S6kXUNACgzMrIqLiET1M31lC1rvAEppeqeJ2TKnmflZp8MoqoFG9Q8O6Q6ax6Z2igTV+2QKS3pu9aMGU1y01SRodRZ++Z/j5rfFcTSqu5ZI9V+8+rlrXoiKzCllq3WsXrLs1Jt9ZVwmTFNqkIFsZQydDe8c9LN1v/9A+eDg0GfXbU/gNZNq0itLKso/KJ58pQriKXpx+UOUA27P5ssiWmzZeMzK6TdHcSyDMqZMB94i9A8r0H9Oyi974YIfNWrY039Zx3XvoK7tZ759Evr/9Sg6zeXhiSl/1e/O2NNyGbfxO16yHvz7dSAWutz+vjRQa3u79o3Uu721I9zbpTUzenG9DL1jZdDzZu4RXb97WRpq0ghdUMt3yoA3R9QM8f5vbpJO1Z0EEvfUAa0xa03yfKHanzraoUKYgUppT0n2/Pq7oKedVX7f1dWF8FEjX11zVvU28nUSGQX1q6SFh0ssG60tRulcc5E1VZZ0x4qT42tIyZDqP7eP61QUf5cdu2w/EEsX2qfzTT7MMx+sEU7zsqq0HlkibrfR2D7Iu2HqKJed4f3PNKi/V2Jyh4teFebOxil2uXuudL+/TZZ+xdmQg7X33PPSMM1at7FskvNu/HRENlSpz+SXr1hc24vX60/AADKgEBWRdmZIjoYpbObru/dIpfWPCkXrJ8tcuXVpLrxrpOJf7NSfRRzsYJKdgBKZ1C557mk5tGqHvm73ACYueGXe//OzmC5kJQrO7Zklvee9SqpqsueUa3nUp1XY6+j/XqzvL32Ok5YlbW8s92u9dpjZ8Fc+LlrmutnW56ss5C+fovdrfD0VW/GlMeVz8T+0u9mub2sAxBOkj+/c4GVtSVXU/L3b7zpKub+pqz8wGR/xdltDbL2rxdLo+cDr/Gvl8v8rXutTPua/v9TOR/iW9qqOvv2aSgVsBY6qKr/9wlk9btvNNK+lHN+XUOMZn0DZN1I6W/xM7WENv1M1xFSN3OewIifG2V6o6lH9OkX0qm725n30LWkNiWzs4fUjaK6OW3Uy1SvP+CpX5SpPTV9sv1qP0eSdo0jTXcdK7Z7WOJ2dfOotvdAzroZk81NbN4b9AC6S6K6odRZI9lt0fkb+4Yw5ybz95+5Xme65+lsifQ0109ONlYp7XmjLFfr0qgzs9z7/k2zjKwugjPNseC5oc3m3OCqo3SaJ4CkjyWdAWav1wG9/9T7L09kTVPbs6AcAQrVpp3WKWQXdu9ecYu0fcPzl8dHpp6S+2eT2W95feMWK/ihzyNvW/7RdMHSmSv2tNysIL2O4feDJcpxVmYFzyNLxP0eaftK2H+WCPshoujX3WE+j5Qof1eian5qhSy3/i4PSrJrX7pG5abnTkjykxqpv83JyPZKPNpo/z3XGdXPuWtb7pNNXX0yoOYN91XkRXnnxKD6/1aZFrLo+5EetW72RY8amACAiiGQVUFVLX8nE61MER3g2SBXjvW7brT75XrPs3Jpxx658o/uQM/9Ur3K7qx1fe+TcsnTDVDNr+d5VX9CqJObGr1fUTo3/Fam1Ktb5MK2Z+X6WefmXy3vlZ+73svHhV655umyqJZ3TC1PB8F2bJDPAxNiggMJ5VEtt1sJWVflf31mTQigfq+LvlfAA3V1VtfDbx4+Jr+44g6mXZEP8sTW4kN/INb/2x+WN7k/9P4qXHeC8CbLdCu2Oxjqm+sq1fY6yPplUAGSghlbAaNIfeoz4tSUiWInLOqbIN0VxXX2XdJ1hEwB7wIaEzdZ3U5WqtcfueQ+K9Qyc7oj2jV17O5pn2V1D8rUnsrbnc9aN/vGr1BXr1ymzpO6QX4nIADmZB5F8vvP1M2oWi+ftjjy7mUTXMkO8kRXcnvqQMF/ueyZrz8dBFJX3nRbqHU2N975RykLvsHNBB2H5J1+O7jgnuZbi6cER36lgxg6kKeYLJ7uv50sG+8LMVphkZxjRnfp8rblNVlvBUIKBBZC7wdjmI+zXIXPI0ek/T5S21fsfoiixOvucJ9HtiL+rkQ1rUla7tYPBq2ug7uTmQzm/vNHZfePDkvyEzMhwMC/9GaVBbgo/clDsv5HneFLAVhqZPp087CQ02rdNqvPD6vUMipWAxMAMN4RyKqY+2XiI/oGPClX8mUknX3LU3+qqqXFKpo+9OoWuXLMnpZtKNlrvV92ZpV9w68DYFvkUk/wR6ncG/5+Gbqg/pv6hFSvuV+qcro69vvUyHIxgYTKFXofBVLHc+pnjT36m1v7w3Lm6FGPy9ytsDgJqbKCwb2Bx+CEuXbg1zdjS91wrdQ3YZ4bS5Ol4FdXKZ15FDTimLp5MY/y6v8sZECpSr7lZK28nqc2i+fGtcy+cZMV+MnbPa5E6eDdlCpp/sZE2fjtydKxYrJVnN6u7ZU/4yy8UttTz+df38bpTlROfplc7mmVWGa/DuRZWTVOFt+N0niv3d1yY8EMrfIKDoJE2w/Dd5z5KOI8irrfh3/7hul8KPG6O+znUbF/V6L6Wo3dLu8nfepfaZcD26X/t31WwLp+0RLZ+OhsSUyzp0fRP1CRSCAAACUhkFUpTpbSe+8WVeTcyT75IlnsLaW54ZekfOFbCF69d+N8a538bviv79FdD1NWDa0pW34qU/c8K9Ut99vbUIAdSMiTMVOyK/Lx5/r/SfLnt1gTAqjf2z0Qy67/swqleo0iyS6/gu4jzNR9C872c4778hx/6ZpHJd74hJ9f3XhaWT1Dct73Bq7y7NHsvpTej/1bWEt3pbm1KlLmTkLfdOtRFb9bI+0P/ak0JvJ1FSrFcLank+lRKHjgrNPoYo9UqG68f/aZHLCyWHQdofLVWXKOGau7mztLSNdcesgeQdEvAFGK4TvOcoU5j0o1kttXSeW67o41ian2hWPgQt6UT3/nj8p60/2wcZGuidUu3T9WP8/o2lilBbYAABgNCGRVSsHuTn6cm/IBGQqRAeV97+CC1478XbT65fqeDXJhR6Z214RH1ljF6H2Lw6eFXOcSfWQCSbMm5Sl+VX2L2CUcPpePs5OnJk2Sr5uHiJGC55Fz3AdnbCGfm8QaxyEwE8JwCparm+aZ1oQifOMW2aVvuvU92adfSPI3n1k1fjaZOj9OF6U4cjI98navmlJlatGMXLAyr0tfSNevLqfrJulC2VGClTnS3c9MTa6/NT+65pKe3P+Z7C964IA8RvQ4C3kelWIMn0eoEKv7YaesfG6fdL7RJ8lPBmXgtkxgq+Op2aHO9URJI28AAFAZBLJixynMrm/uXZ9cF9xndUksnLlSIOB01tTu0kXad+yR6xd0QMunsHyaCSQUmXlWrA+uWilZ6gPVNLnTepTrzml19oey1Hn5hTVFCVEAPlQh+TiaNjlkMdfhdlnOWWXeagoGRQoVeq8qeNxHM/xZDpWs3RPMqSeVNCPaBbr0hfRa2Uc3Sct9eYI2OZzsmy/tYtH7PpPd735h1fjpL7a7ZFFBtOFpTyfrqD4RXGPKLgCuRCmUP4z6Pza1s8rKDo553/dLKwiz6Vfl7MpaxuMsgtDnUWQju33DZSxkl1VC/dQS+4uevyhHfnlIdv+oS9br2pfP2bW19OiFa8OMXGgZlHNjYFwbAMDYQSCrUgbsG+uqR75r32j7mZHddc/UqlIfiW9aYE3I4S4gf81VQ8u54Q+uUxWUsXW/XRfLPPM4+5ZcOaTHC6uTG+23z+V0oay0s+fl1/r/SbNljW9Qbbqs0aMKKr8+7/605RSAnyQPTfOLZE2XJVa0p1Ah+RINS0ZYg7Q4H0qnzZaN359r30APk/pF86U53V2hNk/XhYty/g/6/8KjIOXLIqxqedYa3VMrLvMxWPpmPnGT/+hmU8rdTewLsXsC3yjLH86TCTOlQJe+KabL0d/+mXSEDjQ59aTUOhTMjMkUUa6/9xZpCwoSTbnJfyQ8XQDbVcA5o0rC93AJE5wqU3uG9fsv7BEVA0dvMwXAlcoFOZQQQb7mbxeogeXUKSoXa9RCsUaO0zW5dNaQ/XPZCsKUL4jlUpbjTCkyaBr+PCpRubZvuIS8Lg3/dTdAUfu98pw6V3L37f7tMm2yTPcbaVhJNObJtjp/Sna/3mc9LBwkq5VvzdUjI4YbZdimPn/sbJfuve3SsW62mQYAQHkRyKqUs0flCxOUqt62QSbMcH2kUI8nrHlWpm5Zk9Nt7/oJ67ZIJqx6VqqtvgrGjPvlZjXPFKuAfEqueUY6VB9jC43sZjJXhn5z1DufLi6v62Jts5fn+aipllltsr8KuqdFbnatb5W1viuDg3hFOyd7PrS7Fz4w72F54a7qTGZW9XR5YfE8eUA/vnpK9nhiGlfkJx/a40An7nhIXpjhCmZ55kvJqxVJyHICaXXyH++a7lnnx/P0kgwr/UHXqF+0wq6D8f3Fdvedijolx943Dy0N0u7U4fjxCln7zeBveo8c1x+ia2T+fWG+Da6TiY+5gq36uNz2U+tcuP6evW+DMraK5so8al/hre2TUDfmHU63qDI6kvyjvQ9v/VPZpZbpDQRVmeXWyK5v23WF/DQ3mi5HSt5Ak9uUm2S+nidkppAuEm4PY3+jLP9u9kh3znreIssf8lm+2ra1fq9fUSPLvZdAH97glLfeki567b1BLkd7hveF7He65D2k28QVINO1oNTyrePl0z+WtxtdmjMios6Uc7WvWra3nfSocHYNrA7ruPa2mdUmpm5V8mSeIvlFsOse3SjTb/cuq6JKOs60kO3pVuR5VJKSt294hb4ujcB11yvCfh8O5z+SXmtUQvW39Zmlri+KVLs0LpWOoL/z05pkbdti2fXjNrv74DTv39mE/qKrrcF6XLD+1qyvy3z98fLkx6GP70RrozRaXxCq/T6nUdoKfGEFAEAUNzy4aPFX5nHFXL6UO/zuzJkJOXOmIt/Jjh4zVsqULU+oj5r+ht77uVzZkzui4YQ1P5Xqe8yTHCm5tmODfO4J1iTk5m07ZOLUpFxZ86xvFz8re0Xf+O99Mmc0ROd3gd7bI5f2vJWznjZn2eZpFr/lleLxpoflh3UBFd2vpuTvDx/LdCt0ebypRc1nnuS4Ki+/8br8xCeQdeddD0v3HZOk/8M3I49a6LxHjtRx+ebR0nP1m59ql3ZriO4sn/TJgX+5VZYv0t+mKu8flpUvn7Ifa+rDbocrayvZ1Sm77ThqEdQH4h8HfJj+5IRs+tHRgJtiNd9eNV9KvWZz0GuUBRtkqsm68rLPg+uN+tgVn3OiBOqmv+O7f+qfnaJr03x6kzQmvrSGic+uh5O4b7LsuvdGGfjNYMhRC418y7T4L8/R/G1n1DIt/2sd9rrqjJnCr82okjZ90xyYHfGlJN/Uw+ebp4rTJr5Ue+raPu333qTm+1fPfB5520e9x3/JGlmt6PZ0tiu47fLtW53t1G5l5fjQ27jPu37O/nJvs/P+haZlC2zf/s+8I6ipNtn4cCaw4GdAj7YZYtS1fG2RVnAfqOWptuk9+UfpSmcZRd8Pge2ghT3OlNDtadivD3celbLfy7V9mvNewfuvtPPBUdR1Kd/xorbP77o7IufRcMv6O+2h/sYn/7VBGu8elAPPdXlGNkw0Nknrw3OlMSBjy5L3b7Qt0domu5bVSPIl9fngbTOxAGcex8DBfbJ+f+59AAAApSAjq5LOdsulNfZogJ6PeReScm3vFrnkE8TSru95Ui7tTZpuhsaFlFx/dY96P78b9tIKvQ/16CLve+Ra1noO6WVa6xkUxNL65fNtW6x53YbUNl7ZUd4glvaLo6/LyuMp6fcMInhV+lPHZWVAEEv7xdGe4PkCgljl8sHv1Dp/qJZtnluupuTl856ViezIy/vkwPuD5pk2KMk3DqsPqIek64L1NXMFnZLdzx3OWr764PqJWod/yfdN7ynZf1DNUzdX1rbmyco69qx1/mR4zwP7uC7zQAOXrsn69EhuDlPXZ98f5VyeQEBkepn/ZVA6f/OFurk30yxfWsGFTTlDvXvpLKSkmW9ArWehG2qdeWB1eVM3iO8UfK2bPcT8pjf18rztM9D/R+lUN5nZN4r9715Wr8/aLrVcp9bPEe+h48/sE+8y1bZa7/PH3EyBEtuzWEd0sfTsbXSWlRXEKjerffV2mucW3S593rbSbbJ736DPetrtqAuHhwlihXbpC+nxnEO56m+9SZaXaaTEshxnSuj2tEQ9j4pXru0bTkVdl0biuutS3H4fRtbog9l/Y52/8b1y7s/MpCz9SbvQ+6YuPXKh9+AY0F9yde0rGMTSXzi16oBU6oTsDxnE0vr3JyXp/UgIAEDZkZGF2EpnOpUpswnDrVbadq6Q5XWDcmBrl3SFrr8xkgpnKsTCN26R7oduyptNgWjSmR0jnckxosx5In+UTfuCuipWSfO3a6yMmtgeh5xHw2SMXHfLTv0NfUb9Db0tNyOrHJrXtUv7nBL+Pi9cKt2rG8jIAgBUBBlZiK0PfvehXQC+bp4caHLVn0JMXJSuF0/IgKgblO1L/YvZoiKaG+wR0Ho/5ua73PrfvWYXgE/cIh3fdtczGkdM3aiB/nxF3YfkTFaGXdxwHmGs0t0D2+eoc/jga5G/ZErU6zS6Qel9lyAWAKD8yMhCvM1YIAfm1WXdLAbXvMIotHCpdKxukPpUn3RuPlTRblilGwuZATfJxr+9RRrHdcZQhekC1Q/dlFXXZhxlk6TrHemaaZ/J/t8PeQJaiSk3ybcaJ8pyM9pfTo2zWOA8Gj7xvu4mHm2TXU6tyoLU38EfhP07WJmMrHSNq5OHZeXzrrqaxZjVJB3b50p9Ke8BAEAeZGQh3s4ek+VvHJeXU+WpN4UR8PYhWb9VZ2YpjG5UcYn7JlrF+ZN93HxXzO8/86n3M45cuiY9VuTKHilx19/+mXS7fnbp0S11EEvXIFLtFL8gFucRxraByAGoWkm0LrWDWPrLKYJYAIAKISMLAEKjVgsQVuIbE6V1zk1Sd+uNnuw0Z7TCd7IytQB/XHf9VbZGVjT2iMR1Jw/LC8+f4vwGAFQMgSwAAAAAAADEAl0LAQAAAAAAEAsEsgAAAAAAABALBLIAAAAAAAAQCwSyAAAAAAAAEAsEsgAAAAAAABALBLIAAAAAAAAQCwSyAAAAAAAAEAsEsgDkmtUkHTuXSrN5GleJ1jbpWDfbPAMAAAAAxN0NDy5a/JV5XDGXL100jzJmzkzImTP95hnGhlpp27lClteJDBw8LOv3nzLTY0gHcrbPlXrzNC11QjZtPirxOXKdfTIoB7Z2SddpMzmfhUulY3WD1Kf6pPPFQ3IkzDyVMk3th+/77IdP1H74UeH9oANZu5bViJw8LCufj/HxCAAAAACwkJE1Gi1cKt172wv+dLTWmhlGiVlfl/l19sP6ZbfHPptnXNIBPB3Ekj7p3DzCQawy6N/fJZsODorMWTz6zhcAAAAAQNEIZKF8Tn8kvSn74cDBj+WI/TCeTh+V9as6ZWX657Akza/Grlppe1pnP+nsrUOjY/+dV/vhB6r90z/F7wcdzOo8qYOrS6RtlpkIAAAAAIglAlmjme7G5gmmeH/W78/tsjmyLkrXZmfd6MYVN4nWJaZb6GvhuiDGyJHndQCsRpY/3SQJMw0AAAAAED8EsgAos6VV15JKnZAXRl2AtBxOyX7dxbBurrQuNJPCmNUkG3eO0q68AAAAADAOUey9QprXtUv7nD7pXNUr09YtkeVzatTUQUm+1CW7366Vtpxp1mw2XSNrdUORhcVNUW9x5qlV67BEWtQynELZAydPyAvPB79fQi137WMNUm/qXPkZOLjPZIJlCrv7ybwuW+nrKbNmS1tLo8x3z5Pqk56KFiafLRv3LpbGIvZJYmGTtD42VxrTbTSoti2ptu1U/vkDtq/3lV7pejsoyFSrljffs/90O/b0HBVp0cdigWLv5pgL3m+GU3w9sNi62r/PqP17m1rec2p5581kI/Fom+xaJJnfTVPb+m21rXe7tvX9w/LCy0FtpPbDj9V+CFns3cMp4F9E4Xf7PDZPrC6XIQvmAwAAAAAqgoysirpVWnTQxgpYaTXS+FiTtK3LmrZ6afkKo9fVyMxZ6mZfLbfdFQjR6ufMlV07/btWNa9rk126yHeeIFZZRVxPPQpd9/bFVvt55qlrkPbtoyVrRgfr2lV7uoNYmlrnOYtl1962gFpNaj61H4K2b/nqFbLRN5vIDg5m7z/dju3b26Tla2ZCHs3zGtS/g9L7bp4gVpnpoFb399W2uoJYmn5cVIAqLKeG2xwGIgAAAACAuCKQVVHqBr1OZ3HoulH75IC+ia6bK8ut7BjXNGmQBX4BCvXaXVkjFTo//gENTQd0FkujXu5L+9L1tDa91Gf/2q9r1cKlVjDJyjjxzHNCBqwX6Mwyp/aVE+jI1MNy/1gjxIUSbT136e5vOovt4GFP/TA9n17X0VDQ26k1Za2na9tWbj1s9neNLN/uE7xcON8KYOnsq86trvnUcdJp2tUv6NmsA6M+y9uklpdM6WPQelketTLNCnZ9KueHJduoRqZ/W+3LRWpffqK29Tm1zuli7vtk068qVV/torxzQrfjrTIt5DFypOeEakP78VisHQYAAAAAcUMgq8IyN7/OTbR32vk/WJPKSwdCVnV5uqH1v33IGrlNq6v3Zi0l6m+1/tddHL3zHJX1VmApINBWqqLWs1baHtNZQ/Z67t7v7Xqm57PXtUbm3zeCWVmzmmStCbbpbmi73V0BT5+Srs2Z4GVLdvaY2oZNWztl/WbdRdI1nzpOjpiR93KCMGp5LVbXt9zl9avl7U4vL5/JMl0Hu1KDcsaeUHGNdzfIwBv7ZOWP1Lae925rf1Z3xPKrkenTzcNCTh9VbWgHBkff4AoAAAAAMP4QyKqw1EDuza972pmBPBlMeUYt9NTU8hiUA7pWlHnmlndZBWQHv0pX5HrO+rrMt4ItJ2R/0La//bEk1X/1c78+ciPTTTfd5E4mA7J3LkrXK3bWmd969jvzzKqV5oVNsnFdm3TsbLOy8OxaTVlBmILLG6XePyzrfzn8gaH+gU/NIwAAAABAHBHIQvrm3uq25sn2mS0bddF5xS8gN6ycgE2e7pbduhi79eKR42S3DQxctv73dW7Q7rKp64RZEzJ0gXhrlLztK6Rd19jStbLU64KEWt4oNHAhXusLAAAAABgdCGTB6tJmd1uzC6anA0O6hpWefPJwcBYUykfXAHMKxKf6rDpgulbWJlMvy+lyieicwB8AAAAAIJ4IZMEw9busfx2mqPrz3npUI8LJYjp5OKebZc7P5qMjvr719ZPNIx9OdpmnJpWT/WaK328+ZNUB07Wy+j31svzlXV5Bl+WcrqPlkyE2Ng3KuXPmIQAAAAAgVghkwYxaKNZIius9QaHcouoj5vRH0quDLXMaSxuVcFqTbHymXbp/3C4dj0ao+1Ug2NP/rj16YvB6ZorWD5z4KLdtU33yjrtAfFqtTDOP3DLLuz13FERtlinknpcz6ECI0fzOXxardvxt/u2QeHSJLL/NPKmkgOXnVyvfmqu7aRYzOuNsu6vnXnW8rJttpgEAAAAARgqBLJjuVjUyfSRH+yvIKZJeI8u3t8nG1tmS8ARdaqW5dal07F3qH9Axmr89VxpNoKV+0RJp84sO+TJZS9Zog2rZ1jRl1mxvXbHTR6XH6gJo1nOhq03Va9t2rpDlVmCpT3r8RsGrmytr3e+vtiuxUG2Xns8q9p7FCfDpbqE7vTXOrPmc7qEFHDkedsRH1Q6f6P/V8p5yree0Wml7qk12LQqu51UemeW3POpevtoPhfalM2DAyY99Bxnwk2httLt6KvWlBlEBAAAAACUjkDWa5S1srn7KlCHiZPU0Llvhvxz107FzqbS5gzIj4e1Dsumg7gJZo9Z1sexy1/Pau0LalzVIfUoKZxVFclHeOWF3v6zXy3aWu32xtLd498OR5/fJASu4pNZztatN1WvtINagHNiaPWLjKdlvbVvW+6vt2rVabZf0SedBe7RDr4vS9eIJOyurzlvjzJpP19oKU1sr9IiPanmvm/W4W63nj9Wy9M/3V8jyu2tk4I190vm+/evKUPvhX0w7LXIvX+2Hb+c/HxL36XYUSR4/ZU8oWphAHwAAAACgkghkwcrq6TlpBweC1Nc1yPLVK2TjQjNhhPTv75KVWw/LAbW+VvDGkTL1vDYfkq483caO/OqEJK2MHpGBN16TrvP24zD0sjcdNF35HKk+OXA8ewS+i9K1uVM2vaSWZQW0HGqdT6p1XNXlu47W+7+k3t89j35/UzPriGfBLqePynrTJhmZ9tg/kH/f2kwgzcoIKxCsSR6STV1qPU07Wj7pk87nOmX9Ly/KmQthlhdd/y9VO72RtR/U8g+8l28kxNnSuqxGteeJogYu6N+fzNqHAAAAAICRdMODixZ/ZR5XzOVLuV2oZs5MyJkzo6L60jhXa3d3kxOyKbBIeq00r1th1dEaOLhP1vt1icMYYI6FOp0x5h9si6vmde3q+C1huxYule7VDRz/AAAAADDCyMga70zdIN/C42kX5UyorB7Em9NNUdf3yl9rLE4SrW0mCPta5OCcXUduUHrfJYgFAAAAACOJQBYs9cuWWIXJs+sjJXSB8nVtskt3ywoqUI6xQ3dT1N0bneLxZnJc6SCWdeyePBw9k2pWk6y13iM5prLUAAAAACCO6FoI0+3KPAmiazW9mL/+FMaQWU3S8XSN9Kh9fiTG+1wHstbWJ2X981EKvNeq+efLWmsQgT7p1HXKzG8AAAAAACODQBYsiYVN0vpYg9TV1VgjuzkG1A187yu98s7bF/N0PQTGotmyce9iqTt5WF54/hTHPwAAAACMAgSyAAAAAAAAEAvUyAIAAAAAAEAsEMgCAAAAAABALBDIAgAAAAAAQCwQyAIAAAAAAEAsEMgCAAAAAABALBDIAgAAAAAAQCwQyAIAAAAAAEAsEMgCAAAAAABALBDIAgAAAAAAQCwQyAIAAAAAAEAsEMgCAAAAAABALBDIAgAAAAAAQCwQyAIAAAAAAEAsEMgCAAAAAABALBDIAgAAAAAAQCwQyAIAAAAAAEAsEMgCAAAAAABALBDIAgAAAAAAQCwQyAIAAAAAAEAsEMgCAAAAAABALBDIAgAAAAAAQCwQyAIAAAAAAEAsEMgCAAAAAABALBDIAgAAAAAAQCwQyAIAAAAAAEAsEMgCAAAAAABALBDIAgAAAAAAQCwQyAIAAAAAAEAsEMgCAAAAAABALBDIAgAAAAAAQCwQyAIAAAAAAEAsEMgCAAAAAABALBDIAgAAAAAAQCwQyAIAAAAAAEAsEMgCAAAAAABALBDIAgAAAAAAQCwQyAIAAAAAAEAsEMgCAAAAAABALBDIQn6zmqRj51JpNk8BoGwKXF8SrW3SsW62eYZxr0LHC8cZAABAvBDIGmYT1jwrU/f8VKasud9MKcKM++VmNf8UNb9+D/t9VkqV+XXZLVwqHdvnSr1+PMuaMs7VStvOdune2y4drdz0jE3OPm6TtpKPeY6XvEJeX+rnLJbuEQkysP9GlQofLyN3nAEAAKBYNzy4aPFX5nHFXL500TzKmDkzIWfO9Jtn48SMlTJlyxN24OnCz+XStm4Zsn4RgnvebBeScmXbs3LdPC0L/c23ddPQJ52rDskRM7ks1A1J9+oG8yTYwMF9sn5/7rEzYtJtolWgXVCADiyskOVyQjZtPiphrx6JhU3S+liDNNbVmCmDkjyYlP37T/m8h1lG3aAc2NolXafN5ChG/fESrT3Loojri86W2bWsZvivB5Xef7G7Do7t42XEjjMAAAAUjYys4XT2qHxxQT9IyfXfHA0fxJKE3Pw3dhBr6L09cmnNk3LB/Fzam1Tv9bPyBrH0DcvT+qZB38wTrEk7/ZH0puyHAwc/pl1ioHmdujldPdcVxNJqpHHZYtlV6S6zHC8Biru+9O/vks6TIvXLlpQhS64I7L9RYniOlxE7zgAAAFA0MrLiwMnGem+PXNjzlplYORX/ZtrJREiNwDf7iLHiMkKc49jOwHpN9qtj2Zpn1mzZ+PRiaaxTj3OOQbOMcmRkjXrFtWe5RLu+qH22V+2zsXTNiN11cDwcL2PwOAMAABiDyMiKgarG+VY21vUTlQ9i6Q/yrfrmX32Qf4HuFRhVJst0HXwKxRzHSvKlLtntBLG006dk9+bDktSP6+ZK60Jr6jhUTHuWS9TryynZf3BwnO+vkTYejheOMwAAgDggI6uSFmyQqasazROXgvWx7pfqbS0yYWqhu4akXFlT5tpYJkug0LffzevapX2OrlfSK9PWLZHlc0zmiw4avF0rbTnTrNlskTIRsrMBatU6LJEWtQy7ho3IwEl1s/N88Psl1HLXPtYg9XmaNbPdTmaOPT1bcPuUvp46Y6itpVHmu+dJ9UnPi4fkSJkzhOxsB8lkH/kt++Rhtb6nctbXrj2lu+2ZCWpfD5xM+r7Wraj51D7rKLDP0tR6rlTvYQlzjPm+xtnvdkbWO/pG+unGTNfElDqeX3lNHc/Z+z7q8eISeb/Xqjadr47tW1U7mfUMatOo7ZmmjufW+dIy1/0eZlk9almFjk/T5sVl1xhOnSTf9SpVqfsvQruEOUazRL/ueq9L+lgLdVxHPF7s9dRB5E7vtd/DafM8da9G4nip6HEGAACAciAjq4Kq6pzbUa+hQvWxZkyTqoJBrMponqdurNRNUO+7YW4abpUWfSNi3ThpNdL4WJO6mcqatrqMtYjUjddM3TVMLbfddcOv1c+ZK7t2NknCPHezayWFvCErh4jrqQNL3dsXW+3nmaeuQdq369HTas2U8gtctvrx3mTrG9B2U3vKTLKo+eYsll2BI/5Fmy/KPrOPY5GBEx8FBwjODcqA/l/vK2uC1/QWdcyo9vDU11KPG1evKPvoZpH3uznG7GPbtZ552jT6OWCO52XZ55FZ1vY22Vjg+Czu+pLFqVk15/bK1jYrWuntUpwSrrvqGGnV18Iijusox8uRnhPWuaXXy+86Z5n1dZmv3/tkcP2xETleRu1xBgAAAAcZWcPJZGhd3/ukXDlmphV0v1TvWSMTih3lMJIQ35Abzjfu+ibDzuZx5vWf5vlm3slEyCP3m3z3+2tqGS+9Jl0mg0BnW+mbeS1n3vTysudpkrWrdRHhwtvrKFyvpTzrmT2qnpVNpn5nFzwuX+0mZ3uSJ/ukcY5adkq1xYu9cuS0s221kph10ZNR4sxjrafatnQWh84oenqx2fbcNo06X8bskPVrAo67HM7r3G3q3X86e66n56jJiNJZN0uk3dqGQu9tK3y8KJH3u2kP/VDttwOv9KaPM3td50vLsgZJBa5n2Pa0pfefdYyofZReFycjTG3DiXyZM07bhj/fstnr4MogrLAw+y9yu6T3e7DsYyz6dbccx3Vxx0uhrCz79/muZyN3vAz3cQYAAIDikJE1jOwMrZR8aaWBhKSzs/T/F85XOIilmRooqUE5Y08oaODga+aD/kV558RgzrTzf7AmlZe+YVylbjDSN+0i/W8fskac0urqvdkPifpbrf91VxvvPEdl/Ut96lGDLKhEPZSi1lPdtOkbXsXqEuQKZmh6Pntda2T+feXM7rDpIJa+WV+5Wd+Iu2+4vUEs3e1mrXXDa9+AeroinT4lXZv3yQFrpLcGaXFnoUSdrySDcu6ceRiBFbx43rnZ1y7Kkf1dsknX0FEa55UjKyv6fk+0Npoglg4sHPIcZ/a6qnm37gsISkQ3cEIHOs0TizpG9Hpu7swTxNKKv774q5Hp083DUSR6uxSvlOvu8BzXrqws3/ebLQt0QE5dI9/xtJnbSB8vo/M4AwAAAIGsYZSQCfeqT+UXeuX6WTMpjHo7kDWUKmam4ZMayL1Bc087M2DfHPnSN+CrOmWlz0/wzfegHNBZD+aZW95lFZAd/CpdkevpdLNRbbI/aNvf/tgqUF4/9+vB3XWiOnk43M329Bq769vJZECmwkXpekUHXrLWM+p8Iya4O1P/u312l8SvTS59PSPv91r51lwTGHwxT3aMJyhZGme765ctkY2tsyXh2320svoHPjWPRo+S2yXCdTD6dXeYjmst3UWvMbfL8MLbrSBs3q6/ZRD1eBmNxxkAAAAyCGQNmxly41T1X5GZVRPm6o/7KfkiWcmP+2Obc1Ni1Yxx31Dp+kKma4/fjeGwcgI9dXNl19526fb9Md3IKmBg4LJ5lJ+T3Zb39T61p6LOV5oKZ1SUYz0j73dnBLlP5XxgRkuZnT4q67eekGSqRhqX6dpPZv126hpQIxPYGhXGWruU7fxzgtPZ2YROFmKf9JQ5Uw0AAADjA4Gs4bLgPpmg/rt+4i37eSgJqdLBL3V7PzQ6E7LiId2dzy6cnQ4Q6ILHevLJw8HZMIihTNeqvJl2TjbUcAaD4u70Udm9uVNWbt0nnQf7JJkalAFdKNwEcDrWza5oNp0TEB11RrhdRq23e60uw/XL5mcKp4co8l4uUY+XUXucAQAAwEIga5hEqo8VMYsrustyTncFKds38qOJ3dXG2/y6uPZh2fS8ty7RiHCykfSQ7z5djDw/IYfqr6T6+snmkQ8ny8intk3U+TxCHJ9Hjhfuppi4TxdRV4qtwRN2PcMoeb/fKtNKzfiJcr6ftmtw7d7cJev1um09LEkdsJizWNYG1jgr1/WltNpnFRWpXUaJMp5/GU4Nr0wdQvu8G5QDPafsCYFG+ngZxccZAADAOEcga5hU1emvoIvMrBrWQu+ak8lShpvj0WThUmv0rANbO+2by/RPbnHtEZOvnkwxpjXJxmfapfvH7dLxaPlvnNN1dALXM1O83F3/Jup8/kIcn6aulO6y1+pbyH+2tDqjtL3iFyAK6pZYzHqGEHm/n5JjVpZhjSx/uik422dWbYhMoHDne2Jhnqyi06dkt1PjLDBYWer1xakLVkQGXYXPB630dhlepR/Xxe2//v1J61xsfEwfp2Yf5i3y7hiB48USdT4AAAAMFwJZw8LpItgoE1sytzxVC+6XCTPMEx9VjfOtQFZx3RFLY2eyVGZkvJFidxOpkemjepsy9WSWb/erraOHyF8qHXuXZrro+Gj+9lxpvM1+XL9oibRNsx+Xzemj0uMEUPR6LnS16azZriH+s+rfRJ3Pwxu88dY7U+3jfk/12t3WaH+6NppuT1dAR9dG22m6leYpst64ul069H4wz8OvZzGi73dnVDirvtbOpdLm2X61vQvVfNtXyK51QaPQFdGeetTJ1Ytl1942u5uc+r1bwlVvLl8dtJKuLxG6pFX8fChTuwyfGnM+RDmuizn/3E7Jfj0iYl2DfKvV3odhg8DDfbxYhrHrIwAAAKK54cFFi78yjyvm8qXcD8YzZybkzJmS8xlio6rlWZnyiHWn4HF975Ny5Zh5kmXCmp9K9T0pubZjg3w+bDWy1I2XLi6tR9LK04WteV27leWUfCkzslaitU12LaspOE1nSHWbm7u8dHer553uJ7XmZmtQDmzt8h35zlmWNby8+2ZM3Wx2bJ9rd5sJMJDqk95XeqXr7fzBicBlpJWwnorzu0BqPfVoiP4j/6n98pTaL3ebJ7r7znNqHc6bpz4Kb48fZxvN0xxB2x51Ppe8+7JPOld5R4psXtemjtOA9lRt2bk5e2TJzP4bSNVIve+6hlhPI2z7Rt7vBY/tAutaRHsmFjZJ62NzpTFw/ykFrhthry9+nDbyXEsKKPZ8yBZm/0VulwjXwejX3cy5N6C7OkY9ros8/zLMfrce53tdtuE9XrSo8wEAAGD4kJE1TIZ6/kGuvKf7EDlScv3VPXItIIilPk6PUKF359vzuaO/pktYpz+SnpNBw9Hb6usaZPnqFbLRtxva8Onf32XV1Tmg1tfKtnGkTD2vzcFBLO3Ir05I8hP78cAbrxV10x7eRena3CmbXtIjtZlJFrXO6qZ706qgm+Go87lYI8TpukPe/akDkQde6s25OT7yfJdZnvv1mbYMvJlW7/eCta591o2/Y+DkCekMGcQqRuT9rttjlV1g3L2eodu0iPbsf9suaJ7bns7r94UINkS9vpiuoKngDDo/w3E+lKddhsug9L5YwnFd5PmX4WRzKUVlOg3v8RJ9PgAAAAwnMrLgo3BWUXyYbZF83+jXSvO6FVamQ3GZSUB+YTJ6xp/iry92JtJYuB6NlJG/pkffh8N3vHCcAQAAxAMZWfBxUbpe1PV3dN2e/DWZRj1T7yR/TZaLcmbAm2EAlMPM+jzdBcet4q4vOhhoB5lfI7gQV7OapEXtw3BF3rMNz/HCcQYAABAfBLLgT3ch0d1PpEHad8Y8mKXUL1tiFRjPHl1MF2NuW2dnzeQvdAzkoY+jrONLF1vXN8ZWd653Oa48Ql5fnIw2XSeKjLZ40jXEnLpa/iOEhlDh44XjDAAAIF7oWoj8dHHfp2uk58VDciSm31I7BZLz0jVe8hRRB/JJ3wj70LWq1qcHLYBHgeuLbte19Unar2TD3LXQpyh8Wc6DCh0vHGcAAADxQiAL44I9sliD1NXVeG+uUvZohe+8fXGUFGNGLM2qleaWJdIyx3V86ULtr7wmuwuMhAlU3jAHstwjMnIeAAAAoMwIZAEAAAAAACAWqJEFAAAAAACAWCCQVSE64wwAAAAAAADlQyALAAAAAAAAsUAgCwAAAAAAALFAIAsAAAAAAACxQCALAAAAAAAAsUAgCwAAAAAAALFAIAsAAAAAAACxcMODixZ/ZR5XzOVLF82jjJkzE3LmTL95NvaM9e1DDMy4X25+rEVuuqdOqsykofd+Llf2dMuQeR7Zgg0ydVWjeZJxfe+TcuWYeQIAAAAAQJmRkYXYqmp5Vqbu2SATzHO4zFgpU7askYmuIJZWdc8TMmVb6W1WVVdvHrkl5QuCWAAAAACACiKQhZhKyIR760QunC89u2jMScjNf/OEFcAaem+PXFrzpFwwP5f2JuX6b34m1+0XRjbUsyH9nhfWbJFrF9RE9gUAAAAAoMIIZCGmZsiNU9V/BE9yzWiSm3Tb6CDWnrc87TN07Fm50lPuLq/sCwAAAADA8CCQhXhacJ/VPe76ibfs50irapxvZWMNW9vEYV/MapKNO9ule2+7dLTWmokAAAAAgLih2HuFjKdi77pW1ZRHRK7t2CCfn1UTZtwv1X/TIhOm1tkvuJCUK//4rFzXv8tStWCDVC9tlCqd0WNJyfVXe+RajzeTSES95zbXe+allrdGLc88s+tFPSFV7+2RC3v8gi0JuXnbDpk4NWs+o/jtM+93wVleQia0fFcmPqK2036B1eXvSla2VHRh28Z/+6z1W/N3nnpauij8tVe65Xq9Lupen9l2HzntU0DVgpUycel81/qm1PJ67eUVmD/88eLVvK5d2ueYJzIoB7Z2Sddp8xQAAAAAEBtkZKFkVXU6IDEgQ2ftoMbULWu8QRUddMgJUOjgy09lyip3UEKrkwmPrJEp21Z6ipTLjGnqdYUCNUZ2F7d6Na/6bygVFCXJ3zWu6O0zXfus5ekg2p4dUu0KYmlV96yR6paEeVaiYtomm7N+PkXhq7c8K9Vz9ciE9rYHcbdPQQs2qH3+RFbQTS3bWd6CoDYp8ngBAAAAAIxJZGRVyPjJyDLZR/JzuXRomhVosLKNXnnLBDYSMmGByPVj7ra4X6r3rJEJTjZN0nmtMuN+uflv1sjEqWqevU/KFd9R8Mz8F9Qyt3UXzGqyM4bqgt8vb8ZWhO1boLOY1OsupESm1kmVlbH1M7l+Vr9GZz/pwJF6GJghVopi2sbZD4p6/ZV/zGREWZlPOmikn+R9L/MeobbFyXxT+33vP6h94bRZQi3vu2Z5KZ/MrlKPF0V3LXx6rjTWiQwc3Cfr9+dekwAAAAAAox8ZWSiRyWaS+VK9ql6u791iFxhPByL6s4JYIhPW6KBEUq7s2CBXdJcwd9Di7Fvy+T/+3AqaVNUFZOfoDCT9f8ji4nbGUEq+HLCf58ibsVX89lXV1dv/66yjV7fIhW2626HzGvX6V+ztq4gi2sbeD4oOQm3zduvTReH1CIeWfO9llhec7ebjQq9c87RZv728NVusYyK7e2LJx4t2+qjs3twpK1d1EsQCAAAAgBgjkIXSOIGTqXUytHeDK8smyP1yk85Gkkap3vJTmbrH50dnR1mvDWACT+GKiyfsrmgXegPrL02wus/pYIzPuhe9fU7gTGcIbZFLeUYILCr4E1bBbpTGjJUyUe8HnW1VIJMqbzunl1e4XayA1QX139QnpHrN/VI1w56a0e+zj8pwvAAAAAAAxgwCWSiNE8h4dUtwty43M8JdKezAU54MKzdTryo4q8gEuoLer9jtS79fUr4ICHo5owqGC/4Ux2mbL5L53zu9Dr85GphtZWeW5W9ne3l6W+3nhVzfo9rxvZRVI2yKFZh6Vqpb7g8ORJXheAEAAAAAjB0EslCSsIETh9PtTtczurAm/49/NpMTKApZXLxghpJT6N0/Y6vY7cu8X3B3vIJdHSML3zbOOgRvV0Im3Ktfk++9nGy3cF08bf1yfc8GubBji1x5NanmM8XarYBWbtfA0o8XAAAAAMBYQiALJSgyqOSSt55RXiZQ9N67ct2ekJcTCAnKfqpyMn58gzERti/v+2nR26ywwkG08MK8VwnLO9sv13t0Xawn5cKOPXL9gg5o/Z3cnNPd0Bb9eAEAAAAAjCUEslCC4gMZQyk7Danq3qbA7mRVCxLBXc2cmlUh5ct+skYzXKUzroIytorfvnQGUWBdqXIGm7IUUejdVic32qubRY+saArB53svE7QLV+vrfrsulnnmcfYtuXJIF5bPXZ+Sj5e02bJxZ7t0722XjnWzzTQAAAAAQNwQyEJ0RQdOlGMmk2rqEzJl20qZ4MrAqZpxv9y8RgeXdsjEBWZikHta5OYFmSwde171fua5V51MfMwVRFGvrd72U5nySJ1cfy9lTcpb6L2oQFaBboNO8CdPbaqonLpXYYrgD6Xs7Z6waoN3HyxYqdpmh1RbBdbDBal0kCn9HjMSMsG1XxxVLS0yQdfF2vasVGcHnvT+WGoHFHOU6XhJtDZKo941Sv2cRmmbZT8GAAAAAMTLDQ8uWvyVeVwxly/lDnc/c2ZCzpwZuzVtxvr2WRZskKmrGq1C6EXVJzLzBRl6b49c2fNWQKAnITdv2yETdVaTD11LyVOUPXBZKbm2Y4Ncb3xWpjwi1uPPs2M2RW+fs25JubLmWd+uj1YWmA6gZa9nGUxY81OpvsferpxtyXG/VO8xWVfZLqj1/029VAe1S1rAe+iRELd15+w/Z9sDqf2uR1DM2e8lHS+2RGub7FpWY56JDBzcJ+v3516XAAAAAACjGxlZiKxQ/alAx541dZHsrCDH0Hs/lys7nvQPZqT1y+fbtsg1k0nlGNLBFzVvTnBILUuPkpeRkuuv7pFLa+wAjZ1B5V+vqvjtK9xtcDQUere9pdprj7cd1f64vneLXNr2rFn/Qu+l3+Pnaj+ap4reD9cO+WebDfXoIu/2Mt2/H3KWG7TfSzpebP37k5L0zg4AAAAAiCEysipkXGRkAXGzcKl0r24gIwsAAAAAYoqMLADjRqL+VvXvoPS+SxALAAAAAOKIQBaA8WFWk6zVdbJOJqXrtJkGAAAAAIgVAlkAxrhaSbQulY7tc6U+1Sedz58y0wEAAAAAcUMgC8AYN1lalzWInDwsmzYfkiNmKgAAAAAgfij2XiEUewcAAAAAACgvMrIAAAAAAAAQCwSyAAAAAAAAEAsEsiqEboUAAAAAAADlRSALAAAAAAAAsUAgCwAAAAAAALFAIAsAAAAAAACxQCALAAAAAAAAsUAgCwAAAAAAALFAIAsAAAAAAACxQCALAAAAAAAAsUAgCwAAAAAAALFAIAsAAAAAAACxQCALAAAAAAAAsUAgCwAAAAAAALFAIAsAAAAAAACxQCALAAAAAAAAsUAgCwAAAAAAALFAIAsAAAAAAACxQCALAAAAAAAAsUAgCwAAAAAAALFAIAsAAAAAAACxQCALAAAAAAAAsUAgCwAAAAAAALFAIAsAAAAAAACxQCALAAAAAAAAsUAgCwAAAAAAALFAIAsAAAAAAACxQCALAAAAAAAAsUAgCwAAAAAAALFAIAsAAAAAAACxQCALAAAAAAAAsUAgCwAAAAAAALFAIAsAAAAAAACxQCALAAAAAAAAsUAgCwAAAAAAALFAIAsAAAAAAACxQCALAAAAAAAAsUAgCwAAAAAAALFAIAvA+NC4VDp+3C7d6qfjqSZJmMkAgFFsVpN07FwqzeZptkRrm3Ssm22eAQCA8eCGBxct/so8rpjLly6aRxkzZybkzJl+8wylq5bvLX5Inpp0VV5+43X5yRUzORLnvUT6Pzwuy393zkwHhlnjUuluazBPRJJdnbI7aZ4UZbZs/PFiaTTPtIE39sn6X+Zem4DS1ErbzhWyvE4dYwcPy/r9p8x0jB3OPh6UA1u7pOu0mRwJx0teC5dKx+oGqU/1SeeLh+SIT1vrQNauZTUiJw/LyueLb7/mp9ql/W7zxEMt8wdqmeZZKYZjGQAAjCdkZA2DO2fcJS8sflh++50W8/OwvHDXdLnT/D5I1PlKVj1NHppkP0zcMU0etx+OIjrQptpj8V2VbwsE00Emk+HU/VT4b8MTOjPqGTOf9dMmHWr+xDTzgvEqYnuOWeoGtnuvaosCPx2ttWaGUWLW12V+nf2wftntgVkkqBQdGFLHxs7isi4TC5tk484217HVJhtb1XXJ/L5iRv3xEq09y0JnYukglg72bPYPYmn9+7tk08FBkTmLR9/1AAAAVASBrAp7vOlh6Z43Wx6YZCJDlknywB3zpHvxgsAgUdT5yuLKeXnzqv2w/8Pz8gv7IVAidUP0TLvsalM3JreZSZYaqb97sez6vrpxdKdMldUp2d/VJwPmmXxyQl4gGwuVcPoj6U3ZDwcOfkymRQw0r2uTXavnSmNdjZmi1UjjMnVdytOlrSw4XgKovxdPz5V60VlvhTOWdDCr86QOBi6RtllmYlF0ZlSnrPT8BC+3pubf5IE7h+T/mOP8fCkP1H2ljhp/R17Ofu9O2fTGoPktAAAoFoGsCrrzroflh3U6EHVVfv3hm7Lyn3vkm/rnjePyax0omlQnP/TJKoo6X/lckZ8ctpdJt0IXnTHzDLWVHImpt5pH4TQ/tUKWewJY2dSNY1ubtFUoM6s/eUjWOzcRPzoqo61jc7HtOW6kTsimVWqfBfys3z/aApIXpWuzs250ExvtdLe09jk6/DAoyYP7Msfa1sOS1AGmugZpr2g2EseLn0TrEtPd8rXQXTePPK/2mfo7svzpyv6drqn7UpYl/k1mTDATLF/JjK+p6Xf+W2AwCwAAlA+BrIqZLmvusLOpfn38dVn7uyvygfVMuXJO1h4+Lr/WjyfNljUzrKlG1PnGk0ny5+5EtWFCoMFr5tQiPq43LvXWB/nkhHQ+p27ecr6VVjch3w7qVjco5/5gHo5BRbUngACTZbrpqlfYbGnVtZWU5Etdsnv/xUyA+/Qp2b1ZB0aUurnSutCaOg4V057lYvZL6oS8UFSg+pTs110MK7m//t2/yf1f06Vlb5Czf7hRDp6skv+mf/7njXL2upo84d9kWUOFSs/O0t1fR2mXagAAhhnF3itlxgL57Tz16e/qKVl5+HeZYJSb85rUcfnmUZP5VMx8ntd4i72/qgNi8+/IdE28qrO7jsvas9lV4DOF3f30f/imLP9dgcrx1dPle3feIQ/VTUp/C9p/NSX/tfeY/CLvrNVy54x/L7vuuFkS6S6UV6U/9aFsUu3h2Xa1zQfuqFOvM8/zcbdnGSUebZNdf9EnmyqVzTOtSTq+r7tSKO8flpUv62/na6X50fnSskjXCTE+6ZPOfzokR86b54auPbX2YXe3vUEZeD8pL/zqlPRnvdYt/Hy10vbUEll+d8iAyycn0m3lLXQ7KAee65Iu13t7f+8qfquz4NLF3vV8r8n5by+RFrUOdnuYdVVt5dkn7rb0lbsO2RLT1M3UXzdK422Z7R1Qbd/7eq90JfPdXNWqNp2v2vRW1ab55o3entHlFr0PEr2wfkbzOrVf56j9uapXpq1T2+pkvuigwdtq+3OmWbPZdI2s1Wrf64yszWG3W72nLpwtzjzq/FHLaFHLcI6FgZPq5vj54PdLqOWufUydD3lu3gcO7jOZYGZ5Aa/NvC5b6esps2ZLW0ujzHfPk+qTnoCC2KWwi2lLprC537JPHlbrm3UeKrr2VOtjutuemaDP2ZPqnPV5rVtR8+mC4AX2WZq7IHiYY8z3Nc5+t4u9v6MDL0+ra4XTNTGljudXXlPHc/a+j3q8uETe7+q6tFBdlx5T16V0F8qANo3anmnqeG5Vf7fmut/DLKtHLavQ8WnaPFR7ZNN1tbara38Rhd/tvz+uvzt5NDQMycJbRT77w43y89QNZqrjK3lgzpcyQ26Qf/mfN8pv/reZHMD6TLHo09DF3u3rqXmi2rP0gQYAAIgvMrIq5M5JN1v/9w+c9w9GaZ9dtT881mUKqj8+zf7UF2q+SZPk69YErz+/82HpXjTPW19LPX5g3kPy26bpZkJ56G6Qv1XLesoVxNISuvvjohY5cFe1mZKlerq8sPgh6Z6ng1Pu6JR6n7p50v2dh+V7WbOGCmKVUfNTbbLx0axiv7fVyEzzMNHYJBufWVqZrnB/NtkKpGx8ZoW0u4NYlkE54wnA6NcVqj3l9+1thPn+LGTQxaNWpv2Zeah90ifvZAWQjrzXZx5pDbLAN9JSI8u/r9ojHcTSzLqWtcunuglT+37X9xd7glha/W0NsrxthVWc3pcOoP14hWnT4HnT6xqpPePmVmnRN+/qxttWI42PNUnbuqxpq8tYi0jdqM9UN/wb1XJ1tzH3+VM/Z67sCugqZtdKct98V1jE9dSBpe7ti63288yju8Ftr2y2RuCy1Y83EKSDNur6YtWeMpMsar456pzd2xZQyyjafFH2WfM8O0g+cOKjrHV3OTdo19bT+8qa4DW9RR0zqj089bXU48bVK6R7XXkHbYi8380xZh/b7mtOcJtGPwfM8bws+zwyy9qui+jnPz7t/TIove8WGcTSnJpjcypROP8rmWklZt8g/yMniKXdIO/9QU//Sqo93Q4BAEC5kZFVIY83tcgP1Ye4Xx/vkbVnzcQc0+WF78yTB8TOovrJlUx2VP75vNlXP7GynryZVf2pU/JfP/idyYiqlsfvmic/THdZzPfeNh2g6lavz5uR5WSGWbW8PpQ9v8tkUd2pfrdLB6nS22Z+YXG2W7makpc//J/yk3SmmF7Xfy//8Y46OR24nmb+fFlrZZB4dKmsdYJIn+ibGfVB/Db1/yfqQ74TpAjIjorEk0Wkl6OXZz3xSmdraeqm75kVBWpPadkZSFHmCzuPkc4gUjc27iwgz/obWRlUA2/sk/W6GLsnIyu/9DxaCRlZwcOke+VkLBVcpi0zX9T2jI9MBoGTPaCDFGqbrRvc3GnJl1TbOFlZTiZMHp7XW9zvr6llvPSadJnMGJ1tpW/mtZx508vLnqdJ1q7W+1VnloXLnLAzmGoKZ2SVuJ7Jg0nZvz+TTWNlk6nf2QWydduaX5TI2Z7kyT5pnKOWnVJt8WKvHDntbFutJGZd9GTaOPNY66m2LZ2dpDOKnl5stj23TaPOl6GuN3vV9aZgJl/AcZfDeZ27Tb37T2fP9fQcNRlROhtpibRb21DovW2Fjxcl8n437aEfqv124JXe9HFmr+t8aVnWIKnA9Qzbnrb0/rOOEbWP0uviZISpbTiRL9PKadvw51s2ex1cGYQFhM7I+nf/Jk/8+3+TWz69Uf5bXyaQZR+tRs2X8n8kvgrI2PIqNiPL6lr4tB3gjZStBgDAGEJGVkVUy+1WQtZV+V+fWRMCqN+b0QG9Cs2XnxV8OuoEsbQr8ovfvS4rP7QX9sC0cmRlVcv37rA/xdu1vLxdAT84e0yWH9dfi06Sh6Z5U6vuvOsOE8TSgahjriCWptdVzfvGmwWDbZXW/8tDsv65w3LgffUR9TYnqKT/Vx9bP1E3BF37ZOWP1AfQcgSxcjjLUzctajmbnCLlP1CPf+UKAjXO9wZC3j+cfu0m9yh96v2W/7UruyPSfBel60eZ9TjwiTXRpoNTZv70jxN0mTZZzP2eZeDCZfMoCnWjZmprrXzuhGs9ReoXzc98A3/+aKawu/OjtqugaU3S4gpiedvebhtH48PubBl18/XX3iDWgKtNrf2m21VNywS/IrZnDGUKNl+Ud07Yt3zuaecrUftM30ivUjey6Zt2dU6/fcga2Uyrq/dmhSTq7Rp4uoujdx51LL2k93uDLKhE3Z2i1lMdZzoQoNg1nbxdwvR89rrWyPz7yp+VpYNY+gZ65WYdoHDfRHuDWPqGe60JRulggqeL3elT0rVZHe/WSH0N0uLOzok6X0kG5VwJPdGtgMLzThBLuyhH9nfJJl2rSWmcV46srOj7PdHaaIJYOhB1yHOc2euq5t26r2CwrVgDJ3Sg0zyxqGNEr+fmQgM0mJpcqUE5Y0+IqEamlzcBXWTCV3KL+u8zXQvLorsSDsky9fNEnflO+PoNoj++3VKJjKzTR2V3emCAfG0IAMDYRyBrzLkqb573z6D64HzK/vB78y2lj3hYPU0e0gleV0/JnqCA09nzVmH6RP001/Kq5ZF6a0Z5uTdPNtUV/20YdufVzdPLXd4giA5Q/EjdEOStk1QO6gb3OXXTopaTuWlRj12Bs+Z77Jsbm3q9q1aUHqWv533zRLutQb5lukFGnW+kJbvUDb+z/eePygueQvG3yrQS1zPxTZOBZzS2rZBdP26XbvOjuwym3ebqajTt6zI/KzC43lO3S+03PWpidibaOJEayD1X3NPODLj3YxZ9A+6MJJf1E3zzPSgHdDaIeeaWd1kFZAe/Slfkes5Sx5l1k39C9gdt+9sfWwXK6+d+3bdbYklOquM6zA309Br7PDqZDMiIuShdr9jXVM96Rp1vxAR3f+t/13wh8LXJpa9n5P1eK9+aawKDL+YJhHuCkqVxtrt+2RLZ2DpbEr7dRyurf+BT86jCav5NnDF3KhK4AgAAgQhkVcQV+fhz/f8k+XP99V2goNH3Cs1XooDaWkW5xdTEmjRbur/TIr/1/THdBz2cbf5cPh4lsarCaqXtYR3A6JMDOnByd+OwBHaSXYWyvbJrT+V+g+2tPeWIOl9E5y+LlURh1E+dbB4FS10Id2PVf8F9w1Ij079mHkZU3MiBrsDZ18wNuJF8b3wGrOLMufm1anW5b751fSHTzc8vIDesnEBP3VzZtdcevSz3x9WNt8wGBsJlUzrZbXlf71N7Kup8palA5o5bOdYz8n53Rhz8VM77BgYr4PRRWb/1hCRTNdK4TNfEMuu3U9fGGpnAVrmlg1aDfyL/YmVn3SBnP83fjRAAAJQXgawK+egzuxvfrEkBxc616lvE/kznBHWcAFih+Uw2VKyCQfGVeHSJLL9tUA48d0i6fvmaHPgkq5seCrgs59zd5nQhe/MwLSsQFM2gnKtEF7VA6uawIt1KK0nXK1M3lSF+NlYqGjJapbvz2YWz0wECXchbTz55ODgbBjGU6dKaN9POyYYazmBQ3Dld4Lbuk86DfZJMDcqALoBvAlsd67IGUSkzJyBadqbbYMYN8psPquS/nbxRfu0kUOZ0PwQAAJVAIKtCPrhqR6S83eq87pymi6ErqfPyC2uKyC/O27kroea7elU+sqaE5GRRFTufH2fkxNRx+eY/9+T/8S3IfrPcnidWF0o5MssKmdYkaxfVyMAbr5kubbqu0WFJ3jZX1j5a7m5GxVI3Yv9qHmrurm6GtwuhI+p8efgFp9Kyl5fbVTG7q+MxdxH1PIpezwLOXHB35+qTzuw6VZ4fV5ewP5gsEaPxnhLr4uRtT1SOvf/d+1JPSx48LJue99YlGhFONtLJw75dLT0/IQpzV1p9fZ7sSyfLyKcWUtT5PEJkQh05XribYuI+09242JpNYdczjJL3+60yrdRMqCiZZaftGly7N3fJer1uW9XfTvURR49euDawxtllOac/BpWcyVZa7TNf//sGsb47vPXfJOgvT43J1rpynQwtAAAqiUBWpZj6ULrr3RqniILHdFnjjCJ43vVpq5j5PvQLEAV1S8wUZ+8fOF/6SH9XzsubOums7g75XlEBqXPymhWrmyRPzb8ruFZXdXWIOl5lCIYVkPhajV3vyBkNz3JKduuaWVNHvkaLtwtgg7Q/lfmmO9G41FO4XBeof8dkEEWdLyM7ODVXWhvdNya1kpiWeX7kV+7C7HZGW7MJZumRmzyjBL7/ceAITo1tbdLmzBdqPYvT/1t3oXvVLs8sVeuZtV2NTbLx0axA1fmPpNeddXb3Yulwtak931Lp+HFm/b2Ka8/o1LHrG5TL/fGMyDgeLFxqjbB4YGunfdOd/sktrj1iTqvjTF8/5zRKWymBiWnqGH7GzrzrqEBAPl0fKnA9M8XLB058lG7bqPP5CxG8MXWldJe9Vt9C/rOl1Rl98BW/AFFQt8Ri1jOEyPv9lByzsgzVNffpPFnEs9T1xTwMFi4YlliYJ9vqtLr+ODXOAoOV6lpoZcpFDb45dcEqkUF3g5yxeiB/JX/pFHf3+Eru+Zqerl7nU+KudLNl4047U1RntQEAMJ4RyKqYc7LHGSVw3sPywl2uwEz1dHlhsakflVMs/ZystUb7K3a+jAfmtciBu6Z75vve4ofkKSv+lZL/+rty9Ee8Ij/5UK/nJHlqkV5PtTxPUKlaHr9rgRz4zgJ53Exx/OIDc1Oo62stXiDfm+GeUW3vDDXfooekuymocIk3GPa4Z3a1XM/7lSawQLc1fRSMIpfs9Y52d/fidHFyXZg8011vUA78k2t9o87nkl1HSxdGd7qldf94hez6a1eg7/zRrALyc6X9+2Z5i9x1qezC88HUDZkzn2c91Sa9Xob9kbOeDWo9s7arba40LlI3lJ6A1EXpet3bHvWuNrXn0+ur1v/b/jcgRbUnys7ujlQj0ysw2l/5OMXO1XG03a/mUK00ty6Vjr1LMyN4+mj+tjqGzeAE9YuWBARXS3BanUdOAEWv50JXm86aLW07V8hy63uVPulxF4+POp+HN3jjrXem2sf9njqwa432p2uj6fZ0BXR0bbSdpltpniLrjavbpUPvB/M8/HoWI/p+P9JjvkTQ9bV2LpU2z/ar7V2o5tuuri+BgZEi2lOPOrlaXff2ttndB9Xv3RKuenP56qDZmXIRR950uoKeDP5CpBR9f/gTe1TCr31pjVSY/uv1776SB+780i7+/umfqD1fftYIlPb3kVJfajAbAICYu+HBRYv9vlYqq8uXcj/IzZyZkDNnRjwMUHGPNz0sP6yzM6hyXE3J3x8+lu5W6Fb8fNUmWHVV+q9OkoTvrFfl5Tdel5+EiGPdedfD0n3HJOn/8E1Znifw5bwukFrXl3uP5S6z+i45sMj14T9HgXXNO79qn3/2b9dRbVqTdHx/bjo4k+wKmxWjbg6eUTdc7lHzPAbVe71mjX7oFXU+R620PaNu2ALn113z3COyFXq9rkPmGpVQa1wq3c5IgZ8MysBt/rW0Bt7Yl5U158P9Xn7LSlM3Z08tkfa73QG2XH7L1FlXa7MCbNkG3j8sL3hGNHQU256jX/O6divLKflSZoTBRGub7FpWU3CazpDqNje9eenuVs87wU/VhlYQQe3frWr/+mRkOMsaOKj2nzvIoG7CO7Znzj8/A6k+6X2lV7rezn+sBS4jrYT1VJzfBVLrqUdD9B/5T+2Xp9R+SWcz5jsXbIW3x4+zjeZpjqBtjzqfS959qc6jVd7zqHldmzpOA9pTtWXn5uzzLrP/BlLqmuS7riHW0wjbvpH3e8Fju8C6FtGeiYVN0vrY3HTAxZceiTRv11f1t0kXry/4ulxOG3muJQXY50P462tN3ZeyzMq88nH9T+TgB3+iWrQwnY28a9GnoZebvf+LOx8BABhbyMiqsF8cfV1WHk9Jv52cZVyV/tRxWRkQxNLs+U7Jr6+6Z7wqv/4w/3w6cLTpcE/OMvtTp+TvQwaxivHB716Xb75xXF5OmZpZDrXezrr6LvPK72T5P78pf/9hQNv8c4F11fOr5XrbR22nDpwd/5/xC2KV5JTs/lGnbOrqkwF3lpX6KK2DJpvUTap/MCrqfA5dL2yfz/zqA/Yng5J84+Os2jD69fmXl+9meuBfXpP1P9gnB9533SJ8om7cutSH+UJBrKJclCMvd6n1OWwtK9PVULG2S69rp+8yrQy+5/ZJ5xt+23hCOvV8vkEsrdj2RFmd/kh6Tua//ayva5Dlq1fIRt9uaMOnf3+XVW/ogFpfz/GZUseJrue1OTiIpemuvklzjGXq/5WbOp43q/P9JT2CnZlkUet8Uq3jqqDASdT5XKyR83Q9Ju/+1IHIAy/15gQNjjyvzndree7XZ9oyMMig3u8Fa13VOeta14GT6lwPGcQqRuT9rttjlV143b2eodu0iPbsf9su9J7bns7r1TWuYHDqlOw/qOatm5unlpYf0xU0TwZdOQymbpSD/X8iZz11sG6Qs39Q00MGsaLo35/MOicAABi/yMgaRunsJV0g/Wi5q5CWV9iMLCAu7G+/nW+zC2ehYDwxGTaSLwOkVprXrbAyzMiEQDlFy3gb6wpnLWazM0DDv95RbEZWuRSbkZVmslU5XgAA4xkZWcPog999aBdyr5snB5pcNaxGoa/fkqe7IDDq1Upzo6vezbTZ8q2/cHfJ+VTOE8SCw9TVyV+Y+6KcGahUrgXGs5n1eboLjlsXpetFXd9L1wXLX/NN08FAO8j8Wtkz4UYbu57foPS+SxALADB+kZE13HQh83l1WbWdwteuKjtdCP6Wq/Lq2SvpkQx1sfVutY4jul5AKTz1sHy8f1hW5i0qj3ElXQNoUJIvvSb7377oCWjpItXfammU5VYdpdwaS0AouhD89Mvyjuv40sXWd1m14IrPJBoXdDF61T71Kb9aZbZ07ShPvbzwvDXj3MqXpVW2ZTjXqojbCgDAWEEgayTo4NGdd8hT6WLuIxcwylesXdeqWj7Ku0ACfoJvGpRPTsimH5VhhEOMKU5h+rx0jZ88RdSBfLKLdbvpWlXrCUz408Gbp2ukR517R3zOPd2ua+uTkdsvHoGsWrWd82XtsvxBPQAAxgsCWeNddbU8fuc8+Y91kzJZYqZQ+9qzpGIhnhKNTdL6cIM03ua6adQF0/8lKft/GVRsHeOdPeJag9TVeUfHdEYrdGfSAEWbVSvNLUukZY7r+NKF2l95TXYXGAkT4509kmPdycPywvP8DQMAgEAWAAAAAAAAYoFi7wAAAAAAAIgFAlkAAAAAAACIBQJZAAAAAAAAiAUCWQAAAAAAAIgFAlkAAAAAAACIBQJZAAAAAAAAiAUCWQAAAAAAAIgFAlkY32Y1ScfOpdJsngIYwzjfUQyOF2DUSrS2Sce62eZZeFHnAwCMLgSyMH4tXCod2+dKvX48y5qCgmql7Zl26f5xm7RNM5Mic96rXToe5UMlKmw0ne86QLJXHfvZPzubJGFeUnnq/NtpL7ejNebnXyXak78PWcbQ8TIujc39Vz9nsXRHCEpFnQ8AMHrc8OCixV+ZxxVz+dJF8yhj5syEnDnTb54BxdAfyFbIcjkhmzYflUhHkb7xsW5S+qRz1SE5YibHmw4MmXb5Ufh2STQ2SevDDdJ4W42ZMijJN5Ky/5enfN7DLOO2QTnwXJd0nTeTo5im9sH3zY2i3g8/GG37IVp7RlW1YKVMXDpfJkytM1NEhi4k5do/PivXz5oJLhPW/FSq7zFPAqXk2o4N8rnP/GrPy4SW78rEexulaqqZpF5//dUeudbzlgyZKbb7pXrPGpmgHg29ukUu9eS2RlXLszLlkbrA31tmrJQpW56QKvUw7+ssCbl52w6ZODXfNoQ02s739PpkSYW/piUWqvP2MXXe1jnnrchAqk96XlTbd9pMyMezDjG/DpahPT2KOF5y94O6fh5U18/9ftfPjOj7rwx//6IYS8eLS/j9Z9pdXZ6TL3XK7rfN5BzO69TfyK3qb2SYc3E4jPr9F+241tlVu5bVyMDBfbJ+f+69RpCo8wEARg8ysjAOqQ9MT+sPdPqD5tj4MB5V81Pqw1zbXFcQS6uRxkWLZdczFe5Sc/4j6f3Efjjwxsfjej9YQaBVT3iCWFrV1Eap3vJTmbLmfiv4UzYzVkr1th1S/Yg7iKXVyYRH1siUbRusoJWfqke+G/i7Qqoa56e3o+repvJuU6BReL6fPirrV3XKyvTPYUmaX4Vh3YStVuetKwii1dc1SPv2dqvbTMFMpNPq/EvZDwcOxvz8K7E9vcIfL83r/PaDun4uU9fPPF0Sy7L/httYOl6M4vbfRXnnxKD1qK6+1vrf16yvy3x9GU/1yTujJYiljcH9p/Xv75LOk+rcWbZE2orInIw6HwBg9CCQhXEn0brE+lZ14OBro+fb0hGQeLRN2u/WH+B1BtY+2fQDdQOof55TN4E6wHSbuql6ppJdnS5K14/sZa7/5SkzbRxasMHKZLKyofZukQtrnkz/XNr7c7l+QaTqnhaZMMN+ueP6nszrLqzZItfU6/R7XNvhnu6XyXS/VG/RQTP18EJSruxwL3OLXHlP3e1MbZSbFgTt+UaZ2BLlqEjIhHvVdl74uVx7VS9jfs42VcKYO98XLrUyCazz9qV9ruBNp2x66YQkVdPWz2mUbxW8OVPn32Z7vvX7x/H5lyXs8aKDUe1zzH44qK6fzn7Yqq6fOmCgg1J+XRvLtv+G29g6XqLsv/53+2RA/V8/9+vBfxen19hZT3+4PHzZcqGM3fP9yPM6cF0jy58u7vNK1PkAAKMDgSzE0GSZru/7I5ktrfomInVCXhhz6eSqXW4zDwtS7bBIf4gXSXZ1ye5fXsx86D5/Snb/SH/AU26bK62N1tRxqJj2jG7CXLuBh179B7lyzHvrM3SsW65s2yKXSu1a5zJhjd1FUAeULm3T3Rbdy+yX63s2qOVtyVkXy3tJua7+i5SVNaNJbpqqtuk3R+XzZK8MSZ3c1Fjp24exd743z2uw/teBlt1ve7ep/+2jsnuzuikfTV2aYiXs8WJepyRfUtdP9dr02XJaXT83m+tnnbp+LrSmppW+/0r5+wdbxP3nZDXVNQQGGp39mzxOcLg4pRzXp2T/wUHf8y2/qPMBAEYDamQNi1pJLJwvax+7VepddRgGTiblheeD62jYtRt02ruZkHee7PoCtdK8bom0zDHfDioDJ9WH8+ezaw9Enc9l1mxpa2mU+e55Qtb6CN0uuvDuYw3qdeZ5PicPy0o1vy/1Pt2rG9RNRLi6CDpradciydSDmqa29dtqW+92bev7h+WFl3P3iV17Su2/dDBEbdv7att8XutW1HyNql0eVu0SJuCi1nOleg+Lmq+7TX3g/kTt96D6T76vUceLq0bWO/qG4K8bM10TPxmU5OvqBi2Z3bbOfOZploE31P74ZYH94df2n6jj7J/UcZa3Vpc6zhrVcfawOs5cdcB82zRqe5bAqXVVuGZUPiHrSaVrVBVbd8rUyHpvj1xKtfjWwipYI2vBBpm6qlGu731Srhwz72cF07qz6nE5ylAjq8jzPXNNylxr9PWvp+eonLlPXQuWqWuBK8jQvK5d2ufoejO9Mk1dN5c7GR765vhtdcznTLNm8zFbNu5dLI0hajrZy1TrVVRtF3OdD7h+hnmvhGpLd7v4ybxP5f6u9L7SK11ZAaBc4dvTI+zxYl6XtwaX85qsv0eR9p96r1L+/tn1gFzHrl/bqvkyf3ejHi+l7/fijrOISth/dlsG1VYyx12+GlQRjuvh238uRa1nxP1e4nHt4dQAK/S6bFHnAwCMODKyKk19GNio/sDvUh+IMsEaTf2Bn7NYdu1t8+mfrz8UtJvaDWaSJd88hlrGTLNMnTbvfIjQ6ufMlV1BozhFnE9/wOrevti6WfPM49T6aA2oJRGhXUJ92CnA/rZ0UHrfLf5DsA5qdX9fbasrkKLpx94Pwmr/PaP2n1V7ykyyqPnuVtsWOOJftPlCBV2yNN+j20F9uPyXj/w/xGt/GLS6Ucht6tiwJnhN/7b6cK3aw1NfSz1ubFsh3U+VdzSgwLbX3R+/r46zRwOOs2nqOHtGHWdt6jhzr2eeNo3SnqW4fsKu5mNlOVW4q126RtV7PdECQ1NVY/X0RMrKsjPPkvLFMf3sLfniPfVfhbsXFne+2zdj9jXJTFL09a99e5usnWsm5LhVWtR8dsBKU+fAY03Sti5r2ury1Jw7crzP+r9+2XxpHqbuZ3YtoZA3nG6R/q6o/aCWF/R3ZfnqFbKxQtkTYY+XRP2t1v8DJ/JcP8+Z6+ec2z37Per+K8ffPy3wb7b6CdyWYkX8PBH5OCtSKfsvb/fChbeLlV970q8GVXmO68rvvxLWM8J+L9u+drLlsvZXQVHnAwCMODKyKkr9Qbe+nVNSfXLA801WrTS3zpeWZQ2SyhoBx/nGz/4W39X9QH1AaHtafbiw/vBnf+Nn34RlvoEblANqXmd5+ltO/QFR8464E3U+xfnGUq9n1ig/1req+gOpfr+cbhLR2iXDzF/st+3pbQ0/Yo+dkVUjyff7pPFuta2fqHn/qVeOnM+sb2LaRel3ZQQ581jt0uXKTtIZRX+t9p8VKFHvkzVKX9T5MlS7/Fi1S74sK4tqB5MdlexSbRxYFdl5nZ19ZY9QmJlXG3j/hPT86qjJiFL77tEl0p7uspjvvW3ONufNyHIyw3S7ZI2mmFC/W6uDVPo4yxlF0bSHfqj224HX1XGWzhTT66qOs0XqOAtcz7DtWTrPCIR6pMJDP5PP/br2BQqXvRQ9+8ubQSU+2Vf5M7IyGV0X9rxlTzIZWsHrUmpGVnHnu5MpYx1nrutuYlaTtD7tfKngvZ6557GnO8v0n5ZzDU0r7pqWWa6Scw0Nz/lbkzdDw3Wd9/5taFLXeF0U3a993e2gZc9b+O+KndWrrrWnnfXSfxvU9cX621hon0b5GxH+eHHaP3h/amYdso4ZrbT9V/y2Ofs5eVL9HZuj2l0tszOrbROz1N8xz9/pXIWPl9L3e3HHWTSl7T9neu76pNvZ731LOK6Hb/8pkdazhP2eFuWc9bK3z5s1G0bU+QAAI4uMrApKtDaaYI3+w3wo64PqRTmy/5Cs37rP+0dd3TSttT4o2B+ePDU0Tp+Srs375ID+9kgapCUo20l/yFml/iC75u1/+5A1QosWOOJOUfOpDy6POR9MdI2JTHBB0/Otf0l/81wj8+/zLi9Su5SFqcGQGpQz9oTQdBBLB1tW/kh9eEsHsTRvEEumqf1nglE6sOLpYnde7b8fqf1njdSn9p87iyjqfCUZlHN/MA8jsIJPLztBLE3tu192yaY37JGdGu8pR1aWOs4eNseZVcsr6zhLqmOlyxxn38w6zh41x5kViFLHmbtNrXVV8z6njrMCwbbhoAu3X3o1aXexm9ooE1ftkKl7npXqljKPVmgMpbJuE3SXwz0/Vct0/WxbGbjsoWKzshbcZ73u+gkTxNKOvWu/R8VGLyzifFfX3RZXQMp93e0/resWHbYLQAfIFAbPjGzmnna+hPPMz5HnO2XTQTszRNfr0VkS3XvbZGNr+Ue7c7JX9HXe+7fhqLnGN8iCfJkkxf49Ur/btLVT1qu/DZmbaE3/bbBHGtNZcNPKno0W9niplWlf0/+r6+c5a0KAy3Iu4JgZzv3npoMgOoix0qdtCwVBilbkfi/5OAut1P13So5Z25C9PrXyrbl2kOeY32eXMhzXw7L/Sl3PqJ8/y6ZGpk83D4sSdT4AwEghkFUxzocadWP0Yp5vlzwfFBRnxJuTyYBvhi5K1yuma4LvyDl6eeoDiHnmdmbAvsHyV+R86SGmT8j+oIDT2x9bBVO96xmxXUba+4cL13DSvmb23/tq/3mygxxq/71u9t9fuNol6nwjZlB6f+vfHv2/NTdofza59PWcpo4znf31iTrOggJOSXOcedpFHWd/YY6zf8pznHmCkiNrqOdZubQmM1Kh+sgvEx5ZI1N0QCtwBMGR8pY98qCEG8HQ263QMTzdC0MpeN1VN7XmkZ/UQO5x5J6W/9obTb8O+LtGurO6Ly6zu2VvXFjpm0Wv4JvTaH+P0jfls2qleWGTbFzXJh0726R7r5PJFP+bzhHZfyfV37FCtZHKIurnkPwqHwQJx+ke2jjP9WWN85nIt1uhreTjepj2X/T1rMx+D6t/4FPzqDhR5wMAjCwCWRXjjMDyqZz3vTHyl67dMHDZ+t+XU7tB1yOwJowA58avbq764N1ufcDJ/dHp99mitctIG7iQZ3+4JKaa/Zfv9T61p6LOVxr1YdT6ZrpCyrGeToDvNnWc/VgdU74/AceZ1f1RHWe+gcHRyx6p8Em5sGOPXHtP3+HWyYRVO6R6gf37cqiqywo+ne22gmgXrJ89VqZUIeGzsu6Xm6xuk41SnZX1ZXenHI7RC/MLdd0dpeyR7jpl5dbDcuCkvlnU9bjKV0fKucmzany5szB0LRzTXcgvkFcK3Z1s4051bm9fIe26VqSut+OppTiSnAy7QsE0529dfpXef26j+fgevuOsDPvPfEnnrquUuE93cZe8oxWWelwP1/4b3ecfAAA2AlnAuKM+yP+r/ahuap5vuJ1sqBgGg8aEs2/J53s2yCUr80lkwtLgrn5hDaXs96qqK0cKlDcrayhlhVlzmW6F+VSue+E4orueP98lm/Rw8oouOF+W8GC6W5A9gEf6i4rtJoB88nBwVm4UVj0dU5Ms1SfJg4elc+s+2aR+Vq7qTHdRGklOdkneDKFZk8WOg4T80qZS+y8uhvE4K33/Od0LM13sZtbbGcCB3RVjcFxb4rKePpwvJIoVdT4AwMgikFVx0Wp51NdPNo98ONlQEWo9lY2TFaaHLFYfbvL++BbuLEONk6Iz0kzNi2HIZKufmmf/OVlGn+Tuv6jzeYTIhDryXuFuiolv2t8wF1xetrDrGYaThfa+Os5+oI6lfD++BdnVceY7QmQRypYBF81QsteunVUG6fe6p0VuLkMsK52VlScQZXcr1AXbnYwv988Wuaa7UVake2Hx53ve625MOKOqlZd94+99Xz3Ix2HZlB7yvxyc7JtBOfCSXQtI11/UtXr6K97dPPzx4mQP+XfvtzkZOvm6mvkJvf+G4e/Y8Bue46wc+8/uXujUAJ0tC3SXu1SfvOMbtBzJ47oYo2A9Sz6uC9U+CxJ1PgDASCGQVTHON3Y1svzpPN+szqr1/C79IXZOo7T5BnoyRdbzDh1daekhi4PWM0i0dvFXbDDM6VJQhiBagHR9qLtVu/gGUDLFywf+JbP/os7nL0TwxtSV0l32WnP75SmzpdUZffB1vwBRULfEYtYzhPPqONNF7gPbJYg6zt7X/6vj7K/zHGfTQh5nRQfD1A2B7pqxt1061uUvej9hTYEaWPXTypetdPaofGHqb018rByF5E1W1tQnZOJcM8nDdCu80CvXfUcd7Jfrv7GiBxXoXhj+fM9cdwOGYJ8VrptYyULcxDWvK1BDyfmio1wWLrXq4hzQBaA9X1LkDvJRNjog4CoWnVErRZ2KRd0UF/H3welaVqeun75dANX10xq0JberWfn2X+X+jo2IshxnIa+7Jey/NPMeVjBs4e1W1ljBz2TlOq4rbUTXM+px7dRfDZkBmRZlvvB/3wEAlUMgq4KO9Jywb450HamdS6XN8+FV3UCrD24d21fILvcfwtNHpccJ9GzP+sA7a7ZriOM+6RmWoq1BnKLzZj31aEueDx96qGa1fXuX5twYRmoXD28wzFtPQxcnDb5J8H6LWgHn1f5zAijfV+3S6FrONLX/nlH7z+qup/afu3h81Pk8vMGbZvcnzmmqXdzvqV672xrtT6SxTS3vUVdARy1v4zOmO0eeIuuNbepD3KOuUbZCr2cxnCL3pl308jyfpNV2PaqOlx/7HGe/MseZrq/1jDrOPNuvtrdRzfd9dZw9lec4C92eXtbInCbwUZ8v2DtjpUy8x66BNWXbBpkwwxvMqVqwQaassiON1w91lyEzq18+/8efm6ysNbnLVI8nrGkJNxKh4WRlTbjHJyJquhUO/eZo4Lo7WWKV6F4Y+nx3AvO6W5O6JrmvKfb1yK8OWzk5I6Tp0Whd55S65nuvb3p0RbuGUoe1nt7tstbV1BNKvpJnkIMi2N1uamR6pa6ZftTfhrWeEfzM3wX9988qNl1IyPbMEv7vwynZ73QBXK3//rmun7qm005zvGQPhlKW/Rf9799oVo7jLPR1N+r+8zD7oa5GWufpdR+U3ncL/M0r+bgeJiOyniUe1yGK7fuKMF/44wwAUEk3PLho8VfmccVcvpT7x33mzIScOVOR73JHF/XBtWP73DzfsA5aw717R8qqdQWs/OSbx+93tkRrm+xaVmMN35wZ+SbqfDbnd4FSfdYoNjnvG6ldXPLOr4d/9h85x/omTRehVx9QN/l2efRKPKq2b5Ha9jfUtocOzKg2TQd0/Khte05tW07dqajzuUxT7fL9PO3yA2+7ND/VJu13B+y/T9Trf5Tdjs46DsrAJzVS77uuIdbTCNu+zusCqXU98E/qOMteZt720Aqsa5Ht6cg+L/zOnbQZK6X6b56QCVPNcx9D7+2RS3veMs9sE9Y4xdLz0V36Nsjn2dlQaplTtjyRJ3CUkut7/0GuHHPOkPules8amXDh53JpW25ArarlWZnyiH3BGnp1i1zqsedz1vH63ifVe1mTfJj3zlnXhNy8bYdMzNMutqRcWfNsQIH6Is73fNcUdR1L/qFBGud4r0vN6+xRvJIvdcpuc8Pr7PtC07IFXkt19+3nXVkhaj03Pm1q2AQY0KObuecJ4Cwz7/FZ8Fqtlqfap/eVXteQ+9H/rgS2g6aW03lCpH1ZQ9621EK3p0dxfx90dlX7nDzrutnn+lCO/Vfk379Q+zmEwu9TwueJSMeZV/Y+L7S9kfafi2d5BY6Z7HXzKHBcF273cMK8T7T1LGG/uxV5XLs571/oupAtynzZbVTqfgEARENGVqWdPirrV+2TzoN96kOYmWYZtD6sblrl90f/onRtdg/L7cg3z8jo39+VHm3Jyn5xpExdC/VB0HddI7WLi55fLTepluOmP+geeKk3z4dP802s9Y1jpb65VvvvR2r/dan9p7vFpalte19t2w/UtvkGTqLO53Jetctzql0+yWoXHejpym2XIy93meW5X6/23RtqeTlBLBf1fi9Y66r2n2tdB94/IZ0hg1jF6P+lOs7Udh14P+s4U+vtrKvvMnV7/EAdZ2941zN0mxbZno7+/cmsczePs3qUwi1yaW9ShqxufxlDF5JyZYf6XVYQq2TWKIVb5Mqr2ctM2UGzHRtcQazCnKwsL2e0wqR8ERjE0t6SL97T/1eie2ER57u5ptgjxzmc61ivnKvkCJ+KvpZu0tdD89yir2fHs0YqU+u5e/M+9fch+9ppX/90YeYwQazQTn8kPZ42yVVf1yDLyzTSntUO2dtmXdftmj1HPA0ULHR7ehT39+GILs6esx/M37CgIEg59l/kv3+jWBmOs6Kuu0qk/efirmdWqFthuY7rShvR9Yx8XJuuoHkz6PxEm6/Y4wwAUBlkZGEcKvztIYZHtIy3GFm4VLpXN/CN7Ygqx/k+Xq8ZZrslX7ZJrTSvW2Flpo2N4zzavk5naZzMl/EFf2U+ziJcd9l/8WVnxhZ/bY46Xxp/3wFgRJGRhXHoonS9qOsn1cjy7bm1lTB8Zk7NpOePRXbdlxC1U1BBnO+Rmfox+bNNLsqZgfyZNPES7XixsjT0gzmLrQLQ5c4tHNPKfJxFue6y/+JJByDt4OZrRQWjos7nxt93ABhZBLIwPukUdp0+7xR3NpNRIboQfKOroK6ii623360fqQ+Cvx2DHwRnNcla6xv+ZOQPyigTzveS1C9bYg08kn1zn9ADkKxz6sWM9AAkZRTpeDklu615dAHoxbJrrz2qWffeNopBh1SW4yzydZf9FzfuLLpiMqKizufB33cAGHF0LcT4pouLPl0jPS8ekiN8GKmYfMXada2q9S+Ppa4c6kasdb76kNsg9brmTYhaKxgmkc/38dq1MFPQPi9dw8ZvUI+4i3K86KBLS6MsTxcRH3/HTBSlH2dluu6y/2JDB6TW1ieLrgkYdT4bf98BYLQgkAWg8qbVSvO3l0jL3TWZEYl0ofbXX5PdyYjfiI5a9shndScPywvqgzJXubFg/AaytMTCJml9rEHq6lznr6KLMOtR5N55+yLHOUpW2nHGdRfDgeMMAEYLAlkAAAAAAACIBWpkAQAAAAAAIBYIZFWIzjgby8b69gEAAAAAgNGHQBYAAAAAAABigUAWAAAAAAAAYoFAFgAAAAAAAGKBQBYAAAAAAABigUAWAAAAAAAAYoFAFgCENatJOnYulWbzFEAEnEfAqJVobZOOdbPNs/CGez4AwPhGIAuoiITcvO2nMnXPBplgpkQxYc2z6j1+KlPW3G+mYMQsXCod2+dKvX48y5qCEVMrbTvbpXtvm7TFcV/oQM5evf5ZPzub1JWjWE5btEtHa/lvBvVNpv3etWZKiTiPslR2/6HSxub+q5+zWLojBJeGez4AwPh1w4OLFn9lHlfM5UsXzaOMmTMTcuZMv3k29rB9Y09Vy7My5ZEBubLmWblupgW7X6r3rJEJF34ul7Z1y5CZWpQZK2XKliekSj8u5X0qpGrBSpm4dL5MmFpnpogMXUjKtX9U7XPWTPDQwb0dMnFqSq7t2CCf+74mWO7yUnL91R651vNWVruYtjfPwri+90m5csw88aMDD9bNd590rjokR8xkjBR987hCltcNyoGtXdJ1Wk+bLRv3LpZG6/fhJF/qlN1vmydlkFjYJK2PNUhjXY2ZIjJw8oT09ByVI9Y6GunjKUvqhGzafFSKurJ63qv8x6cOZO1aViMDB/fJ+v25f8uLUsR5lNuWg5I8mJT9+0/lbR/ffZDqk54X1fLc+yCHOaYkwj4oRYX330gJv/+cc7nQ+eh3zo8Co37/RTuuo573wz0fAGD8IiMLCCUhE+5Vn7QvnA8XTJoxzQSgQr7ez9mj8sUF/SAl139zdHQFsXRQb9UTniCWVjW1Uaq32Blk1vaXic5My11enUx4ZI1M2VZa1lth6kbgaX2jom+gxsZNJspNHSPr1I3Y6rmeAIpWP2eutG9vk40LzQTt9FFZv6pTVqZ/DkvS/Kpopz+S3pT9cODgx6P4+Ax/HjX7tmWNNC5bLLvydEm0bob99kFdg9oH7Vb3peIz3iosNvsvvOL230V558Sg9aiuPk/W36yvy3x9+U/1yTujJYiljcH9p/Xv75LOk+rcWbakqKzX4Z4PADB+kZFVIWzfWGOyfN7bIxf2vGWmBbOzt+oKZ/rE0YINMnWVzntJqe37B7V9mePAzprSASe/rKtoGVlOW9oZWP8g13r67aDeDLVP/kbtk6nqccGMtejZYHxTPBqFzc4I+7pSOMvQjwcl+dJrsv/tiybzoVaaW+dLy7IGqT95WFY+f8qamstkk0XJyKqwch3/Yd/HeZ2dwaPaUr3Wao9Zqo2eVm1kXQp82mnhUule3aAe2Ptgt9oHDjs7SAdW8h0HZj8Od0bWGBNp/zlZTfmOf2f/5j2PkKuU4zrqdWm45wMAjEdkZAFhLLjPyvq5fqJwEEurqrMDL18O2M/Hkglz7c5bQ696g1ja0LFuubJti1yK0HXQ3/0y0Qpi6e5/G+SKE8TSzr6llrXH7uY59QmZuMCaWmazpVXflKkP1i8QxIKfhfNNEKtPOrd2WQGUzFlxUY7sPyTrt+4b5zffYc8j8zol+ZJqSycIop0+Jbs3m8y1urnS6s5wU5rn6SCWzorxBrG0/rePqnn3yaa8wczJMt2+1CCyiPvPyWqqa5BvBWTjOPs3eZwgVnFKOa5Pyf6Dg77nW37DPN+sJtmYrlNWplp+AIBRj4ysCmH74u5+qd7WktN1zl8yq26Wk/3jTE/IhJbvysRHGtPd7Ybe2yNX9mTVdkpnOmUJWR/Lr4bU0Hu9cu2V7oCaVdFMWPNTqb5HB7K2yKWeYo6BCFlRTpvka4Mwr4makWWyAMJmo9jZCJLJ+pg1W9paGmX+nBpTQ0XdaJ88LC88n10nRvF7bcHaPibjZ26D1KcP1UG1jKS80KOWkTOf99t5vczWpxszXYBSg5J8JTcQ4JbJbjETnOX5bVNONoBa33VLpMXTHifUvEHfvteq5c2XtY9lts+pOSUt7dI+p/wZWZG2T702WVK9rbCZCJnl+Ql3nDpteqtqU7Pf82xjoUwq3Y2sXe1PnSmzybeNlLDnkZN1k68dAjJzmtfp4yFsGxjqvTpcx1ZePplAxZ/vUfdfqeeRPq6Xes4jP0W1nZ8S9l/+48ycH/lqUAVcP3tf6ZWugOvZ8O0/l6LWM+J+L/G49nCy5Qq9Ltswzuec+7ZKZt8CAEYTMrIAP7rGVagglpJTB2uG3Gh1d1PTdcH2PTuk2hXE0qruWSPVLd5qLVV1zkdTr6Ew9bEWbPCtIVV1zxNSveVZqV5Qvsow10/Y1XyqHvmuTJhhPayYdPZXvjYYMO0/1dQlKyM7C2BQet8t/uZO3yR1b18sy103HZp+nH2DF/hap7aP77fM6uZO3eS0625rnkNVvcecxbJL12UK+na6rkZadR0btUxPHRv1uHH1ioDRo/RNVbupfWMmWczy8o0gqN53prqBs9Y3exvnzJVdvqP12Tdxu9RNr3v7nJpTLV8zE8omwvY5dXvUDfaxMhaNrxizD+w2de33MPvQhz5uCwaxlLDnUaL+Vuv/gRMfBb6XnBsUK9F1zu2eWktHjvdZ/9cvmy/NRWxDqJv9EIo53yOLdB7Zwcbs86gSStl//e/2WdPr5349dxsW3m4P4nDSrwaVOm/V9gVdP5er65mnPl2Ayu+/EtYzwn4v2752suWy9ldBwz0fAGDcISOrQti+saTIEQjNaINyQX0am1onVReSciU9kl9CJqzZYWU0SaF6WybTqHCdrUy2kbdmVUKqFnxXqtV7VEnxtaHycbKyLHqkwkM/k8+zuhnmKjYrynl9oVEFw7xvlIwsO5CyvC78SFT6ZkhnFSRP9knjHJ2ZoOZ9sVeOnHaugbWSmHXRmynlZCioG/3sUb2sLAp9A+rzLbOzLHsZ7qytTBaTnMjOEHC2yX7mHVFPZ3ctkfZ01yBvhlF6eXo93TWIdIbB0+rmzAR0vG3lXZ71bbma18k80Nunb7C17OVlvmX3Li+hltfq1NrxaRcvZ/mFv6WPtH0B2SXFUzepJdSGcdY9f0aIWYZ+qI6ZA54MEJPZt6xBUgH7Pfu9M8dfoXUOfx45+zz7WPBytiN3n3oyM3K2sZDi94HTBkWd7z4K77/o55H7+uKdp0ldW3Tx/cL7JazS9p8zPXd90u3s975m++zsVW/bZ65n/ts4fPtPibSeJez3tOKP62z29rky10Iatvl018Kn7S8gQmXFAQDGBDKygEKKHIGwqnG+9Xoro+vVLXJhmxPE0vrl+is/D/c+VoZWEXW2LvTKNU8wqV+Gjj0rl9ZskStlDGJp1/c8KZdeTZpMqEaZuGqHTN3zrFS3lHe0QttI1RoztUVSg3LGnhCavinSH6hXblY3JekbFi37pkjdqOiAk2LXlPFmtfS/fUjWv6QzTWpk/n3+2VUDJ/RNkXliUcvQ823uzPuB3vrA/7wTxNJ0Pacu2aRrlCiN81xZWepGYa11o2XffHq6Hp4+JV2b98kB/S26NEhLUBaYvklcpW5MXPPq9dQjVWmeEcvU8lpMECt7ef1WrR1neWUScfucDJQ4SLQ2miCWvqE9lBXgydTyCg5AZDg37oWDWFrY86hWpllZdoNy7pw1IcBlORew748836mOXzuzR9db0lku3Xt1ZmJlRysMf76XQTHnkeIco/r64p3nqLm2NMiCouoYBSl1/52SY9Y2ZK9PrXxrrh3k8c16VNu+aau61vm0vb6e2e1yq0zLk6U3LPuv1PUscr+XX41Mn24eFmUY5juta+DZI8ASxAKA8YNAFlBIvR3IKq7Qu51FlK+G1FAqX2QpIRPuVe9zoTdEfat+Gbqg/pv6hFSvuV+qcrr79Ze1RpZjqEcHydQ27v25XNfLlzqZ8MgamaIDWmXsyhhLJw+H+0CdHlL+hOwPCiC8/bFVIDm7y026K86yJfaNehHdqfTNZlA3L+d95WuTM8ubbrqznEwGfEN+UbpeMV27/LoG6QCRzhozz9zODNiBM4+CyyuzkrdvtHOCAXo/5Ak8eW6w/WWCWOrGOmKGRyX164CcuqHd9NIJSVoBkxppXGZ3m9y4sEI3+2HP95IVeR6FVPkgSDhO91BvEN1cI327FdrSwaZZtdK8sEk2rmuTjp1tVvFvO0OvQFBkmPZf9PWszH4Pq3/gU/OoOMM9HwBgfCGQBRRg12kKmxWUkCpdH0uS8kVAVzgnY2sole8W0FVny56Q1/U9W+TKeymr9taULT+tYHZULnukwiflwo49ck2tgxXQWrVDqss2imCd3OguChIDAwOXzaMCnABK3Vx1o22PupT7o7vb+Dh9VNZv1Tfr5kZ9u3m9ujEqPrDlQ9dlMQ/TtW/ybZdT+8Y1X1ShlldGUbcvfcPlDvqNSs7IZZ/K+RICg1ZXJitzTSs+UzG/i3L+D/r/QpkY4UZhs0cq7JSVWw/LgZP6Zt+u/xamXlKxhus4jcI5RhtXL/XWDtM1l0y3tNRAOYI4Zdh/Jmjvro+UuE93rVZ/UfOMVqi7SVqj1m1fIe26xp2uI6XO07CG7TpT4noCAIAMAllAXk5gakCGQmU1FQ5A2RlbBQJjC+6TCeq/sFlg6nZFru/ZIBd2bJErVpc/V3ZUVlH5ijn7lnyu1uHSq3a/kQlLV5YYSDOZZkpVXZ5tmNEkNxW1j8YQp0vF1n3SebBPkqlBGVA3Rk5gq2NdZbtUjXtlDN6NenOX2PV4UifUsTZoB199BwWIzskuyZshNGuyurppIYNyumvo864us4/5F0Qfs9Ldz+yBI9IBcj3Qg5588nBwNmiRSt9/TvfCTBe7mfV2JmFgd0WrTpQZoCGlroEHD0unuh5uUj+6q5nT9W7ExWU9fUTtQj3c8wEAxhcCWUBeJjD13rty3Z6QX8F6WuECY0XXx3Kc7ZfrpsufzpC6fkEHtP5Obq7w6IJuQ8neUFlkYaRHSLy3KTAo5mS4hc1eC8/UcqlkkMIJhOhi4epmJu9Pvm5cp+0aR7s3d1ndqnQWiu5WpUeiWxtUsyqIkyXmU9Oovn6yeeQjz3xR5V1eBRS9fc4IW/lqg40q+WsF5WNljpiaWOmaPur4KpzhFP48crKH8nXfdDJ08nU185PuMlvImAxK2gEm7/brwSXyjzZZrHLsP7t7oVMTcLYs0F3uUn3yjm/Q0skqG5QDL9k1rnSdQV2Dqj9EN9nhMwrWs+TjulDtsyDDPR8AYLwgkAXk4wSmQnKCKsGZVOG6DNpZW2EyjO6362KZZx5n35Irh3QgKEzXPPVBW3d52Gtn8eQzYU2BGlimplhZHDMBxKlPyETfror3y8RH7O/3rx8KMaJkUZyuMtFv/gtKDzXeKG1FLiOxME+2lS6I7tR0CgjO+Hf/yRSfdw+hnw4CBK6n/3xRZZYXMAT7rHDdy8KKvn0X5Z0TdpBA1yoL3Id65MMw9ZkqFkRxMl1qZPnTeTKSZtUG/y6rsPuR5w9b3cAaV7cVOHaLOI+crmV1c6XVN0A2W1pN18bsrmbN6wrUwHICkQVV8HwfCQuXWvWXDuhC457geO7gEsFC/n0oYf+lmfewgmELb7eyxgpeU3SgyzN4gaNWpplHo8KIrmfU49qpr+eXQZfPcM4X/vMLAGDsIJAFhHFPi9zsCt5Uzbhfbl6z0ur+51aw26DpMjj0m6N5gi5O1lajTHR1C6xacL9MyMqsqmppkQm6LtY2O7jkCSCpdaxe6ltdKYc1opkJDNTnC6rMWCkT77FrYE3ZtkGtj/e2t2rBBpmyyl5meQJLb8mVvdatkVqm3U0yvY16+7atsffBhZ/LtYCaZKXwZgdUglNEvEaWb/erbaWHZl8qHXuXegM6epS91XYBa6v74Czv+iVc9W/867/oekFZo7npYEt6qPc+6XEXPz59VHqcQIheT3fAIN98Ubkyndp3emv76DpNHU63qHIpYfv6979mRjR07UPrN1pten2Xr84T6EqP5KYzu7z7xFPXqARHek7YwTrdJVC1qTew5qznisDugrnBhFOy24yomTc4poQ/j07JfqcLoHV8ugJr+pjeafZ79uAI1iiXdg2sDut4yTof9LaZ8yH5SlBmozfY560npYtzF1r30cnuplUj00u4hoX++xB1/3mY/VBXI63z9LoHD0yRpo7ptX7nnT5vrSLqo8SIrGeJx3WIYvu+hnG+8McnAGAsueHBRYu/Mo8r5vKl3A8hM2cm5MyZcN8FxhHbN1Yk5OZtO2SiFVjKpUcmvJIOoDivTcqVNc/6dkWsanlWpjxSlzVfLud12fzmC3pt2nt75NKet/IGldIjkRl6KPLAUZxmrJTqv3lCJgS0iTZklumVvy0zctvPygK7J2AbL6jXb/Nv7wxn2Sm5tmODfB66lpa6+dLF1rOyUYI47Zi3/Xxkt3+OVJ81apV7RD1dOLj1MVNzJUjOetemgzIDKfWh33feQTmwtctn9L7MvP785nPmCXrPPG02q0k6ts/1z6LRNWb+0CCNc4Lf11Z4+RlRts9ReN7kS12yO08tosBjQHc7fT640LUW+rjL16aW3G0s9N7p9c67nsWdRzq7qn1OwPmg9n3nZp8R3NS2bXw6//kwoEeny9eWedtHLXeVd7mh272Awu9TofPIGFBt2vtKr3T5Zgu59rFRaHsj7T8Xz/IKHDPZ6+ahl3VCpH1Zgzr/OnPOv8LtHk6Y94m2niXsd7cij2s35/392i+f4Zwvu21L3Z8AgHggIwvIq18+37bFjMaXMaSDJzuyg0plKvSuDPX8gzUKYUZKrr+6xzfraKhHF3m3Rwx0L3fogppn75aCQSytf3/SDFUfwlk9SqF6373JdDF2h90u9jLLSReyv7T353JdbVOG3SaXCgaxSmEyDKxv0iuXkdG/vys9uprn0EiZOjbqxi/7JsYZlW3TS3rkQjsLwqFvTHUtluAbwEHpfVHP22cFtBwDJ09IZ2Cw5qJ0pZdnJlnUOp9U67gqaL6IrFEZnRHnHJn22F/2YedL2T73vN71ddq00E2ZPgY2Hcyq46T34/Eyjqim23SVPTCAe7+Xsg/TGWlWvaygc6S48+iILs6edWym1zEoCGINfKCO+Zz57PNBF9bOG8TSzDHnfz715g2+jFqnP5IezzmUq76uQZbnGdGxqL8PSqT95+KuZ1aoW6F13mQvy1z/dC2qIwX+1g6XEV3PyMe16QqaN4POz/DOV+zxCQAYG8jIqhC2D7G0cKl0r27gG02PYrJ6RruxtC2Il2jHXjrb4mThzDRkM20u+bKaaqV53QqrjlbB636Evw/sv/hqXteujovi/1YM93xpfH4BgHGFjCwAaXY9lRA1ScaVi9L1oq4vpGsgZdWqAhBStPPIyrbQD+YstuvBWVMRiqk3lD+r6aKcCZndGOXvA/svnnQA0g5uvlZUUGm453Pj8wsAjC8EsgDYZjXJWuub82TkD5Jjlu6aobuFOMXHzWQARYh0HtlF5XXPq/o5eoADe3Sy7r2FRkuEQ4+oqbt9ZgeR9KAQbeuc+kIFBmqI/PeB/Rc37iy6YjKbhns+Dz6/AMC4QyALGPfUDY4eGU8Xg9W1ZOj+4e/tQ7J+qxn5jRswIJoo55E1T3a9NBR0OjMapx7RMRNEsn926dE0dVF2XStpa1DtqjL8fWD/xY6uZxalK+hwz8fnFwAYv6iRVSFsH+LDHlGsTn2QfEF9CGSvjmXUyALGG3uE0wapq6vxjFznjFb4ztsX81z3+fuA0YzjEwDGKwJZFcL2AQAAAAAAlBddCwEAAAAAABALBLIAAAAAAAAQCwSyKmSsd7ujWyEAAAAAABhuBLIAAAAAAAAQCwSyAAAAAAAAEAsEsgAAAAAAABALBLIAAAAAAAAQCwSyAAAAAAAAEAsEsgAAAAAAABALBLIAAAAAAAAQCwSyAAAAAAAAEAsEsgAAAAAAABALBLIAAAAAAAAQCwSyAAAAAAAAEAsEsgAAAAAAABALBLIAAAAAAAAQCwSyAAAAAAAAEAsEsgAAAAAAABALBLIAAAAAAAAQCwSyAAAAAAAAEAsEsgAAAAAAABALBLIAAAAAAAAQCwSyAAAAAAAAEAsEsgAAAAAAABALBLIAAAAAAAAQCwSyAAAAAAAAEAsEsgAAAAAAABALBLIAAAAAAAAQCwSyAAAAAAAAEAsEsgAAAAAAABALBLIAAAAAAAAQCwSyAAAAAAAAEAsEsgAAAAAAABALBLIAAAAAAAAQCwSyAAAAAAAAEAsEsgAAAAAAABALBLIAAAAAAAAQCwSyAAAAAAAAEAsEsgAAAAAAABALBLIAAAAAAAAQCwSyxrCqlmdl6p4NMsE8h412AQAAAAAgnghkjVkJmXBvnciF8zJkpkCjXQAAAAAAiCsCWWPWDLlxqvqPgE0W2gUAAAAAgLgikDVWLbjP6jp3/cRb9nPYxnq7zGqSjTvbpXtvu3S01pqJAAAAAACMDTc8uGjxV+ZxxVy+dNE8ypg5MyFnzvSbZ2Obrsk05RGRazs2yOdn1YQZ90v137TIhKl19gsuJOXKPz4r1/XvslQt2CDVSxulSmcRWVJy/dUeudbzVlZGkXrPba73zEstb41annkmM1bKlC1PSNV7e+TCHr8AT0Ju3rZDJk7Nms8ofvvM+11wlpeQCS3flYmPqO20XyBDal2uqN+VnjVVQrsYRW9fie2phd/vXs3r2qV9jnkig3Jga5d0nTZPAQAAAACIOTKyhkFVnQ54DMjQWTsoMnXLGm9gRQcr0kEehw7A/FSmrHIHM7Q6mfDIGpmybWU66GOZMU29LkywRsnuVlev5lX/DaVyVsLI3x2v6O2b0SQ3qWnW8nTQZ88OqXYFsbSqe9ZIdUvCPCtBKe1iFL19JbVnkfsdAAAAAIBxhIysijPZN/JzuXRomhWgsLKNXnnLCoxY2UgLRK4fc7fF/VK9Z41McLJwks5rlRn3y81/s0YmTlXz7H1Srhwz0z3M/BfUMrd1583g0eyMo7rg98ubYRRh+xZskKn6dRdSIlPrpMrKaPqZXD+rX6Nev2aHVN+jHgZmNEVVXLvYit++6O1Z6n5XdNfCp+dKY53IwMF9sn5/7rkHAAAAAEBckZFVcSb7RuZL9ap6ub53i1zSXeacAIX0ZwWxRCas0cGMpFzZsUGu6K5k6dcqZ9+Sz//x51YQpqouIGNJZyHp/0MWNLczjlLy5YD9PEfeDKPit6+qrt7+X2c1vbpFLmzT3fKc16jXv2JvX9kV2S62KNsXrT1L3u/a6aOye3OnrFzVSRALAAAAADDmEMiqNCd4MrVOhvZukCtZQY9c98tNOhtJGqV6y09l6h6fH53NY702gAmUhCtonrC7sF3o9a3RpU2Y22j9P5TyWfeit88J9OjMoi1yqSf49cFd8yIqql2MorcvanuWYb8DAAAAADDGEciqNCf75tUtwd3B3MyoeqWwAyV5MoLcTL2q4CwlE5gJer9ity/9fkn5IiAoVNU4335Pv8BZCYpqF0ex2xe1Pcuw3wEAAAAAGOsIZFWYEzz5IhkuKON0u9N1kC6syf/jn83kBErs4uQFOYGagoXJ/TOMit2+zPsFd+8r2DUvkiLbxSh6+yK2Z+n7HQAAAACAsY9AVkVFC55oeesg5WUCJe+9K9ftCXk5AZSg7KcqJ1PIN/AUYfvyvp8Wvc3yK65dbMWvS2ntWcp+BwAAAABg7COQVVGFs4+yDaXsNKSqe5uszB4/VQsSgb9L13QKKV/2kzX63iqdkRSUYVT89qUzjwLrVBX/nqEU2S62KNsXrT1L3u9ps2Xjznbp3tsuHetmm2kAAAAAAIwNBLIqyQmeFBOUOWYyhqY+IVO2rZQJM6yplqoZ98vNa3QwZIdMXGAmBrmnRW5ekMnusedV72eee9XJxMfuzwRJ1Gurt/1UpjxSJ9ffS1mT8hZ6L1Ogx2IyloZ+c7S8gSxHMe0SZf9ZIrRnmfZ7orVRGu1a+lI/p1HaZtmPAQAAAAAYCwhkVVLBekl+3pIre5P2w6lPeEawm7JljUy8p06G3tsj14IKj589Kl9c0A/qZOKqHVnzPiE3ZQVCrp8wy7pnjUwxr52qXjthakqu7XhSrllxl4DAU9HbV7irXqGueZEV2S6WCPsvenuWuN991cj8+2rNYwAAAAAA4o9AVgVFDsoce1Yu7Ngj1y/Y2TuOofd+Lld2PCmX9ryVJ0OoXz7ftkWumcwfx9CFpDVvzsh7allXPK9NyfVX98ilNRvk87NOBpV/4Kn47SvcVa8yhd61IttFibT/SmjP0va7rX9/UpLe2QEAAAAAGDNueHDR4q/M44q5fOmieZQxc2ZCzpwpc9YNANvCpdK9ukEGDu6T9ftzzz8AAAAAAOKIjCxgDErU36r+HZTedwliAQAAAADGDgJZwFgzq0nWLqsROZmUrtNmGgAAAAAAYwCBLGDMqJVE61Lp2D5X6lN90vn8KTMdAAAAAICxgUAWMGZMltZlDSInD8umzYfkiJkKAAAAAMBYQbF3AAAAAAAAxAIZWQAAAAAAAIgFAlkAAAAAAACIhRELZNGtEAAAAAAAAMUgIwsAAAAAAACxQCALAAAAAAAAsUAgCwAAAAAAALFAIAsAAAAAAACxQCALAAAAAAAAsUAgCwAAAAAAALFAIAsAAAAAAACxQCALAAAAAAAAsUAgCwAAAAAAALFAIAsAAAAAAACxQCALAAAAAAAAsUAgCwAAAAAAALFAIAsAAAAAAACxQCALAAAAAAAAsUAgCwAAAAAAALFAIAsAAAAAAACxQCALAAAAAAAAsUAgCwAAAAAAALFAIAsAAAAAAACxQCALAAAAAAAAsUAgCwAAAAAAALFAIAsAAAAAAACxQCALAAAAAAAAsUAgCwAAAAAAALFAIAsAAAAAAACxQCALAAAAAAAAsUAgCwAAAAAAALFAIAsAAAAAAACxQCALAAAAAAAAsUAgCwAAAAAAALFAIAsAAAAAAACxQCALAAAAAAAAsUAgCwAAAAAAALFAIAsAAAAAAACxQCALAAAAAAAAsUAgCwAAAAAAALFww4OLFn9lHlfM5UsXzSOv5nXt0j7HPJFBGUh9Kj0vHpIjp80kAAAAAAAAwBhFGVk1Ul/XIO3bl0qzmQIAAAAAAAA4RjQjy2PWbGl7erEsrxuUA1u7pIusLAAAAAAAALiMnoys06fknROD5gkAAAAAAADgNaqKvfcPfGoeAQAAAAAAAF6jKpCVqL/VPAIAAAAAAAC8RlUgy/apnKc+FgAAAAAAALKMwkAWAAAAAAAAkGsUBrIapH1nkzTPMk8BAAAAAAAA5YYHFy3+yjyumMuXLppHhdRK87ol0jKnRurNlIGD+2T9/rDzAwAAAAAAYKwalV0LnSAWAAAAAAAA4BhdGVkLl0r36gaRVJ90vtgrR06TiQUAAAAAAADbqMrIStTfqv4dlAMvHiKIBQAAAAAAAI9R2LXwUzl/2jwEAAAAAAAAjFEYyLpVpjFiIQAAAAAAALKMymLvAAAAAAAAQLZRFcjqH/jUPAIAAAAAAAC8RmGxdwAAAAAAACDX6AlkzZotrctqzBMAAADg/9/e/UBJVd2Jvv85kodXwp+GFtPdKEVUjJo/QoniZdKGf2aBOs3cTDP0ZK235L0xT/u9C5ERb5uV9Yxr5cW+YtrIWtO64tyF672VaQZubuiJyk1EuDKXEYUCzYiOqEOjdHdEoEGiE+7Vlffb5+xTdU7VOfWvq7rrNN/PWgVVp/v0+VNVe+/zO3v/NgAAQNAF31i05A/2edWcOnnCPgtqXtsu7XPsC8/gAel4YK/02ZcAAAAAAACAUUNDC4dk4OAB6X6SIBYAAAAAAAByjWqPLAAAAAAAAKBYNZXsHQAAAAAAAIhCIAsAAAAAAACxQCALAAAAAAAAsUAgCwAAAAAAALFAIAsAAAAAAACxQCALAAAAAAAAsUAgCwAAAAAAALFAIAsAAAAAAACxQCALAAAAAAAAsUAgCwAAAAAAALFAIAsAAAAAAACxQCALAAAAAAAAsUAgCwAAAAAAALFAIAsAAAAAAACxQCALAAAAAAAAsUAgCwAAAAAAALFAIAsAAAAAAACxQCALAAAAAAAAsUAgCwAAAAAAALFAIAsAAAAAAACxQCALAAAAAAAAsUAgCwAAAAAAALFAIAsAAAAAAACxQCALAAAAAAAAsUAgCwAAAAAAALFAIAsAAAAAAACxQCALAAAAAAAAsUAgCwAAAAAAALFAIAsAAAAAAACxQCALAAAAAAAAsUAgCwAAAAAAALFAIAsAAAAAAACxQCALAAAAAAAAsUAgCwAAAAAAALFAIAsAAAAAAACxQCALAAAAAAAAsUAgCwAAAAAAALFAIAsAAAAAAACxQCALAAAAAAAAsUAgCwBQ+xYsk66n22WzPrrWzpeEXVzTZs6XroeXSbN9CQDAmJXUevpRraf10bU6JvV0AYnWNm1zzLavANSSC76xaMkf7POqOXXyhH1Wa6ZL21+slpY6kYHUM7Ju7yG7vBTe3zglvX/3lPTU6qECiJl6aXt4pbQ02JcHd8iqxw/bF3GQtf9ZBp7dIuu2Fltgzpb1Ty+RpH1llLZ+ASbg9NBcabQvU091y4Y99kW5TODtrlnSOHhEup/cLruP2uXnrcny3SULZfVEkb639kvLG8fscgDwUE6MuOQy2dw2y77Q+q9H67+UfVESracfzaqnd2o9/Vy8L4xMIKvzNr1QjF0bDBj7zu8eWfXXyDwtm4zG5NW1edd88rXS+6cr5DV99F472S4cXXfML2V/ZshGZ/8Xy3drY/eBeFugjU7bM6noR4XvJiZmaoP14bZ0Dynn8fAyaVtQb3/jPGcCYyaIJUek+4H8QaxrLrtWNi5Z7JSp7mOxbLx2hlxjfx4ldz0tk5fcJHcULGfNhaL+/pJrC26joiY3yUK9ODUSVzfJHe5TINbGrfixXPrEX8lF9nW1FF9O2O+3/s7Gy+yiUN7v1VjbrObLiZEtPxPLMz2cNt+vdWyT/QHKY4J23vlcXVy7qG9rj3Q8OyQyZ4l0tdLGAWrJ+R3IOvGm7NOyyRhIvSW73ac15ZqmhnTX3ERj08heeER456Ozzv+JSba1kc/kSTLTefI7efeM8wRAbJleVu3S+dASSTbUpXswORpmSctdK2Xzw9UYTnBYtj51RAbsKxk8IBsr1Rur4vQc3W16dw1J74Pb89Yrd8xfLJtvmC23TPSXpRPllqtvkM0mKGWXZLvm2rD1tEye2CA/XLRCeucXDoSNuDP9ssutOqTvrX75pfsUiLGEXHR9g8gH/fKpXVINpZUTZ+RXA+4XbebEPBEqL2B0dlB+VUttM8qJtMTyNulcZG6IWNO1jr23loeqaz3d46unj2s9HfPeWB4TzOo+KNJ421Jpcy9qANSA8zxH1nHp+dv/KKv++j+WOayw2ibLNxu1pXH2sGx6S2t2vUj5Zg3cOXvz7O/cJ5+fVPhiadJE96L27Fl5x1kAIJ7yDxVMa6iTy52G3gnpeaBbVt3pPXZIWaMVrL4922Wd97ce2Ct9dnmtSbQudc7RwLPPS0++nljXLpYfNjhXkvLiW7tk1S+2ydfMY+d+edFcyJmgVNhd/8tuks1X2/X273LXsY9V+w876yYarq6JuiLojPxkh7ufDBfC2HCZXHip/lfFQFY55cSb/YNO+Zj35qfXNvvdR/Kms6BWUE64ZkvrIjNkZEh6H9M6775u6dhp7rzPkpv8Y/dqTF9K62ndV7O/qx6pvXo6cekU+6x0ux83bZg6abl7bOT+AsYCkr3XMnvHrG+gX37iNEwmysKmGrg6+ehs6ZVTzTWWxqiZ82X9w+3OUK+SukCXux5G3p7tvuCQ+3C6vacdke6sn1cir4MXoEkzuZ8ezGyjw/SYMsvuPJ/zQenFh8mlUbDH2Ay5xwlGiby4/wVZ88aZTPl45pis2aEXqeb5xNlyT9bwoDua3DfB5I9Z836wK8Wb77+h6+rF7s4X5CeRvSwmyhfdTQMYjptudIYU/v7AP7ivK67McsLr1ZTn5qdXjrzYT1C5NCNUfjZNFecdOpSSnn5nifS95uvtVDVDcuy39ukYdPmlNp9MWQ7LVtPWapgrrQvsIgCjatSSvSfm3yWdyamSev4/yobIaywvkfrb0v3X/yVniEZi9i3SesN8SabLpVMycOQfZeNzh0ICLZnE7mEGUptk3d7j9lWY6bq9P5Y1N1wljfZvDBzZK9te0WbEjf9B2mdVIdn7ZTfJazc0aANmm16wmFxTN8gtZw/Lqh1vhASFbIJMLWjNz2WyNoDmXZ3pin7W3M3LvfApaz2Tt2vRbEnIoHz/Fy/brt+T5Y75N8hffl7k6Fva4HrfWegOgdGGWN9bu6RFG2Eed7nIJu+CS7f73WuuloUN9i6h6hvcLx17j+Uea9jvnh2UXW/9s/ykEsfnKHc9n4j9/Jt9es4iVhvWeVHNa9ulfY594Qxt6snbK8RT0nr+xNjp5Jf10tw6T1bc5usGH5Hk2uRXar076QxN85gAyL5n9knPnqgvkP37c/Xv+4IpkeuZPFJ32eSlzj6e0mNcKivmeMPhhmTgYEo26r5HBWUT+jfW3O7fnl1nm66TfW5ytndY158vrbfP1eN0F5vz0avnI/S86jlpW5GUFt0/x+CQpJ55Xo7dXlyy93QyUocNJtlXUUo6vuxk64MHpKPkXlHBv5E3WXtW8vVcxXy26/UY5+kxTtFjLPBZy9pedrL3or8f9nNQMBG9LdtNb9vw8lx5v6Pf96/p991jchT+UBdnl6l56d/qvbpBEsVcgGVtzyi9XLLlZ8T2ovc9WO6+6dUrge0c1u1EnDN1jR5rZ4FjLencZWvSz8q97mfFSWT82pWZ14d2yMZN+h1drt8tOyTILFtnlgVoebZcy7Mv6+9Mt4vUwHH9bL6gn81UxGenSde7Vcux67KG9WbTba7K2ebIG3fZ1+Wi21fI+K82yDi77NPf/L2ceWJzdA+myxK6zr+XCb515IOUfLz95/K7l8NKnIR8/gc/kgkfPCEfPGECSrr+im/JhG8mfdt8Qrf5D6HbHHfTKpmwbJ5cdKlXEA7q7++Tj5/ZLL+37ZiMr8vkH6zw/W4+KTlzz4/l9/ZVWYZRTkS1vVy2PRlow2WJaL+Et7NcI1dO+JS0n2WWL8MsP8tjE6f7vsvuUEOR3se0/rHBrSiJpJZBi/3li9bvh7R+/7XW79nrBpK9mx5gz0t/oJyx6+p+BL6BvrIwnPlb+fc10aTtwW9re3C6r44uVA46tH5Pav2+WOv3vOvWS9vqpdKix1KU49q2ydeTzGsrkPgdqAk5PbImTJggX/3KVyIf5ueV0PfOYefOQvKGW9IVSI7Zf2xnFPzvWRdlJij1H6RzqT+IZUyVxlm3S+f/eZe0VbRTiRsE61yaCWIZjbPmS/uf3yUryu+pmpd7x2xQnncaU8fk+UH9r9DwwokT5R6TT2GRNlK8oIuhz2+5YaG8Nn+GXZCllPXOfCTuNdzn5Yr0vkyUpaYxYH6/KfO7V9o8WkfPRjdGTOPnNd3ual9jwjDPgw03bYToPob+rp6X1bqfkclNSzk+vzLXizwmMwzA5LApIlF+8edlFH1hqk38vVLa/UEsx5C8F7jY14uwtdoQs/mV/BptfqXQKY5Nw+Fp+/ezrh+89ZxE41F5C+Yk3fXTQSxDn89ZIp26Xm6+CXM87dJpknUHtmfXeahN1udLav6FK6TNHOddviCWYfZV183ZT6dhtCQTxDL0/CT1uAoO4ytLGce34IrATESpZ2p3aJ/DfmbcY4z+rPm/V1FMkNAfxEo9FR1Aa77BXAwMyb5X8jXA9bs98fPO/6a3beR32ev52hBMePzLflMR6H5d/aUiErtnFHURVoQRKZe0fL1SL1A36kWnGVYV2E7DbNkckWjZzSVU5AVnBTReOk/W+y7kGq9bIq2rlwXy2phl6/1fHnPx96iWR+Z3fEEso9HkwGnT8iwsqbNz0ajrFQpi1YSEXHTPj2Xa9+4JBqTUuK/+iUx74sfy+ZC6etxNf6Xr/EgmZ60jlyZlwp0/kmkrQr6xl82X8ZeKfDqoDaXLVunf1vV9QSxj3Ffvkclh65rt3fknWYEp3bbu4+Tv/Vgm35S1zmVNMq6oIJaqwHDD4ZQTeYcX6nHcYv4fDMtBNYx2lk/1y4nhtQdLLV9GqkzJOCXHzL31665w2ihuEEvrsuNH5KW8QSyt3+/X+r0tu3zRckPLos57tX5P5rtAqpOWnHLGrnt/JYfUaXtwtR7Tvdoe9AWiDK8c7FodkYzdlqHuMUavm97XS4K/MyxH35F9pgqe474vAEZXTiDr448/dv7/yleuy3kY3s+HzUu0Xjdbbo4oU5uvvEr/PSX73gn2lErMb7E9q05J6vlNTo4r5/F3z0ivM8JmqrT8+b/LKmQy+bD8j47UKfvzaM3LvZ5cwe116PZSQ1MDwa3KmSFLTXvJ19BwL2AKDS9skFu0YjZ3lb6/0+ZS+MUu+b7JseX8+IaIyr2U9c7Kv9jFaV7DyMjJnaW//5F9GjBRvniNzfdydlC368/3sktWvZl1V+uyLzkNFnO3Lft3vf285YaoBMkjcV6sy3w5bN7an8lpoY9V+23j8uob8swUVOJ58dm97YCk3Ovcgjl6/MpdzwRn1txtAlP2td9vTwWCHc1r3WBSPiaQsj7QZdtLnF1AQ75ocp4LP93/FYGhlCYPVMTxpJkgU56EnyZQEnmc2khc4W+caaMzb8+jSivv+NwAjeeIvOzrrVRzsnpXRRncH90bzxPs6WZ6avUEemoF1UvTF8z/p6W/wPenmAB/+A0D9f7L8n3nu+oGxV9bcpN897ICES1dJ1OG2OFIppdHepnvEdmboJRyKZPnxv9Y5ZWbBZljMzcPzsomXx4wU346QoZcmnLXyyUUXMd7n03vE3dZ2b2xsl03KxDgNZK6LFvyq953Xr9/3y7i+z49uzwrcr2a4PaQMsEoc85///T35OQ9fyEfOI/vyZlfpeRTfX8n/O+rgsEqJ6jkBqBMDyr/Oid1HWPcN/99bgCsscn9O9f/e5n2vT+RcR+k5MyPvpfZ3m+c35JxDdkr6n4uM++eu4/u79vtPe3u40V3Zm3v/c2+/XrC7W31wd/7lvkeP8jT66xIwyonvOUmaOMsyPACZKHDCofVzjJGqJwYZnuwpPKlIuVnqU7IS6+7ObHaH213g1imt3XevFNaTtxvAkP2ZSit39u0fi9n9sPpc2XN8nxBsOI1r3aDZfnk3AQwCvYCcw3+pnD9Xh59Xw6Y92WKNEW1AQGMmNAcWb/5p3+Sf/qnYPJz89osr5zj0rP/bf1/qrTc6AbJAupvkRXOze3D8pL/5rYuX5Ocqk/coXwbDvuCXCcOSc/fbrLBrKtkxfy8pXlxvP0I2V6fbm9DensVZgNDgYbG+/1OBVpo9kKnO/beN3zD187IL994Id048PeY8it+vTPyrpPvXRssk5wFtmE0KC+adkC619hkucJpL0XPWHhLQ4Oz3a/tMMPt/L90Rt7MXkcbE6t26kVIyO+a/XQv7rIacz7VPy/GZPnu1W6UwM1pERwC+KYeQ4vTWMofkCzpvPgd3SsbbILtvEObspW7ngkSOYdreqpskQ6bL2nVnfp8m6/b9cz5siLdq8UEBPy/6+ZX8iRv99/1myozfEGXAdOd27+Np9wAXOHg25D06jad9R48EMgz0XjbvEzQe8G8YC8o3Z63n04OKLvYCUgVSPhpjtHdXlaSc9OLzT5NtCaDF8Lp7W2R7kDeqwqp4PFVlX4e04ndvYfvMxJNG/JZgU/zmQl8Ls1x6rLogJS1YFkgiGWGC+Zfx35WB4fkPXdBBK9cjArwe0JuGFi/3Gsu9tyguClvTe+D6On4K6fscqkc5gL1Fy8EhgeZ8tMt57VIyZqRLX1xruVucJ03bJnbIEuzYxmVYIb+POYvU8xwmm7p9jehLvG+8/oZ8TVLzLBDJymy89DPZo+WZ9rEGNip5Zm/10XTlTLPt16qR8sWu45/O2aoo7N8FIcVjlvx72WCkwDdBHj+Ss683OcL6PTJ77f9WE7+6Ak585/8gZ6vy+Q73ZLw90//hZwMDAPU9c06v3Lfw/HJYKk0rsH9tjs9pX71PfngBz+W37/vXcLq9p75+/wBpQ/2yceBIYu6vZd1eyYI9qO/kt/lDC+0TO8s83/VEr0Pt5ywvfhzPvd2EqF0b/8sw2xnGSNSTgx3P0ssX0bFB6cz5crxI9L9WFbKABPUub9NurzgUlLrd/9lj5YvHbZ86fDPJmjq92/nq9/dMswpSwJlm7aXFvnaS/1aT9u/n37odgrS/V7hu+wz5Zm3n+Zh9tWTXOzfz9yAvilDM+uaMlSPU5dtSDe6TkjPI5mf9/r7RQTKX/soOkF9ncwIv2QAMIIik737g1mVD2JZh99yL/BmXZ3TRTNx5WynsErtfzFYqEyd5hZiR/4xIh+VFyDTAveL1wz/Qqzg9qojOKzQU8zwwrOyqz+8peB1NQ+fbbC09d75yG05uZW9N7viWXneWe4FuPR/94ZitMH9Jd0dTzeCJk+WOy67VjbOXyy9SxbrRZybNyaz7Wwjc14yU1oflieiGsDFBCRLPC+jSxtYD5qeKid831V97gssJW6cFWh8mGFznU+7yeXNwwwBS2uok8vtUxNAPmYblobpsdX18DJZ3zpbmmfqJcceNwBXKPjmDAfzciId3SsbA0GizJ217J5H3b4cWmbWvG0H7QujYZbcHHFHzg16eNs7LC8H1ssc3+WB7pz+7Z2Q3Vufl17fsVdCpY6vZs3UC/6sQN063zE6n0sz+2Gh3BY3LJMu32eyYM6rUfDmGy9Lyy/cHkfO7GVa9jnT8ZuAVqEeWuUasXLprGwyuQTtKz+v7ilHNS5OU7/Rz1L/Ka2tLTv0570PwgLRdriQZXocdN2v5dlyLc+a9DuY0vJML7rW5Z2y3iRj9n5+IrCdxi9fOXrBZ8fXZcI3zRcwJWfy9Uh6/x8C+afGrVjhJE3/9FffkzMvu8uyfZra5/y97J5V4xrcL7zT82tb5puezRl6GNAnn36g/136JzL5nq/LuJwgZ19Ijiwf2xOseoneh88bhhy42ea1UUKHFbrKb2dZI1RODKc9WI3ypZKcoYRm6Jzzakh6f7ZddmcNKUx8TX8+vU4GP3DLg+avZtXvvpxWZjbBbf7g+nSt3yN6ZaV6fHmt+rW95MyW6NH2Ujm9uXyc/bbPjWSbtgcf1bagfZjjTtPjS7cHswL6JhBl8g8G6ncza2KVA/l9A6ftMwCjLe+shSZ4teOFndUJYjkOyVZnaN9VclNgKPR0ufmLptfV2/JyVnmUmDrN+X/g1IfO/6FOnXTvINRN810Ql6eo7VWcHVZouj9rhWwqZe/hVc7Dmr0wpKt5UXzrvXnW6ZJl2YDV7z5yGk6mUgk0nM6elXfs02x9JTYarjGNlSV6LhYtlB/eMNsZ9mfyclVEBc5LekrribP1gjL43mUeN2SGYUYo9byMptRThWepCwZsCvF32T4hPU9m3RFsmCXJ25ZI+0Mr3UCYyXM1s7Tu7sGGiHdnzRsaZoX0rNm9v5heQbrqQPBC9L2BsIvawturrModX82aERxGmtpfXoM2OSfY0K6s3B6t4Wy5WoA7U+E2MdPxbxo05Yabvy8yP8ww1HK55NVJznAif/VocuGYZNgq7xCtsoTM8PVhcEh1kJZnP8sqz/SCMrlIy7N7tTwzF3L3a3nWlFWe+QNlpjfFve1uTwyTC8cZcmTl3fYI8Hop/eaVkpKcu8GoQTmXKnXvEzLO9P6SlJwLTQSvfzs5zx2uOJj7898/YYYeDjo5tKZ972/l0id+LJNXfN09hgIumusOS/zM/2ZWVAXKCXvTzJ8/65qmBqeNkm+2wuG2s0aqnKhqe3A0JU2ePf1em8Tj95neneY7b8oF+3NHvdz8ZfPdPyIvOz0CtH6/xPxvHQ+p339TXv3e90FWe8nfjihDaTMH+gJnX8iq381NBADntbyBLOODD/z9MCsvNOl7ZJL384Q/31SEQsMLq04bKqZZmDA5HPzDIL28DKaX0uRJ4sQjfvdRZZJ7mtxTprFi2ilnB538UyY3wiqbH+H7Fe69gtGSlWPIDDN7cIt0HxwKXACmNcxyglp5E7DnpRejlUprMUYFA3Gz5KbzbOrpxtvM58u+qIBgj9YIXvmZZ2h2wJlj8pO9viHPV4cnRB+z0sOCbO4w78aByYVjFg/uj+4lO5LMcJzHzJDAiPJsupZn9+rnLZCQ+bBsDfSKMAEwvagLZE8Ykt5fj/KFne2llNv7KR8vGDUgnxbRAyr4ty+TC51hjNHD+7wgWXjAqU9+/8RfyQc/yuTuuuib9zjJ6EOTw6cVuc/DNPxywhtemBli5+bdyjNcMS7trDHbHqyXtsWmR5LpheUOc9u9yaQnMOVCWya3lR1GOLBz3whfJ4UE76tK24N5k9uPvERjlWb4AlCygoGsqjvxomwzNwl8Sd+jkrz7NU7133rI4g0HHDpZsR4OebdXYe6wwrOyKZ1c3P/YJZtM2ybv8MIIXm+hPD2kQoWt5wtY3eHkJvEaRt7wx0wvpcrcnfPuqtvknDtedvJPmdwIbwbyI5ShkufFBvjMRVPue5f1iJpOewwKBkKOSLc/91HOIysPxMx6SRw9Ibsf77F5k0yeox3S/aw/54O2624vflhNcIid54T0+xtogSGOrvD1KiRke5VV/vH1vZJ9riPya5TYM67ijgWDA0m90CnbQf2M+YZaJu8Km+HSzw6DLeJ99HoP5bsh4fWcyDcEKEx6yHMh5fZArWluXRM8fjvpRnrK/1HWpOVZv5Znm7Q8c/KymLwu+lnbmfUdWxwsz/qeSzn5s0IdP1LUlPzx5SVmz+pZddONzpDE6EBWkQGn923uLpOk/UdPyO8/MAGtkMTyaTaAVmLPs1JVopwIThJke/ufHZRfhTabqtjOqqga2M+qlZ9eHj1/AOewbHjMBLNMzywz6+BsG+w6ItvSw5C1fvcPHPEPybOCQw+LV+56UYLDrrU96M9RlfPwtQd/m1W/pyfRKFM6d2E5uAEK1ILRD2Sp3e+4Sd/nXWlK7+vkJlNmZid5t7weXDLr30pb6DXTdGm7wQTCtOnyL28W16DPI7O93DxejvpLzGiWCirU0DgjvxpwIlmRwwvDu6FnkpBHTeVc2nqZBKNXOHf4MncD3buIDbL0GjfQU9HhHOa8+JJzZkyWK+yzKCNyXs70yy7n8K/OMythFc2cL+sfdvNOdQVm4yug3PWKFAyEzJL2nOGAenG3QPehNbthYpJ3m3xabdK1dr5dx+Q5Oiy7t+7LyukUHUBI3m625z5PLFgWSDwvg0fkJdsDLDi0TvdzbWYK53zrlceb/cZjZlD0tlcvzWuXBhOzV0DZx3d0b9a5niudzntoXyuzftdDK4v+/DhJ9tPr6/vv+1tl86bG9picar5jdD9nup/6eYqcddIYPCAdj+tn7HF/on73fEXzAoVFzGbkDfkJm33PMUPucWY+zR0CdMf8AjmwvAB7QfkTNseOM2uhODeATO6wzE2D3Ek3Ro9JVmzywWh5tlrLM2cIocnrop+157Q8C+Sw8Zdnut79djYyM9zosS2Zh7nYe2R7kUGs2ZlyPu9nuUxaFzp5rL75LTfAFOay7KF7NleVJGX8Tc6CHP4E8h/7cmh5id6j81RF9dj6upsXy74KeP8f5Mx2861vkAujxhd7QyirbRjlRJo/J6ftPR/V1kkbRjtrRI3qfla7/MzKRdWfCWYl25Y4vbFSPcGbfsGhg1pfrfbV70mt3/3zatlcfmGSbZmeX6WsV6y+17LagznDqbWeTmp7cHlWGdWv9bs/mG9yDPqO0V1P63ctX8NnZcwO9s2V1kDPV10/e1h3jnq5ea656Cs8OzGA6quJQJYc/u/OzH8mOXvz7KudWbxykrx7vB5cMlVa/vwuWT/buXXhqr9O2v5itTMs0eTX2ra3AsMiT7wp+5xrzauk/S/+nTT7yrjE7H8nXX9+e87028NSREPDu+MefpfO5EfJmr1q8gz57pKFstpp7wzK34Qm4Sx1PZu/QRtYq83Ftu9uoLd/Mz/v76lVIbq9zsDMXJO1cXaT9Jr9zHvRP3Ln5SdvuXdAVy+y6wUaO5Pljmt1f/803/TV5WteMVeS9jw03rY0/8W6T7nrFS0nEKKNFy/HlfPQi7u7dB9uSwa2nWj1gjl10jhnbs467f7Ay8F3o7vYO9tz1zOJ5QN5Fp7xzVKzZ18wwfqcJemk9MH1hqT3yWJnt4mW3dOp8TZve+bYKhohdw3j+IJBHeU7p/71zTC88GBWVtJ704BNr79S1txYqAFZjBPS84y/Ma/74ztG93Nm9rNOWlZEX8hnPhN68eCfLVH/Vr4hhm6gsE7mFTyWY/KENwTQKV+0HHNeKZPTaYkdDpc9acTka+UvG9wcWL1LTC6o4JWUUxbafFAvvhXV49MbbqRl1Lxrs/JJmaTJ8YxuubMWTpQvDid/ZJUllmt55jRZtDy7TsszLy+W8zDT0Tu/5jrkK8/8SY714qtT10s/0ut7wTH7eyGcWVK9cn5OsKytiPf3yjkblJr8g7+Siy7zhVT1+UX3/Fgu/d49OcP2fn/ALVkuuvPHMvkm/zpfl8/rOtOcBPKD8nFgpsNCwwaV7bH16at7g+uZ5PImL9YP3O0FglK6zcm291dBX10hn/ft7zhnf1dFB/FKVmY5EZDpJX9Pk9smi5rAJq3sdtYIG5X9rHb5qfWkE9B2e1+1BQItunXfZU1ysQkA2RdGSuv3rECPVz5kEscbmWGL4dw8fLnr6SZeGH67xwyvzk48n10WdrZpe3CRllGB8kzr9xey6nffMbrr2fr91vD6PTtPmEk0H9jutwv07PcmlMnX3gQwYmojkCXH5aV/OaVl53xpX2p6U+Umeffb/dwmJ/BlglnJpatl8//5H9zHn99ug1inpPfv/kuFCpnj0vPrve7FZt1V0v7ndlv66NR9bRx6W1LBcnFY3GGFBXoxecP6IoYX9p3VCx1n9qpMjhA36GKGK4bP1GKUu54RGD5o989NullkfpeCMg26hH8f/3ShbNYLt4Q2Zr/vBJCijdh5MdNCO/tq1/Pna9H9/eHVur/64zHVG6IIux9381zlFwwC9L2Skt6C66hBdwa+UrmzC9oXDm0oPbBDUnk/SkOSeup56anE3TiT/8sfKMkykP8jXYbhHN9h2fBgoXXV4AHZGDHDX04wzKdxboVmXNuzXTr0nEZd23rMz4vanv69oocY7nnXOb5ijuVNZ4p4r5zQcsxXvnh5X76fPfz4zBvSstOdpTCh5f8PFy30lS0rbFmo35vB/bImz1CqX75pZ3rSC8FgPimTNPlLVQmyV5t3A8WcS/858T9M8O+7oxio63tNy7NDRZRnZqp9/8xbgWTvUbzgWLusLyoOU0zAtVR98rv/9Pdu0OjSpEz+3o/k0idMEnV96PPJX22QT3/z93Ime3bBl38sZ35jnjTIRXf617lHJug6ThDrR38lvwt8pgsPG/R6bGUnev9021/JyV/pGb3U3d40b3t2mxc5wwafCPT+CkgH7Bpkgm9/pzn7+yeRPcvKUVY5kcXrJW+SoTu9mCLbZMNvZ42M0d3PapefTk4sJyBVJy3+QMu9bk+sgUMH3HLECQDp8tVe0Ebr90e8daNo/d6j9XtUr6rjEbn71MBObS9FVeAl2r3JzROYn5ZRX8sqo1Jav/cMo35PZQX7soUMyfTzZuAudyIZAJVVI4Esbf7s/cf0BU7hJO/Hpedv/6N0PL9XUoFy8JQMHHlGOv76KekJv44qz4kXZd3fPSO9R8wMi55Tkkrptv72v8jWU/7lw+HNVjgoz+e5CPHfEcodXnhWdu0zU7Jro96t5x19g4fl+ztfkJ9ENmBKXy8zTXH2Hb7MsMNKMg267P0zjTIvR8Iv825z5M6LYfbVm0Us0IQ+a/O16P5Gb7N8u7cdSAcaBp4tPthS7nqlcfNcdTy4wwlOBRoig9q4enaH/qxb1vmDIEcPS4+us8pbJ6ttOjB4RHqf2iIdD2Tl1QoYkt4HtwQDYna9wLbSDsuGB7rdYEhge7r9g2Yfe2TDngoWMHu26/GZ8x+yf1m9iypjGMen74e7btb+Ku+9WPVAvju2bjAsOzg5YN7/A5UqR/X7qefUmSDA5FHLOcYD0m0+Z4/7p+3Oz3w/Mp9XvXiIHJZ1WLY+q8fWMFfWFDHE8pcmOXt2maZljglEmTIiNLh+xsxSuCtkPT1uc1G7c5e07C2QvMMJiO2XF7U88jPrb9r/z3lvWtSsM/3yN84FfzQT/FtdpRkdi9Kv5dkmLc8e0++ASfaedUE1YHJd9Wh59kh2eabfm8eCsx3mE5U7pm9rqnAgerje3ywn73FnAwwM5/sgJR8//T05+USwV5Xn90/8hZx8OmWHGVofDMrvf/WE/r3sIJYxvETvJphl8mF9nLWfn5ptOvv5D5F/V8+k/O4H33PW9ftUj/HMj/5CzkQFwMpUVjnh48+bV2hY4fDaWSNnVPez6uWnft8fyZ0Qwisf1m3amy5HUibw9IG/7jTrah1tgj2B8kV/75DW749p/Z6Kbr8MvP68rLtP20v+IJO33XQ+rkpw8wR2eGWhXerQY0rtNPuq9XTINvtSWr+bCTNMXsGcY9T63ay3Kap+N8E+LWNzzo85v2a77+bJrTxbWm+r0yLlgGwN3AAFMFou+MaiJX+wz6vm1MlKFn4IN9kOdzO9hPIFZrKVu15ccF7OSwuWyea7vASlJpDVU6XgHJCtXtoeXiktDaV97q65drFsNvluzEQRhQJRyGLLa72IWxXZO2Wy3DF/oZNHq++tXdISOpS8RjXNl65750qjKctCk7rrZ261fua8oYl6wbrK36Mrmy0fTY/U8GA+ahXlBGpZYnmbdC7y0iJElVfx1Ly2Xdrn0J4EaknN9MgCgOqokxkz7FOg6k5Iz5Om90ydtDyUZxhiljffeMtN7Nxwg/TO9+d9QUGTm2ShXtvn721yxteLOF6abzVBLMMMtfEnNzZMguMrZZ4vv1awh0Yud/r4Idn3CkGsuKGcQO2ol+aklj/2lTTNlpu/7M/t6Z95Md4SrW1OTtbqjVgAUA4CWQAAVJLNfTZghiGa2R3t4vyOyRozVEafJfQiNZP3ZfHozIAaQyZfzsbLfAmxrWvMBB3zbU8WGYyY2CMeGhf5kxubh5sYOZOQ2T8lf4iZ82WNGR5zMMUFWSxRTqBGJOdJe5tvwgmbwyvNP2FFjJkgVqdTZu6gBytQYwhkAQBQaU6eLpvXqNjZ4d5/2cm9YnLroQRn3pC/cdIVTXRmdMxc3LuPzWaCDpvoutDEJbVo96+LzI9lksQ/FpUvsF4vyJZJ10NzpbHMyTFQIygnUAOav+qlbwhx/IB05BveHDMmf+gqykyg5hDIAgCgGkzPLDMRQSk9X84ck5/sfUG+9ott9kGOvmL8cq+ZlMPM6Jg1wYZykzDvqtokG1XXr5+j0OTGhpvg2CRjXmWSxEcO5ZkqrbfphaeZ0CHv5BiIBcoJjLL3fnPASTYf4CVqfyTfpC/x0re1x5kcBkDtIdk7AAAAAAAAYoEeWQAAAAAAAIgFAlkAAAAAAACIBQJZAAAAAAAAiAUCWQAAAAAAAIgFAlkAAAAAAACIBQJZAAAAAAAAiAUCWQAAAAAAAIgFAlkAAAAAAACIhQu+sWjJH+zzqjl18oR9Vki9NLfOkxVzZ0ljg10kR6T7zu2y274CAAAAAADA+ammemQ1r10p7bf5g1gAAAAAAACAq4Z6ZNVL28MrpaVBJPXUFtmwp9heXAAAAAAAADgf1F6OrMEDspUgFgAAAAAAALKQ7B0AAAAAAACxUEOBrBPS/1v7FAAAAAAAAMhSez2yGurkcvsUAAAAAAAA8DC0EAAAAAAAALFQI4Gsekm0LpMVc/Tp4JC85y4EAAAAAAAA0i74xqIlf7DPq+bUyYhZCGfOl66H5kqjfSmDR6T3ye3Sc9S+BgAAAAAAAKyaGlo4oI9+9ykAAAAAAAAQMLo9stLqpbl1qbTfVicyeEA6HtgrffYnAAAAAAAAgFEjPbJOyO6tPdJ9UJ8yayEAAAAAAABCMGshAAAAAAAAYoFAFgAAAAAAAGKhhgJZ9dL0Bf1vcEjecxcAAAAAAAAAafTIAgAAAAAAQCwQyAIAAAAAAEAs1F4gq2GutC6oty8AAAAAAAAA1wXfWLTkD/Z51Zw6ecI+yy/R2iadt9XZV54j0n3ndtltXwEAAAAAAOD8VFM9svq29kjHs0dkYNAuAAAAAAAAAKya6pEFAAAAAAAARCHZOwAAAAAAAGKBQBYAAAAAAABiYdQCWZdfnrDPAAAAAAAAgMLokQUAAAAAAIBYIJAFAAAAAACAWCCQBQAAAAAAgFggkAUAAAAAAIBYIJAFAAAAAACAWCCQhbFh5nzpeniZNNuX2RKtbdK1drZ9BQAAAAAA4ohA1nmvXtoebpfNT7dJ20y7KG4WLJOuh+ZKo3me5xga5yyRzQSzRsk4aVt5iWz+zlRpm2YXASPC++xdIl03jrfLAAAAAMTVBd9YtOQP9nnVnDp5wj7LuPzyhLz3Xp99hQwTWFopLQ32ZdqQDAyeln3P7JOePbnns3ze9oak98Ee6TlqF8eF6YnlBLGOSPed22W3XRzG9MrqvK1OBp7dIuu2VvIcxpW5wK+Tlin69PQn0rHlY3G+kVdNks0L3Qv+1K4PZcPbzlM1XtZ/Z5Ik7atiZNb3tvWZ9P78lPScdH4MVN+0CdL1rYvdQLeck+6ffpS3nBi7Sv2+AwAAALWJHlmxUSeNDbOk5a6Vsvnh+ZKwS89v9dJ2twlimSBc/iCW0be1R7oPijTetnR0e581zZb1q8t4D8tdrxinP3UvagM+k2On7FMgrk6ek32n3acDr547T4NYWWrh+16L5SAAAABigUBWzTI9jLpllfd4cIt0P3tEBsyPGuZKJ8EsSbQudXquDTz7fNE9yXY/vkNSUictd4/O+Uskl0nXvUskeYldUKRy16usc7Lhpx/KqsBjSHqdIIHpaZX9M3p3oBZ8Kj1b3M/julfO2WUYTfEuBwEAADDaCGTFxdETsnvrdln34IF0MKt1gfOT89Rsab2tTmTwgGwsaZjgYdn67NDIn7+m2dJ2f7t0ts2SxuNHpPdne0N6RIQod72ifCr9tqdKwKnP3M8YgJExbYKsT+fxGmcXVloNfN9rshyMoZnzZb2T27Jdulrr7UIAAIDzBzmyqq5eEgvmyZrbtQFu814NHDwg27btlfduNDmbJCs3lZezKjrnk5fryQRxOh4IadDP1Eb/iqTMm1Nn88LoNgePyLYn9e/l9FwK5sh6yQSI7k5KskH/vjE4JKlnnpcN2Xm5vNxUUftQRO6txIJlgfMSJjKfla67+a5Z5eW78vb94A5Z9fhhu7B6TC+CNeYCTJ8PHNohGzcdLuoirNz1StF86yXSntC//+qQrHvlU3dhOqdQMfmEis19lf1743Tbk2RF4sLMZ7TvE9n4a5u3J8y08dKWnCDz/OucPifbXtB9rFDOLfd8mOP+RJp0/1p0W6a3WWrXKdnwth5DzjJntaCy9lPPx40X6/kYL40mh5HjMz0nH8vG1Dnpq/h6KmI/9x38RHretp+FEImrJsmaOf7t5Qp8njwj8P4F8kCFCN2vgGGcz2Hwvoeu6uWRG/73vXy1WA42r26X9uu0rr1vnzStXiot15l6T+u8nh7ZkNI6LGeZs5pPvTQvnycrvqz7N90uMvksD6W0LNP97LeLQjjHtdi/Xq6BnVq/PZdbvzWv1f2eY184Q+tjmN8SAABgGOiRVVVuMKfzLm2s+oI1jXPmSvtDbbJmrl1Qor5XvCGGdXK5syTDBLk2P7REWnxBLMPk12p/KP/d2xkr2qRT100HsQx9njR5uSo821/zWt1W1nkpRfMNs/TfIdn3SolBLOPoO7JvUP+fc4U0u0uqw9+LwFxs9OhFSTEXYeWuV4b3Tn/m/D845Lu4P/mpmNMj+rP3nAUVNnW8rF9ZpxfUmYCG0Zi4WDpXTggd8pm4caps/pYbRAqsM2W8tH+r0r1YxskKEwzRbbkulOScCdJ2a9ayhZNyPj/l7ac9H9dnB4f0byQmSee3psr6iq5nAnLR+9mysE7WX2UXZGnW9ToX5g9ihRnZ969c5Z7P+BiV73vNl4NTZMX9K23AytA6b/F8aVudtaxtWdb3fbas1/XaF+n+BYJRWvdet0Q6722T9cvD69vm1Vr/mePKE8QCAABANAJZVdS81vRIMs+GJPXUlnS+q44HD0hq0CRv9wWMSuEFYrQB3uRPWr5gmdtTy2zv2R3S4cux1fGUG/yKTnSuDfU5dU5vse4HvfVMXq4h98dzlsj6Sg3F0/1s1205d5L95+UpO2zSlx8svLdVvTR9wfx/WvrLugt9Ql46YI4r6/xVkLnbbnK5tOiFiulF0HFfj/SkCgfdyl2vXH3+C9q0z+RY2BCkirhQWhZOkqTpmbVrKJ1Lq2OXzV005WJpzQ6iXDVJOq+3vaBe/Ug67Drees7n+vpJ0jbN+e0KuFAanZ5jZhv6GTXnQverJZG1TMbLTf59LXM/EzdO0POhT06fk+5AnrEhd73TF0pYvLfc9eQqcywXOr2hun+eeQ/Met2vuoGOsCCdOT4TfHR6DAXeu0/s99b06HGXBXo9jej7l8mH5X902OPKp+zzWQG7U59Iyn7nBvQcVWtWz5H+vsejHNS6eLp+px/TOue+LdJ7XBdNnyst12Utk1lyk2/K1sTypCRNIOq41lfO73mPLdLRo/Xt8brwz4seW7vt5WWCc956HT2++s8uC+uNZezeZtoQ7vNSckQCAACMFQSyqmXmfFnhdP3XxuqDPYGheX1H98qGB3akG6Llq5MZM+xT0/vrdtNLSST1lG5va/DOdd+e7bLuqSP6rE7m3Rh+l9gZpvf4Xt/wQ5OXq0c6bDAreUNlemUlbHcHs589/vOyZ6/dR71gyBs0myozzBXC4NAwexD4z18FNc23Q2HMcJQSehGUu96wRcxWdjpsZrMKMIGCn54KDF/re/sj6bYba6jz93oZJ21zxjvPnKF8r5wLfq51vXW7TBDsQpl3ReV6y2SCCZ/KS31uEMS/LDfX0PD30wytDA6x0/Nv1tuSFRjKUvJ6+rOOn+vPtpghff6ffyq7Xzll34dx0pQdcLPvizm+4Hv3sT22rMCeY3Tev+Eo930YlpMfy4Z0QvoqbSNthL7vMSoHB3Y+Lz3OMMAT8tLrbn3nX9b/obMo1MDr+2R3YAjhCelLaX37SHggKnGprf96gsG5vpTWfz22/vMFzEI5bYjuPDd7AAAAxjYCWdUyww7tO5iKuFt6So7ZZxUx80qZ5wR3DsjWPe6iHHveFZPio3HulSHDt6KH6aWHMn5h6ojN9NfQWN0Etn0DVeqCkKXc97iin4189AJ9lQkqZV24O71afm17SVXUZ9JrciLZV37esKeAaeNlntNL5hPZGjUD4tvn3M91YnzFPp+BoVeWf1nOvg5jP/vezfRKWn+j/qzInknlrmekcz1NGyfNV02Q9bdOla6VU51k426upgtlxlTnN0oSDEKqUXr/yjGc8xkbI/59d9V6OTj4QW7d51/23ge2Z7JP32u2l/OipbJ++WxJNLnLK6HhUhK4AwAA5EMgq0q8XkcDA2G3vitlSI55LX0vcNYwVzqfdmczyn0skUI3evMKyclVDi+IlLxrmTT7h/bNnC3r73J7lQ0OxPguc/9e2WiGlkidtLStlK7VepFjf5RXueuNZVNtTqUpF0vnd9xZ3XIfk4b3ua6E4eznyY9l3c/N0LILJXm9ycVkf3+lycmUJ6BS7noqYYJXZpa8b9VJ+8KLJWlyV03x8n+F84alOcMO/X972nhZv9DtdZUTAIzL+2cM43wixFgvB3U/1z12QFLH6yS5yOTE0jr2UX3cb3JjRQe2+j6w9Z/JueX/nSat/9ps/RcSWAMAAEAGgaw48npflZ0japTt2S7dB80TNwF9OtBmEs2bxQd3RPcqqxAv0FgtztCSx3Y4uVWcxL+PtklbsvBd9nLXQ8x5Q8t+bvJUnZPU6c9kYEomoNJ1a0RvpXLWMzmrTPDK6Sml67z6kZMrq8Pmy/KGeOZ42xv+6SZoTweivmUDUX0fRfe6ioty3weEGvPlYP9e2fBIt6x6bIt07zwiqeNDMjA9E9gKDcLpsXUfMk+0/vOCX+Zxr63/Dmn9lzM7IgAAAPwIZFVZY2MZ43MKSNxo8oeog+9mhmgd0wa0+f/gjnTy9MjHA3tLyzni9fYadk4qP5uHxPnXY5PUP14oJ8opOWbyiw27h5ivR1s19B+WHr3IcRL/ltK7oNz1xqJTn7mfkT4zJOrD/I8tH1c9l06kSu3nSZOn6iPZsOWUrDO/+/OPxCQBN7Pmrck3Y17R63m9p2zC9i26zivnnFxZfYF8WVFsvjDnX49N4v7rYP4rR1zev2zlvg/IdT6Ug/0nZPdz22XDIz2yziRqf2yHpGwQbk3ozIUR9d9Orf9GLDciAABAfBHIqpJ0Xqk5V+TO/mXMtAnLSzVzvqxxZiYUSe0/7Pzv8GYynJOMmJWwkKjE55kk8gMH3sk0sI+ecqdsjwgmJVqX2hkbQzizFor0Ptgt6wJBttwk9eFOSP9vzf/lzjpYLzfPNedwZHq05fQuuH+ZtBWRT6Xc9caUk+dknxmJk5hQwVkJq2AY+5m4Kk8vH/27Gw66uYuyh/6Vu57j9Dl5yZewPWOcRH7EnFkL9XtrEsUHglC5SdzT4vL+qWGdz+GaZod6fucS6RqjgbKxVg4mknmCav2HZcMLJnG77vOlWTeznFkL9Xv0mNZ/dnZC96H133PFBrFmy/qH3Z7MXWsrMwkLAABAnBDIqhYvsGSGDzwczAWVWLBMurxhdMWaWS/NrWa9ubY31g7ZEBh+d0J6nnFnJWx5qE3Wt2ojOxDkses/rftil2RL3qWNYrOefW1yVrU9vNIGpI7ItsDsSLZXlDk+bUhn1qmXtrVt0mmDbWHcYX11MiNi9sRi7N6ffwbGvLyhmf4ebdXm710wfZa0fHt+9EWQX7nrjRmfSo8TQLhQWr4VlqtonDTfOEm6vjMp8nM9Msrcz2kTZM3CSdL5nanusLVpwSBGwpd/asCfYL7c9TxTLpY1Zh/tS7N/iat0/1Zq+RHxAXNnLbxQZpQ0u2BM3r/hns9hak7aoZ7KJJuv9aBf2cZKOejMrLjEGfLo9BJrCtZDCV++q4EPgnky3VkLtf77Wvn1X6I1KUl7o6ix7JtXAAAA8XXBNxYt+YN9XjWnTuYmLr388oS8994Y70A/c34m8JRt8IikfjtLknOGpPfBHt/MhvW+4FG4gYMHZOPj4cMDE635g0hmu71Pbg/Z3pAMDNZJY+h2s/fRWrBMNtvk7NkGnt0i2xpXSnvO8al858Ua0P3c98w+6dkTlfRWLxRM8vrBA9JR4lBJ7xylnurOCgaOEHORc+tU2bqpxCGe5a5XVeOkzQQ/pnwmvT/Png3Nr/DvJW6cKp3XXygDrw7JuleCvYW8n0U6fc6ZDTF6+8VpvtWdtS+160PZYPM9edsutMwoZz9N4vXWOZlARqjTn0hH1tC7stfLt4+6fyYPVvv143OOzQR7ur51cf7vra6/7+An0pPV22uk3r8o3vbDPluecs9nJXifO1eh79IYUQPlYPPqdqd3VKpH6wKblyqxXOuHRVo/FFqWnC+ti+dKcrr7OtRxrZ8eydrPJq3/7i1Q/x3X+u8Frf9S4fVfdj1v6tt1gRtNAAAAYxs9sqrp6F5Z9+AO6T3on7rb5oF6YJ8c+4JdVBQTaDoi3Q9qgzUiiGX0be2RVXabgfwbg952/UEsH/3bGx/olo6njuh27DJlgmbdYUEsY8/2nN83f6fbDBnURvV7A7lTljuOviPbAuckV2PDLGm5a6WsX2AX5DgsW5/Vv9EwV9a0lnJne7a0mguAwQNVTygfyQw7KecirNz1xoC+V045eYp6+2zOJc9pm59pS/WCIKUoZz/73nYTjHfsMjPmBXv7mMCQyWUVFjwpez3dx45d5/R37ALD/r7JmbU76qt58pxs0+PKp3HKeGlZWCfrr7ILrDi8f+Wez0rYnTLbdJ8P6PkY80EsI+blYF/KTfTe0WNmLgx+aUwgqrdnS24Qy+jX+u9QgfrP9Dpr0/ovott239aUpPz1LgAAwHmGHlmjJtMTKrS305hlj1vy9aSql+a1pjeXXhDkvdNc+jlsXtse3ksMQB62R53k65E0TppvrXN6FuXr+QScv7TOut/Wf2FBLofWf6u1/rtOv0c7tf57Lk9PK9srmh5ZAADgfEOPLIwsm58qkDg+R57eXAEnpOfJA+LMaPVQdO4vjxmO4QbHnieIBZRi2niZN0W/O30RSd0dn8p7WT2ZAPg0af03Xb9Hrxeo/z4opv7TOs3JNzkk+14hiAUAAM4vBLIwKhpvWyrrF9TnJOxNmATz6WTx2QnmQ5jhm2Z4o5dU3y7Ols4pcnAHd66BMplE5OuvGpf7vZ02Xtpu9fJgnZNt9MYCIjUu0vovGVL/NWn9t9rNx+XUf/l6Y3kzGB9McWMGAACcdxhaOGrO16GF3vA++yJKTlL6AkwC+bvrZJuusztkHRPIWtOYknWPH7ZLAJQimJA8QpWTtgNx5yWYz8vk2PqZ1n/99nVAvdZn82TNbbOk0eSkfEDrPPsTAACA8wWBrFFz/gayjMSC+dJ6+yxpaKgLzN7kzVb40p4TeYZeABgN7sx+46VhyoXB7+1pd7bCl97+lO8tUIA746HWf9Oz6j87W+FLqXz1nztjb8PBHbLx8cN83wAAwHmJQBYAAAAAAABigRxZAAAAAAAAiAUCWQAAAAAAAIgFAlkAAAAAAACIBQJZAAAAAAAAiAUCWQAAAAAAAIgFAlkAAAAAAACIBQJZAAAAAAAAiAUCWQAAAAAAAIgFAlkAAAAAAACIBQJZAAAAAAAAiAUCWQAAAAAAAIgFAlkAAAAAAACIBQJZAAAAAAAAiAUCWQAAAAAAAIgFAlkAAAAAAACIBQJZAAAAAAAAiAUCWQAAAAAAAIgFAlkAAAAAAACIBQJZAAAAAAAAiAUCWQAAAAAAAIgFAlkAAAAAAACIBQJZAAAAAAAAiAUCWQAAAAAAAIgFAlkAAAAAAACIBQJZAAAAAAAAiAUCWQAAAAAAAIgFAlkAAAAAAACIBQJZAAAAAAAAiAUCWQAAAAAAAIgFAlkAAAAAAACIBQJZAAAAAAAAiAUCWQAAAAAAAIgFAlkAAAAAAACIBQJZAAAAAAAAiAUCWQAAAAAAAIgFAlkAAAAAAACIBQJZAAAAAAAAiAUCWQAAAAAAAIgFAlkAhie5TLoebZfN+uhaPV8SdjEAAMM2c750PbxMmu3LbInWNulaO9u+AgAA5wMCWWPGZPnukhXy2p8ulu9OtovK5v2tFdJ77Qy7DGNKcpkTePIe65N2eclmy/q2WdJoXzVeN1fWLK+3r1B76qXtfvOet0lbk11UNu9vtUvXci4iR4S5oH9az3n242ECyOWh3qx5C5ZJ10Nz3TpmprMkVOOcJbKZYBYAAOcNAlkj4JrLrpWNSxY7DVz3sVg2akP3GvvzKOWuN2yTm2ThRPdp4uomucN9WkPsBcOSa6t/LmIkYXpG2cCC+2iTrtWzJTHsgEXM+YN2ej5QIU1Xyrzp7tPGRVdE9pYYPTbQdj9Bnjii3qy0GNabJnB7l7lRckS6H9guu4/a5Vn6tvZIx7NDInOWSFcrN1IAADgfEMiqsjvmL5bNN8yWWybaFq5jotxy9Q2yeclNkY3dcteriDP9suus+7TvrX75pfsUNcu9YO80PaNsYMFVJ43XLZHOe9uG0eOqkMOyteeIDNhXcvyAbHzuhH2BMa3/Hdl33H06sPNd2e0+RTUd3Svr7uyWVenHDknZH8XOzNmyfm14kJF6M74Srctk/YJKBJO0Xrvb9MQakt4HtxcsX0wwq/ugSONtS6UtT88tAAAwNhDIqqJrrl0sP2wwDeqz8uJbu2TVL7bJ18xj53550TR4JzbID0Pujpa7XuWckZ/scLfZ8sYxuwxOz54a7N3RvHqltAQCWNnqJNlWiaFk4fpS22XdfXpRbR6P7JU+u7xWJC6dYp+hsk5IzyPu+77uucN2GVBYwhkutkSSX7ALfKg3a1TR9d8USd61UroigpTFSrQulZYGkYFnn5eeiJ5Y2XY/bgK7ddJyN70wAQAY6whkVc0Muedq967wi/tfkDVvnJE3nVfqzDFZs0Mb1+b5xNlyz2XOUqvc9c4nE+WL7ikaUTUZENGLi/br7HPj+AHpfswNLnTsHLILDW3c3xo1rG5Ijv3WPh2DLr+0zj7D+WWqzMgb4MWImzlb2h5ul04zXGzwiPQ+mR34pt6snuHVm8XWf31bn5fug0PSOGeudD7dVmbvrNnSepuW24MHZOPWUnr4HpatZohhw1xpXWAXFWPmfFmvn0uTb46hiQAAxMMF31i05A/2edWcOpnbELn88oS8916t9d2ooMtuktduaBA5e1hW7Xgj06j2835ncL98ba+9g1vKeoHfMfkvFsrqiWdl084X5FemYT/v6swQi7PmLvV+WfP+Gfd1mreefZml761d0qIXBXlNniHfveZqWdgwMX0XtO/soPzNvpfll3lXnSzXXPYl6bz685JIDwU5K32Db0mHno/Asesx917doL9nX+fjP58VlFjeJp1fPiIdle511DRfuu51k9kO7Nwi6167MvP60A7ZuOmwyPJlsmaRm1TdLFtnlqnm1e2+QNaQ9D7WIz399qUK/vyIdN9nh2iYu+tts5yl7nrPS/+tS2XFdXXONsyygUMpZ9uBY/Xta7jcfciWaNKLlG8nJTk9E2AaOH5E9r2wT3pS+S5a6iWRnCdrFk+Rxrzr1kvb6qXSosdSlOMHKvCezpb1jy6RYkZwpnq6ZUMFx4MlkvOldfFcPZ92QdR75zDDUE0PPvd9eslcMPrfi+NDknrhed2/7PfBW8++zOJ8bgsNKdX3ve3WpMxLf8bc927bz/QzmefzEv6+Rxyjfq67FmcPsY2g36NV9ntULjNbWqdecKee0vd0j12YQ8/dw3ruGvT7d6f9/vmZ4M4KPS9zfOdlUD/Tz+hnek+Bc2o+d0/r504v+DseyPMZNrmGTMLsyN/z9tEM49Lvb1gPmIj93PakHlMRPWZML6w1Tr4jXe+glmuPh3w+qTdrtt4stf5LLJiv77etxw4e0Pe7hDJWPyub9bMy8KyWKyUFspT3WdfP2Cr9jBWjea3Wk3PsC1OHRX0HAABAzaBHVpVcM/Hzzv99A/3hjWrjI218mv8bMolh72jShrYqaj1txF7pLAj64jWLZfOiG4J5QvT5LTcslNfmV3Y2JTOc4zXd1mpfY9xImGEci8zsTRFTQWkjfqNeCGzWC4tMY9zQv9Nwg2wOmUWqqMZ4BTWvbpP1y2cHhyjohfTl9qkJIKy/f1lFh+w1XjpP1vsCRSbHVevqZdJpg1jeMjfnVb00XeIsch0/Ii9lBQR2/+aIfWbMkptCIy110nLvSmn3BRjS+bUqOpSy3jmnnffqhbcvEGU0Tp8lLW0rneT0oUwA7dGVNg9Y9Lrpfb2kyCBWrJngksmN5g9iGfa9KzAz4YxbQ94LfZ7Uc1nppPjmInizbssEFzOfMfe9a7/XzHoY0QuiabZ+x8Le9+hjLCqIVSF9r7j54ZK35/meLJhnh0jtywpi6fu3Vs/LQ3pefMEho7FBP9N3rZT1pfQqqSITsIvaz/aHCvRi8ffCMkGCp7bIurAglqLerJ16c7j1X98ek89ti/SW0Tur+QZzk2VI9r1SYhDLOPqO7BvU/+fU4gQUAACgUuiRVSV3zF8hP9S29Yv7t8ma9+3CHNoo/VNtOIt7N/gnZzJ3efOvF7yL/BPn7m3wDnHf4GH5mzffsHd2J8sd194gP0wPvcj3t12mob1Zfz/vnWXvDreTk+QteeKNzN3ga/RnnaaxnT42+wOHd9zq7KBseuuf5SfpO95mX78kf3l1gxyN3E+7fr677xWQ8PWCMj1VBszF83T9/7i5WLYX1cePSHfBHiUFFOzlFMLpTSLBXkBhPUyy/na650ygR1Z+gd42w+iRFewdFi2nx1KR5yezXv7eQzkq0iNr5Dk9JBaZz+GQHruvF5Xp+fTtJfb4fb3wHMFzM3DogGz79V77+a2X5uVLpd35m8X1HPP2IW+PrPRnTfdzZ0q2PpcJYpiZNteYIFXo58bXy02/Z71Zve6al8+TFfr9HIzcT7t+Vd/fwj2Z3N4eIT/3ep04vZr2ye6jvmNr1ffBDK0y719YL660EeiRZffTef+e1fdvq+/9S/eyCj/+onph+VBv1k69Wcn6L/g5KNQ7y/ssFvrsR3N7SkrxPavM0MK750pS35ayeoEBAIARR4+sqpgsVzg3ls/Kv3zkLIigP7ezHAUVWi8/pxG912uMG2fkl2+8IKvecjd2S1Ml7i7rBYA2mg03J0lwSMOb778sLfvNbdGJsrApeIv4mmuvto1x06B+2dcYN8y+6ro7dxW8aKi2vue2y7rHdkjvoSHnTrTb08P8r414c2Hds0VWPTLMIFYYE5B67EBmJkDnIr9bug/Zl8YlUyXRNFXcd8A18MEp+6wc7jachO2BbetFy6J5mTvb/Xszid29R4+/11eEpvmywhfESum56/D9jQ7f30gu9vdu0YuabweDWGZoZWZd/Ttm1kRdlglmZJKQm5/32pn1HObcpte1jxgGscz5XGODWCYAFBgK2H9Yj9877lmyIqK3kxN82uQFsYwTsvu5nnRuteRXK9ErS9+/xW7ANNWj++kLYhnORAHOe18n874W3M/E8qQNYplA1PasYadmX833c0vBYFt16WftGXf/W1aEnC+9QF5hhiwNHpGXsi+o92yXjge7Zd0DWoakg1iGHpudgc0kzm4a1RnY9P273b5/T+n75wtiGX16DOuesu/fjVmfMz12L8iVytMLK4N6s5bqzUrWf87n5EH9W3popnfWmrx5qKbKDHOKBofkPXdBmepkRrFv2dG9suEBrQvu1O8jQSwAAGKBQNaYc1Z29fsbuBlv9g+6FxKfnzT8mZsmN8lCc6NaG9VPRDWc3+93EuwmGpt825ss32x0VpRN+/LcFT4TfgwjzgQFNvUEgzUmkJJzYV05qd8c1u2eEnM549CLBjNk8L0P/MnbK8sEGdK9Yfr3ysZAoni9mB7m8MnE1+ydfcsMX+t8tF0220env3eYXih5w1ek6UqZ5+9Zpefe5AfLXBCfcIMhw8x1FDtf0AtK8/+hVEQ+shPS84L7mW388pXB4UGOIdn3Wvjnt+81d7icEyx1lgyD9/4dPyBbowJOqXfF/Ci4n/Vy85dtoO5neQKN/TVw0bnH3f+woUyJG93PfeqZ8GPo84JbM+ulecF8Wb+2TboebnOSTrs5e0q4GK+Gmfr+OUEFff+icoDZ42+cG/Y5c9X+HH7Um6FGof6rhL6B0/YZAAAYqwhkVcUZefd35v+J8sVJzoIIUbMIFVpvmCJyhJRkks3tMXG2bP7TFfJa6MMOgwjwjvl38m6NxKoK83qVHJFeE+C5Lik3VzAvVlDIDIIfngq/kPcHu1TjpVPts2iDHxR38dH3gf9CQC+mQ6bJL0VpMwf6AmdewMZygnxIzyCWtxfeb81wIOUPDJai3PX8vPdv+txA4DL48A2PTfNmHDwt/UX0+BhddqY0k4MukNOqXm6eaz73R+TliCCQSYjtzJb20Eppv2uuJE0OqoZSvitVNsO+fw0mx5HuZ+gj7P1TR/fKxqdMULTOyffVtTYr31IO6s3arDeHX/+ZoYVdJsdag5ZZZmghvZ4AAMAwEciqknc+cocjzJwYkbTVmDxJ3FEjXuPUa8gXWs/e1Y1VMCi+EsuX2lnetkvPc89L73G9MPt2JZOgl+uUHPMPmwvrQZMVCCpPSHCtquIQvMhm8jHpRX0RDzdRP8aS0KTvkUneLb247zTBK6fH0xFJPbtDuh/cIh36MEOc3KGF8RYcUrbESfjdlifhN/Vm7Rle/VfvTGjgJfp3h5hWfyh3otEN9AMAgLGLQFaVvHnWbVkHhwcEXdNkkrqqwX75pbNE5Jf9bh+botY7e1becZYUybsbXOp6YbwZoMyU3b/Ylv8Rmlj283JFnmuOolTiDnkhNhfRwM7n7RAuk39ph6Smz5U1UTOtjZgT0v+hfWpMn5Vzp7z5q74he6ZnSJH5hILrDV9wWKRJQJ6Vpyrw8CX49XoVWcPO21SJ4XI1JG8vPC+IebzEXDPlrhfGe//CcpNlP0JzlQ1/WGtFepYVcnSvbDOBpwb9DtqcVvlnXpst6/Xi3hk6qRf3qx7Y7uSfMrmy+gL5skbZMfv+HdT37059j/I9opLNHz0sPQ90S0cRvbOoN32PWqg3h1H/Ob2wnl7pzHRpemF13NkjG/YU89k+JcfM29kw3O/tkByr/TGtAACgTASyqsXmuTBDCO65zFmSZYbc482G1O9rbZWy3lthDd2o4RWZJLN5pygv1pl+2WVunjdcnTPdd37H5HnnmmOirJ53beRFh0yeHP2ztAo06gtI6EW9k5cpMCPbYdlgcoZcGp0TZqTs/rU/Mbt7p7zZXvibGeUCswQeejdyBqhkW1t6GnUzk5w/MbuXo2s40nmXHLOk/f5lup/+C6F6dzr35VmBqv53ZJ+/19l1S6Rrtf8i2KynF0yPZvY/KDvYN1dak1nbDexHufQzERacCXlUIjl5+nxel4w47kyS9YHX3wkJMEQNFy20Xom89y9yP6MclpedyQ0K9P7Q967wd7CMYJhewK+/3+1B11VkwHr3fn/S89lyU1SSdz/z89CL+3opaZcLXfQftcOQI34v0brU6T2W46i+f2bFOfr+DTPpfE7vrIeX5f5N6s0Io1Nvllf/1UvzsHphaZnt9AAud6IDb0jvaekvZsZCx2x3iO/T+n1fW4lJLgAAQLVdmJj1xR/Y51Xzr//6iX2WMXnyFDlzZiwn5PxI+v6oSf6sfrxzl/jaPzolfR+e0yaamjxDNn79BrllvD4/e1g6Xv3QXe74SLZ/PFnuaZxY4noXyfwvzpI5+rNE45dk2R/9Tl778KP0et/9+gI7xfigPPoP72pTNL9LLvmis++nT/bJZt1+rnOy93+a/Zwmc2aZ/fyf0vc/dHvpXzXTgV8vG/54hnz8z/2B7R0++0eybNY0mTJ+mvzZjMly0f/8nez9yFtRG+KXXS//acFX5C+n/E6ePBY2DdVHMm7Kl2TRxPEyp/6PpP/kh3I4vbpud/pFcjj994bn9OA78qtXT9pXPs7yY9pUroBJM+SbNzfoJYrxe3lr7+vy+tlpsuDWL7o9Yz78F/nPug9TrvqKLJn1b5zfko8HZcce3f7ZY/KvTfMyCdEnNMi8m+fJn906L/O7jiPS/cjLkm7XN14lf/YVfy6efyNf8tbT5e6+uFJ//wt5zrmIihD4W97+25eenP3UC/6br3O25z6u0+02SOOsOvncIf/6n8jrv68P7OvE6V+UJYH1zP7q/k8645ynbEcvDK7f+JWs7V5xTvabc2l/Hgvp82netytl1snfyj8O2nK2aba03XOHtDjn+oj8f3/9m8z7LhfLVxZcJ1+aYM7DPPm3487IW2+fdI8973rhvM/k2SOH5Fdv55bzmfevwd3Pcf9DBj7R7aXfX73oXX6LrP0/rpJ//fU7ge0d/fBC+bfme6Gf6SXX18vnfn9aXveOUddLJG+R//uuP5Y/bQp/30VOyjjvHF1xoRzvOyZHve026XZnXyxH038vqPnP/kRabKfEibMasz6TEd4/LZ+76TqZ13BOjv++UVqSdZLarN+d0KTe+v1eod/viQ1y7ef0PXjDvgfmuBbocbX/scy7ylkggwf2yT9GzkR3gczUbX5pYp00+fqqf6cAACmjSURBVP/OzNnSPOWkHE0Pocv83ryZZ2T/y97v1UvbnS3yfzX7vr//TY81vZ59/5L6/i3U9+9z+v59rOumf67nsVXfv/v1/dsWfP9CnTkpr7+wT/Z/WC/X3jJL5n3pQtn/gv+7R71ZS/VmOfVforVFHtDPk+mF9f888F/18x/+Hcvn6Dj3MzfpkyPyqzdKXH/mV+V/u0PLjYMp+bF+zouRaL1V/te5bn05sUHroIP+7wAAAKhFF3xj0ZI/2OdVc+pkptnoufzyhLz33rDv99e8O+Yvlh82+MMCPmcH5fs7Xk4Pj/Arfb3J8t0lC7XRfVb6zmpjPnTVs7Jp5wvykyIaaNdcu1g2Xz3RnZL8jegVvN+LpPu6ad/LuducfK30LsqX/LfAvuZdX8/PL8LPa01qmi9d9851g1ZmqNFjZgZBk3PJJlE2w7I2HXZ6WHUushecxw9IR3ooll6M3r/SBiDCeH/TvjSSy2SzN1Pg8SEZmB6eS2tg55asu/Eh/H8rbFtpetG7eqm0X5cJKoUJ26bpdbVGtxG2j54BPU8bAzMaegqdHzPU0TecMTbKeN/T6+h7flzf89B1872HQd5nstDnJPDZDWOm8//Z9txtBr4bYQrsa971o9/35tXtvt6MJZyPVj3O27zj1L9/Z/TnKvi7WQZ13QMi7bfNktRT3bIhasZAFfl3zHDAx32hkAX6PXWGM+YaeHaLbGtcKe1z9Fgf1GPNikjl3VdD97f3SX3/CkayfGZqGbdiqmwN6a1DvRnfejPRukxaB/YVOYwwin42zCQCg1rPRQ1ZjeB9Vgt9b/yyP9/m+7COhPQAANQ0emRV2eFjR+TFjyfLDRMnyhRzR9ihjebBf5K7d78pUe0sd70/kksm/i+SGO+teFZefOufpOPlsPXsneX/cVTu3vEP8p+zttk3eFge3feK/L9FNMaNwneWXSc+PCJPDv5OLrpootRNHC/pFKtndV/73H19Jmz1cx/K5n8elP4/uki+OD7k3Ox4LXw9j1lft3ttvV58pM+PHqdeAPzin/5Z/t8K9cgaEcPpkeW8+ERe37NP9p+sl2svrZOJE5yFakgGDu2R/+dnL8p/z74I9/WiGnj5l7Lurw/J55oa5UvT7d83gYW/f15+vLuIxnwxPbIcn8jRV1+X/YfOyMeT6mSSbit9KXd8SFIv75GN2/6r/N2B3PLC6Rlw6Igc/9eLpWlC9jG+Kf/fz34hP93t9WrJZs7PET0/F2edHz123e7hlw/JS16vpFjx3vcLpe7SBmnMft8f0fc9532wPbI+flN//gvZkfWZGTh0QM/lf5VniwjaGIV7ZLlOv/26/Gd93z8X9b4//XLIvqqzx+RXv9b3fVzY+x51jD5mfd3urCvq9PxkeigO6Od759/vk2cjemSZ3mCzrnDP6cDOX8qPQz6TYU6/8T9klulppc8Hnn1efpqnN8npN/S7YHomNepxeSfEBIQ2Py8/2PQbOVqn36tkXYEeWfbvfE7/zmz9O3aZ83f+27vyur83zPvvhG6v+9Ee+ek/fiIXXH6lLJktWT2yXGYb//mgvn9T9P1r8L1/g/r+7db3b6O+f0XWLWlnTso/vhzeq4d6M7715uk33tHPa3Hfl2gnZeBz+nmc+0W59nOl9MqaLXfdf500Dh6QjZuK72XrfG9vMj0k3ddn39byrOhtAgCA0UCPrBGUvgtrEr3ure0spMXeWQaCvW2K772C+Cu2RxZQLurN81W9tD28UloawnsJhmle2x7Zq7AottciPbIAAKh9JHsfQW++8ZabkLbhBumdP6OIpKyj58pJ6XvugE+9NCd9CbabZsvNX/YPOTot/QSxzhuXX+p/74HKo948X52QnifNZCZ10vLQMmm2S6OY4YHtc9yekGUFsVSi0fSNi5ppFAAA1BICWSPqmKzZP+jke0hoo3zzn66Q15zH4hJnMKogk9D2suBMR9dcdpP80Jmo6azs6ueuMnyS86S9baV0PurO6Lb53iXBHE15ZkZEjJlE8P4ApjJ5y9w8Unrh9xoXfqgW6s3z1tG9su4pM0PrLGl/ODqYlc5xdXBH+T2pZs6XNc7fSJUdCAMAACOHoYWjwTSCr7laVqeT0hafTLbS8iWd7RvcLy01PpQDIyuYBDtLIAE9xpJ8ydpNkv11mwrN5wYME/Xm+WvmfOm6u062PblddocEmUwga01jStb5JzcoWr2uP0/W3DZLGk3OuAfiOPEHAADnHwJZ5zsz7fY1N8hf6sVBureFSTj71n5Z8z53lRGUSM6X1sWzJDndF9QwCbtfT8nW58JmDMSY0FQvzbculRXX+Wa3NO/7C8/LhhS9sXCeod4cQ9wZEhsO7pCNj1OHAQAQFwSyAAAAAAAAEAvkyAIAAAAAAEAsEMgCAAAAAABALBDIAgAAAAAAQCwQyAIAAAAAAEAsEMgCAAAAAABALBDIAgAAAAAAQCwQyAIAAAAAAEAsEMgCAAAAAABALBDIAgAAAAAAQCwQyAIAAAAAAEAsEMgCAAAAAABALBDIAgAAAAAAQCwQyAIAAAAAAEAsEMgCAAAAAABALBDIAgAAAAAAQCwQyAIAAAAAAEAsEMgCAAAAAABALBDIAgAAAAAAQCwQyAIAAAAAAEAsEMgCAAAAAABALBDIAgAAAAAAQCwQyAIAAAAAAEAsEMgCAAAAAABALBDIAgAAAAAAQCwQyAIAAAAAAEAsEMgCAAAAAABALBDIAgAAAAAAQCwQyAIAAAAAAEAsEMgCAAAAAABALBDIAgAAAAAAQCwQyAIAAAAAAEAsEMgCAAAAAABALBDIAgAAAAAAQCwQyAIAAAAAAEAsEMgCAAAAAABALBDIAgAAAAAAQCwQyAIAAAAAAEAsEMgCAAAAAABALBDIwtgwc750PbxMmu3LbInWNulaO9u+AgAAAKwC7UjUBtrzqAiuG8cEAlnnvXppe7hdNj/dJm0z7aK4WbBMuh6aK43meZ5jaJyzRDZTKI2ScdK28hLZ/J2p0jbNLgJqmveZvUS6bhxvlwGjQevp+7WeflTr6Sa7qGze32qXruXUh4CjyHYkagPt+VrjXUtqvdIag/eF68Yx44JvLFryB/u8ak6dPGGfZVx+eULee6/PvkKGKQxWSkuDfZk2JAODp2XfM/ukZ0/u+Syft70h6X2wR3qO2sVxYSLqTmF0RLrv3C677eIwJrreeVudDDy7RdZtreQ5jCtzoV4nLVP06elPpGPLx+J8I6+aJJsXuhfuqV0fyoa3nadqvKz/ziRJ2lfFyKzvbesz6f35Kek56fwY5xX7GRDfZ62WTZsgXd+62G3oyDnp/ulHecuXsavUcgLFSCTnS+viWZKcXmeXDElqZ0q2Pnc45Lthgk9aT0/Xevoxraf77eJyNGmdea9twJt687789ebIs8cqB6Tjkb21X06gQmxb1LzvD4zw+15UO3Jky8HEjVOl8/oL7auggdOfyeDBj2Tr25/G+PsxvPM58u35kf18JhZo/XC71g8NXv2g7/vgEdn2pH4+816njdL3KP0dMgpfj40qrhvHFHpkxUadNDbMkpa7Vsrmh+dLwi49v2mBfbcpjEwQrnCh2be1R7oPijTetnR0e581zZb1q8t4D8tdrxinwxpEn8mxU/YpcL45eU72nXafDrx6rnYbZSOpFsqJWiw/S9S8WhvHbXN9QSyjTpKLlkjn/VUe2tT/juw77j4d2Pnuefu5TixfJuuT9fYVzl+ltSMdo1wONk65UJIL66Rz5YSxcS1QxvmsmfZ8FTjBk7u0fvAFsQxzDdj+ULsz3K3m3vejWq8Muk8Hnq3leiWm142IRCCrZplIcbes8h4PbpHuZ4/IgPlRw1zpJJilhf1Sp+fawLPPF92TbPfjOySlFwwtd4/O+Uskl0nXvUskeYldUKRy16usc7Lhpx/KqsBDKwPnYt/0tMr+Gb00EGefSs8W93O87pVzdhlGU7zLT1dieZu0X2cuUEwPrC3ScZ/W7+bxmNZNJsA0XS9W7q9m/XRCeh5xt7nuucN22floiiTbVkpXjQQ3MTrKaUeOpIFXh7LaVUPSsesT91pgysWy5sZxzu+dj0a7PV8VC5Y5PYCc+uGpLZlrQH10PHVAUoMijXOScnPNBVW0XnnA3c91W2u3XonjdSPyI5AVF0dPyO6t22XdgwfSwazWBc5PzlOzpdUU9oMHZGNJ3T0Py9Znh0b+/DXNdvKSdLbNksbjR6T3Z0V2+S13vaJ8Kv22x0nAqc/czxhQURfKDDOMAJUzbYKsT+fxqtYFTQ2UEzVZfpZD661F7l32VE+PbHjuRGZ/+g/LhkdMg1lN1/qplDHcY8pUmTHdPq2ivueel+5DQ9J43VzpfLSN3lmjTt/3nJQa1VZKO7JW2kufSt/bH8u6n7vBrMbE+JheXFfifI5ke35kPp/NN8xy/jeBlg1ZaWT69uyVDQ9skY68aWBG43sUFyN83ThzvqxP5w2jfqkWcmRVXb0kFsyTNbdrQ9oWLgMHD8i2bXvlvRvN2FvJyk1lxzc3RI/d9cbsmi9j6Bjomdp4X5GUeXPq7Hhl3Wbk2Gpve6abZY+8ZL7odyczXVoHhyT1TG6Bmh5jHLUPWX83rNBNLFgWOC9hIscl67qb75oV/fN8vH0/uENWPV79OwemN8AacyGlzwcO7ZCNm8JyoOQqd71SNN96ibRrK8jc9Vv3yqfuwnRuoGLyAhWb+yr798bptifJisSFmc9o3yey8dd5cidNGy9tyQkyz7/O6XOy7QXdx4rl3LL7afM4mW22Lp4gySk2V8XpzyR18CPZ8LY9V1ncvBb6nfbORdg+932kx3ku5zgTV02Q1jkX67bsAtEGXd/Hob873P10lHE+Sz6+qyZJ15zx0lhMAEvXW6XrGd7nMn/OEe8zVczntBDvb9mXWQLfj1D6eb7xYv08+4/Vvn8pPRcV+3wGeefJVb38c8MvJ8pXi+Vn8+p2ab9O6+j79knT6qXS4vWwMsGplNZ9Ocuc1UR0nzbrPslxrTej8j+F/o7+TV+OLKee/rbW097QxOO6nRe0nk5l14XeevZlloGdWn8+V6D+NMHAW7U9oceT/o4f1/bEz7Q9kTdXl7Z9ktr2WTxFGn15wAYOpXLfCz3mrsX6XhUTwNL3cpWuXykmV9maNjPUxHxO9AJnU75gp23X2Pwzpq1VVHvJcttuvjZfWFtN2yUbtV2SvQ9uzhwz3MguMOfyoJ7LkN8d7n46SmpHuko+PpNwuUAbMM3XXmteq9+/OVo/PNWtx+AsCmHPQZ62dKntyFLLQff3zfJPpEnbOy1aT5pyOrXrlNZrWufkLHNWc3g5sqLrHi9nae5249IOqUi9Us32fJmfT7/SvreZz3ZJ1zbD3M/SyyXvu+W8yBG978FyqU9fN69dKisC29Ey+PHoMjhO143ee+mKvhbG8NAjq6rcL22nfnH8X7rGOXOl/aE2WTPXLihR3yveEMM6udxZkmEKpM0PLZEWX8FgpMdW54kKz1ihhZmum27sGPo8afJyVXjWhua1uq2s81IK967FkOx7pcTCyPDGcs+5orq5SPy9AUwh1qOFZzEXU+WuV4b3tKFhDA75GhonPxVnqLv+7D1nQYVN1QaYNn7afY0qozFxcWTOB9Mw2/wtt9EXWGfKeGn/VhV6o2hDrPVWbQzqNtONMkOfm9wUm28tPItd5D7rI/hemsbgJdK50N94NHS9xCTpzDfTY5n7WYnzWezxFRXEyrI75d5tTs7JkwNEG83zzN/uG+38VfbzfH12wM6+f9+aKutjPvxjVMqJmi8/p8gKEyRyAlaG1pWL50vb6qxlbZmcV81ftXfbX38nen9+qxc65v/pufW7MeNWrTvNMEl/fi19bobJbV5d2XraDIPcrNsyxxP4jpvhj/eaWQ8j2hP6HqzXc+O8B/791PPReN0SpwdU9uyLRQWxqqAvtVfW3bdFekvpnaXtolbThhlGeymyraaP4GfDtCP18+zkzLGLHLreHD2X+WacLnM/h9OO9BR7fOW0AXdvc0cmJG/PM9Rn5pUyz/ztg9H5ekptR5ZXDo6TFSbYo/WkS+tmrdfabs1atnBSVdqjtdwOqUi9UuX2fLnXKOV+b3fvP+L833jbPGkuYfhg+fsZVHy5NAxa/lw+U+sIvT5uz96OXh9Hpc45L64bUTJ6ZFVRJho7JKmnMne/EjPnS+vdXuGWHaX1It35ZlPwfidrXRttdrb3bEq2bs003p0otikAIrfnvvJ6i7l33OqluXWptDvjtbPufg2nR5ZvP3v1vHizMJo7F2u00C88k0Qx5yg/U1jn9oarnFrsRRDKzhAT7PkSvMuWf/v2d4vukWVfmt4juz6SHnunLqH70Rk1U016FpvPJPXqx7L1lcydQbPeGv1Zo/l7FemNEtxP00tsW+pj20NpnDTfOEna7UxCYb2FTKPR3EVN9Z2TZEL3+fQ56X7hE13fa6iNk8S0TwM9dLx13LuyvruX5i7qYm2AOvuSfXdyGPs5jPNZzvFl2DvI/hmK8vDu1kb1ynJ/Xr1eSIZ3vPl6ZKXfP+dc6HuU3hc9F1ddLGvm6Hnqi15/WMzQwsXuhUe+fRw2+5kpv5woTa2Xn26PLPNM6zBnFkGtk9I9n3KXpXq07jQ9tQKvze+G8X7P+zv+Zc4vOD2Htv1a62n7s+blWk+nhyzm+9suE6Dq1N/P2yNLz6XTM8y0J7JmU8ycZ/8+evQC5dEl4oyMNMM5X9gnPemeYmZf58mKRbNkMHI/7fr5eq1VSfDzE9Y7S9+HctpLltvuqJPUwSOSnKPndlDbME/u0/Uz5ycx84T0+dok3jrO++BrRzq9Ju7WC05nX7LbQsPYz7Laka5yji9D3/en9X2PbFMGFeqV5f48fD9d3jkqoR1ZYjno1WFOe8epp/z1du4y/98tWPd49XhIfVpOPZ2ux0aqHWJUqF6pdnveVdrns7zvrSvQk0e/Q70lzVZf2n4aw/veZnh/p2CPLFsuOXVl4BpwmROoMvKVS7G5btTr5PX2Wr+sXmAoCj2yqkU/wCtsEMt86P1duPuOmnHOO5ykfcNTJzNm2KfmS3q7VwDo9nyND6Nvz3ZZ95SJ9NfJvBvD76Y5X7THvcaOYfJy9UiHGRuskjdU5m5vwnZbMPvpL5zN+G93H2fJTXnHIdsx4INDw+wJ4D9/FdRkhiq4jb1UKb0Byl1v2CJmhzkdNpNMBZhG1U+1Aefrbt739kfSbTfWUOfvvaKNGhMIUE7Xe1/QxTDrrdtlhqNdKPOuqGyvF6cB+WuvUWZ8KrtfOSUdr7p3EZOz3P0KYxqPZv1VW0xgw98IzQryTJsga2zj0TRq041H4+Q56dmi5YeTR2K8rIjo1VPaflbmfBZ9fMOQ7pUVep7Hy03mAkE/Sy9VaHvDZRrxmffA0HNhzucWkyzef44q6OTHsiGdkL5K20gboXIiRuXnwE5tUDtBnBPy0utuPelf1v+hsyjLkBz7rX1aBif4tMkLYhlaTz+n9fROW09/tRL1tLYnFtv2hJPLK6s9kdL2RI9tT3wt2J5ILE/aIJYJRG33BbEMs6+67mNbCgbbimOCXu2yuYjH+iJyjjnH9dgO6T0uTu+sNVE9ztRw2kvmYtGsv+oBvaBKXywaWReL2o5cYy+Gs9uRcvSw9DywRXqdduQsWRHRS6q0/Rx+O9Io+viGId0rK/Q8z5abTPtbL8hfitxeue3I0svBgVc/sjdbPpWX+tx62b8sNFdUJHODZJJ0mSCWGugLG/Lnqt12iF+l6pUqtefLMczv7e7Hu/X76Y28sbPVP90m61urO1vhSHxv00yw7M7sa8DtzgyBRkNjVr0Sx+tG51rfS4DvP5+oJAJZ1TLDdpc8mIqI3J6SY/ZZRXjdqAcPyNaQu1OOPe86iWQb514ZUhhGd7dMD2X8wtSqFqJ+2YVYpfUNlNRyKFu573FFPxv56IX2KhNUyroAd2Zrs/mKKksbSqbXin3l53UzD/CGj53+RLZm383zvH3O/Vxro61yn8/PZN+74YGBvnfPud+HKdqgdJaE6PuouMDCVNvdv+/jrPfAo+/FQfd9CD++EvezUuez2OMbDm1A7zNf08SE3CENV413LpbzNeJHineeG6+fJOtv1HMWNfwizka8nHDVevk5+EFunelf9t4HbrCgcrSefi2inn7N1tOXVKCebtL2hOn9dVzbE1EBp5RtT3zZ356ol5u/bC/g8iXW7497o36Y7aWDO4q7sCnYjjwhPc+Yizh9HyrRrht2O9Iq9viGIz3UJ5k7RGvBFW79cCDPEN5ylFkOBobOWf5loW0fq/H6Omcyj8yjzum97vQaLFQP12o7xFOhemWk2vNFG/b3Vo/JTO7lm6nQBFCSt7lDEtcvqNL10Uh8bx1aP5hce/aV33sD5deZY+W6EaUhkFUlXvR4YCDsVkOlDMkxr8XuFZwNc7Wga3dmSch92O7+5TLjmu3T4fAKg+Rdy4JjwM2YadutdHBgJArTKunfKxt7TCOxTlqc6b2LvItS7npjmdfAmnKxdAYac/6HSXg6CqZcGPl9GMjTMPVL2N5neX/fm8Unz/by8q9XofNZ7PENj9d4zu4d5vUqOyfbqt4LqQgn3RmkUqcvlOT1JieWPY8rTW6sMRrYqqYxX37WyYwv2KfVEJFbqyRfsO2J6SZnlLYdQh9h7YmpdsbB09IfGG5YLYdlw33dsqqIRzE9wMzQwi6TE0yPwRlaWCgRfj552kvFtguLakcesznVym2f+derUDuyuu1ejxcMyO4d5vUqOyLbxmgvCDMpS+8u0wMqf7CnZtshY1wlv7fuTIVahj24Q3oPmiCPm99ufRVmaRyZ7215xvx1I8pGICuOvLtmprFY6e6eIyHdfdRNHJpuIJmEpGbxwR3RdwMrxKtoqiU4RGGJm9y2iOm9y10PGJPe/sQZ0tB4/cWZBJs1k+Tdxxvi9/Mh6X71nKT0gmBAG+5eYKvr1jy925BjbJafmaGGDZfm2SevN9SIBYPgBD9Wt6UnCHCHphaXXwajaM8+Z4iWkxjbLiomyXucOEMDf6p1i++xbksmvyiq356vCWZI4uO+IcH5JjoYi86D60aUh0BWlTU2TrXPKidxo2lsKX9F7UX39ctsxuPmfRSZADDNu0s37LHFfm5h7OxzmjYgn90hHRHT0mackmOmq+2we4j5erRVQ79WPI90S0epvQTKXW8s8u4C9pku6MHGXM6jwgmnI3m9mk5Xbra2xiluQtRQ5W4vbL1aOJ8l3Zn1coqMl5uucpckrrDJ6FPFDz0YMSdNXpCPZMOWU7LOnMOffyQpE4hLTJI1MZ+5cMSNwfJz92/scJLAcLygxNds/X68xPrW60VV6nphvJkTD2l7IqR3U+ARmpB9ijRlzUpYskr0LCuC0wvr0ZXOzIymF1bHfT2yIZDXq0RVaC/lbUeWu72w9arZjixWSe26E/LSAdOWzOTHcdvHQ9K7rdAU+ZVqR44dI9YOqYoqt+c9JXxeqvG9TQ8JLmRMfq7Pg+tGlIxAVpWkC5uoqTpn2sRzpUonERRJ7fdV1PnyBRQlKoFdJvlnIN/A0VPuFLkRhUKidalvZoosC5Y5M3L0PtjtjAHPNI5yk4uGOyH9TrJcbSyXdaz1cvNccw5HpkdbTi+B+5flTD0eptz1xpSTefIkVdmM0DZIJll6JfIzpfNHRB5f4e2VtJ+jeD4zxklTCdvue+VjJyeLmbI8oevebKYsr6Ek74mr8vS20vO9wcstku8ioVxm1sKV7lDGrjEaKBtT5afNK2WG7LWGjs+aLa3e7IMvhAUKooYlZpKzD7xegbxA/dqe0PMm12l7oqRzdlhePmT+r5OWb+fpMdBUX0RgsQLBsLzqpXkYvbBKai+VKdOOjGrXFd5eae264bYjK6G0dl3f1pRbPzg9VGzbLm+Sd89w25Fjx4i3QyqqjPZ803xZf3+7M0S6K8+EDuEKf16G871tXlsgB5YXACtojH2uY3ndOFvWP+z2HOtaW5nJ0pCLQFa1eA0C0w3y4eCYXjPFaJfXHbJYM82UyWY9M82oOrgjODWpfkm9fAEtD9nZLQJfVrv+07ovdkm25F36ZfPPimGmiU1PlZqdb8BGt83x6Rc0s44W0FoQu9POhnO7Z2qDPM+sN4Xs3h+WG6FIo9H13N9LYPqs/I18v3LXGzMyeZJavhWWc8id4rnrO5MiP9fluVCSC+327BJnGur0VNMVys908mPZ5tTA9viu8gUjitpeqfs5WufTOCcve8e6eII0+7c7TbfrP/aAc7LVzHw0ZbzcrPtrhhVWr1FcIjPb08JJ0vmdqe7wQT0Ov4S+F+u92aVOVz6vWHPyYkk677M4yeZHLzhZZWOm/DwsG3RfjGSb1tN6EZXenyZt9N5v2wV5kqwn28zFl6/O1fXa7td62hmOqPX0cPI6pWl74gXbnrjX7KduLxBU0vbEctOTKbc9sfvX7mxyTn4tEzwMDO3U43XyUK2UztVRDftgMKzZv90m3W6Fhoomli+V9rJ7YZk8NbadZZfkby+V6ehe2eYMp9FzYdp1/gvcorZX6n4Ovx1ZPn3fvWO9W993/3ZN+zfy4v6wbDXDrRpmyc2tbtuu2CDisNqRY8mIt0MqqIz2fPOtcyXplJdaby5aWmSwvoTPZ7nfW2e2ezcHVpdz3Rj8XDrXjjYfVOqZqKB7ud+j2hbH68ZEa1KSzvusn7NRvTkwtl3wjUVL/mCfV82pk7kV7OWXJ+S992riUqR6tFBKB56yDR6R1G9nSXKOOz1rZmaLel8hF27g4AHZ+Hh4IZZozR9EMts1s0Xkbm9IBgbrpDF0u9n7aGmhutkWqtnMFK7bGldKe87xqXznxRrQ/dz3zL7ANKtB2ug3SUcHtRFaYhd37xylnurOCgaOEHPBcutU2VrC3V9HuetV1TjbWHGnbQ6f8cYo/HuJG6dK5/UXutM4ZzV6vJ9FMslPX/Cmsx4Obz9N4EErHxskCCrvGKJlthkubHuV2c9IEeezvOPzmTZBur51ccR3/5x0/zR8RksztHB9Ogl9vt+rrGKON3HVBGmdkwkohTr9iXRUYahm862XSHv6yqHQd3CMqIHys3l1u7RfpxcTPZkk4onlWq8s0nqlwDLD9AQyQZRQx49I9yPZMzppPe0Eq7SePq71tL0IC9K69jGta4vIq+Xt18DOLbIuT+DL+71Iuq+9P9P2RPY2m7SOvzdfHV9gX/Our+fnvvAZr0qRWL5MWj/YV2IAK9M+GxjUcreU9pLy2h6mfVT87GCF2oRh26vMfkbKaUe6yjs+n7xtQzNdf9T7btuDzvN8v5fNrldGO7IYXvmc2vWhbLCzBHt1SrHLyqlry1t35NshlVBOe94rv13Fl5ulfT7L+d4q3cb6u+emAyBhBg7ukHWP5xk6W+L3aNjfW6vw3/HOSRllZAyvG711PMM9vwhHj6xqOrpX1qVnmvDY8bwP7JNjJc1cZAJNWgA9qF+EiCCW0be1Jz27hXNX1DPobTe38eHQv73xgW7peOqI0/DxmKBZd0SBY5LvZf+++Tvdpuunflkjp1E9+o5sC5yTXI0Ns6Ql78wc3l24ubKmtZTo+mxpNQVLvumlq63/sGwo52Kq3PXGgL5XTjn5hnr7bI4nz+nPJPXqR9Jhkp9WtKH0mex74UPp2HXOaaB5Bvo+ke6KN8rc6aY7dpmZ7+wihx5rnx5bzvTUfuXt58ifT8uZ4c/kjQr2TnJnYfokz8WH15tL9dVQknfV97ab6N19/8KOa6gqQSxjdyrzmRnQ960q71mtGQPl5+5NPdLRc0BSx7PaBju1js4JYvkc13ra62Fmhv5ZpldRd7EXYyXoe07bE2Z45qGs9oTut7evodvs17bPfVuke2dwP512zCFd774C+2rW1+0Gz48epwmc9eyryPe/77ntJQax/IZk35MltpfKdkJ6nLaZNw2/R8+lXtB23Jlve+XtZ9ntyOGybeaUbsfPtH17n8r3vnu9UFRJPe3LbUeORSPfDhm+8trzptdoypZLAzufL77cLOnzWeb3Vrex4YEtuddWKnMNWCD/W9nfoxoWw+tGZ9hz1nuIyqNH1qgpHJkem+xxS76IeL00rzW9ubTgzRvBLv0cNq9tD+8lBji8O4y13rslLvtZOe7d7fPneIFqKbZHFrLFpd12/rUvy2/bna9t8UoY3XYI7fnzRcyvG+3oJXpkVQc9sjCy7Djj/DkM8vTmCjghPU+afBxakT5UOGeD6ebpFnLPU+kBcTJtgqwwQ+hqKMk7EFeXX5pn2BgQNzNNbiH9f7CYJO/ZSmtHojbQnj+PxPy60c3vNST7XiGIVQ0EsjAqGm9b6iRATKd3sRImEWI6WXwRCVNNF1rTBddLqm8XZ0uPVTZjy4mIA7FhclB5ebVSB6szRA8Yk0wi+GSwnjXJ1t38MNqwfo26EPGWWJDJnROdALuAItuRqA20589PsbxunDlf1jh/I0XAtUoIZGFkaQHizeZhZubofNqdmtR7dD60RFrm6JfejOV+sMiEnXu2y7oH7UxJeWaFMOPSVxUaWw5g9Jmk8N+5RDbro3OhG8QyeTq8RLgACkt8LSktbVrPPupONW8enW122vdD2rCucE4tYESYxM9em/EuN4hl2nfDmrynyHYkagPt+fNILK8b6yVhZng1QXaT24zPatUQyMKI2/24lwAxK5GocpMRbik9maiJsOs6uyPWMclLCyZIBFAbpl6YmZ3GJKDfNSTrfn3OLgBQjL7XnpfusETtPVtk3SbqQ8TUjLpM/WAS0GubsSLtuwLtSNQG2vPnn/hdN06V1ttmOb25zH7FMsF+TJDsHQAAAAAAALFAjywAAAAAAADEAoEsAAAAAAAAxMKoBbIYVggAAAAAAIBS0CMLAAAAAAAAsUAgCwAAAAAAALFAIAsAAAAAAACxQCALAAAAAAAAsUAgCwAAAAAAALFwwTcWLfmDfV41p06esM+Cmte2S/sc+0KGZGDwtGx7crvsPmoXAQAAAAAAAFYN9ciqk8aGWdL+0DJptksAAAAAAAAAz6j2yAqYOVva7l4iLQ1D0vtgj/TQKwsAAAAAAAA+tdMj6+hheenAkH0BAAAAAAAABNVUsve+gdP2GQAAAAAAABBUU4GsROMU+wwAAAAAAAAIqqlAluu09JMfCwAAAAAAAFlqMJAFAAAAAAAA5KrBQNYsaX94vjTPtC8BAAAAAAAAdcE3Fi35g31eNadOnrDPCqmX5rVLZcWcOmm0Swae3SLrtha7PgAAAAAAAMaqmhxa6AWxAAAAAAAAAE9t9chasEw23zVLZPCIdD+5T3YfpScWAAAAAAAAXDXVIyvROEX/HZLeJ7cTxAIAAAAAAEBADQ4tPC39R+1TAAAAAAAAwKrBQNYUaWLGQgAAAAAAAGSpyWTvAAAAAAAAQLaaCmT1DZy2zwAAAAAAAICgGkz2DgAAAAAAAOSqnUDWzNnSeludfQEAAAAAAAAEXfCNRUv+YJ9XzamTJ+yzoOa17dI+x77wDB6Qjgf2Sp99CQAAAAAAABg1NLRwSAYOHpDuJwliAQAAAAAAINeo9sgCAAAAAAAAilVTyd4BAAAAAACAKASyAAAAAAAAEAsEsgAAAAAAABALBLIAAAAAAAAQCwSyAAAAAAAAEAsEsgAAAAAAABALBLIAAAAAAAAQCwSyAAAAAAAAEAsEsgAAAAAAABALBLIAAAAAAAAQCwSyAAAAAAAAEAsEsgAAAAAAABALBLIAAAAAAAAQCwSyAAAAAAAAEAsEsgAAAAAAABALBLIAAAAAAAAQCwSyAAAAAAAAEAsEsgAAAAAAABALBLIAAAAAAAAQCwSyAAAAAAAAEAsEsgAAAAAAABALBLIAAAAAAAAQCwSyAAAAAAAAEAsEsgAAAAAAABALBLIAAAAAAAAQCwSyAAAAAAAAEAsEsgAAAAAAABALBLIAAAAAAAAQCwSyAAAAAAAAEAsEsgAAAAAAABALBLIAAAAAAAAQCwSyAAAAAAAAEAsEsgAAAAAAABALBLIAAAAAAAAQCwSyAAAAAAAAEAsEsgAAAAAAABALBLIAAAAAAAAQCwSyAAAAAAAAEAsEsgAAAAAAABALBLIAAAAAAAAQCwSyAAAAAAAAEAsEsgAAAAAAABALBLIAAAAAAAAQCwSyAAAAAAAAEAsEsgAAAAAAABALBLIAAAAAAAAQCwSyAAAAAAAAEAsEsgAAAAAAABADIv8/XvQZCvwUU30AAAAASUVORK5CYII=;" vertex="1" parent="1">
          <mxGeometry x="1830" y="915" width="1202" height="815" as="geometry" />
        </mxCell>
      </root>
    </mxGraphModel>
  </diagram>
</mxfile>
